<?xml version="1.0" standalone="no"?>
<!DOCTYPE svg PUBLIC "-//W3C//DTD SVG 1.1//EN" "http://www.w3.org/Graphics/SVG/1.1/DTD/svg11.dtd" >
<svg xmlns="http://www.w3.org/2000/svg">
<metadata>
Created by FontPrep 20130207 at Fri Oct 30 13:49:45 2015
 By Ben Racher
Copyright SoftMaker Software GmbH 1995
</metadata>
<defs>
<font id="3605b6585e1affd02da632ff3f22fa70" horiz-adv-x='1024' >
  <font-face 
    font-family="WalbaumDisplay-Bold"
    font-weight="700"
    font-stretch="normal"
    units-per-em="2048"
    panose-1="0 0 0 0 0 0 0 0 0 0"
    ascent="1638"
    descent="-410"
    x-height="991"
    cap-height="1436"
    bbox="-373 -528 2099 1845"
    underline-thickness="81"
    underline-position="-263"
    unicode-range="U+0020-2215"
  />
<missing-glyph horiz-adv-x="1433" 
d="M1257 88v1258h-1081v-1258h1081zM88 0v1434h1258v-1434h-1258z" />
    <glyph glyph-name=".notdef" horiz-adv-x="1433" 
d="M1257 88v1258h-1081v-1258h1081zM88 0v1434h1258v-1434h-1258z" />
    <glyph glyph-name=".null" horiz-adv-x="0" 
 />
    <glyph glyph-name="nonmarkingreturn" horiz-adv-x="552" 
 />
    <glyph glyph-name="space" unicode=" " horiz-adv-x="552" 
 />
    <glyph glyph-name="exclam" unicode="!" horiz-adv-x="552" 
d="M329 1456q71 0 105.5 -50t34.5 -126l-2 -76q-58 -391 -115 -780h-67l-111 823l-2 49q0 66 43 113t114 47zM308 309q66 0 119.5 -41t53.5 -102v-33q0 -63 -57.5 -107t-119.5 -44t-107 49t-45 113t45 114.5t111 50.5z" />
    <glyph glyph-name="quotedbl" unicode="&#x22;" horiz-adv-x="849" 
d="M610 1143q-57 0 -99 41.5t-42 113.5t49 115t121 43q102 0 149 -86q39 -70 39 -190q0 -225 -288 -389l-29 51q195 96 215 319q-58 -18 -115 -18zM144 1141q-45 0 -92.5 47.5t-47.5 111.5t47 111t129 47t134 -76t53 -170q0 -145 -84 -249q-59 -74 -207 -170l-25 49
q104 59 153.5 133t63.5 194q-79 -28 -124 -28z" />
    <glyph glyph-name="numbersign" unicode="#" horiz-adv-x="993" 
d="M414 969l-56 -404h256l56 404h-256zM-6 426v139h221l55 402h-223v139h244l59 428h144l-60 -428h256l60 428h143l-59 -428h172v-137h-193l-57 -404h190v-139h-209l-59 -426h-143l59 426h-256l-59 -426h-144l60 426h-201z" />
    <glyph glyph-name="dollar" unicode="$" 
d="M702 274q0 84 -50 154t-130 119v-498q180 45 180 225zM293 1161q0 -61 46 -121t112 -98v412q-158 -48 -158 -193zM74 1069q0 160 114 248q88 68 265 102v199h79v-195q129 0 236 -53q137 -68 137 -184q0 -51 -33.5 -93t-85.5 -42q-80 0 -104 61q-16 38 -16 116t-35 105
t-99 27v-465q229 -158 271 -199q127 -127 127 -297t-118 -281.5t-286 -125.5v-221h-80l-2 213q-152 0 -272 69q-147 84 -147 226q0 63 36.5 106t98.5 43t96.5 -46t34.5 -108l-12 -116q0 -57 59 -84q20 -10 113 -29v561q-139 90 -207 140q-170 126 -170 323z" />
    <glyph glyph-name="percent" unicode="%" horiz-adv-x="1585" 
d="M1309 692q-1 164 -91 164q-52 0 -76 -45t-24 -106l4 -287l2 -240q0 -57 24 -97t75 -40q85 0 88 221v33zM1215 915q158 0 241 -155q70 -129 70 -302t-64 -302q-82 -166 -238 -166t-245 160q-74 133 -74 305t68 301q84 159 242 159zM1026 1399h111q-153 -284 -395 -771
t-314 -630h-104zM139 844q0 -295 115 -295q90 0 90 321v92q0 91 1 183t-24.5 154.5t-80.5 62.5q-98 0 -101 -295v-223zM249 1415q161 0 243 -162q66 -129 66 -296t-73 -302q-89 -163 -241 -163t-240 170q-72 139 -72 316t70 294q86 143 247 143z" />
    <glyph glyph-name="ampersand" unicode="&#x26;" horiz-adv-x="1544" 
d="M862 1279q0 69 -41 110t-105 41t-100 -42t-36 -104t37 -145q37 -84 59 -135q113 86 149.5 146t36.5 129zM238 490q0 -122 104 -264t229 -142q100 0 211 84q-83 137 -191 345t-155 290q-110 -67 -154 -129t-44 -184zM1395 317q0 65 -29 160l68 21q23 -82 22 -185
q0 -143 -102.5 -239.5t-243.5 -96.5q-86 0 -155.5 38t-139.5 108q-63 -61 -186 -102t-223 -41q-180 0 -316 104t-135 272q0 170 156 310q74 66 299 200q-37 57 -65 137.5t-28 143.5q0 156 111 247t270 91q318 0 318 -191q0 -109 -107 -202q-37 -33 -200 -138
q141 -276 282 -553q137 178 137 355q0 59 -49 95t-112 36l-43 -6v51h567v-51l-59 4q-150 0 -222 -156q-82 -210 -111.5 -266.5t-68.5 -120.5q80 -124 120 -158t100 -34t102.5 51t42.5 116z" />
    <glyph glyph-name="quotesingle" unicode="'" horiz-adv-x="423" 
d="M261 1110q50 0 95 -45t45 -113t-47 -112.5t-129 -44.5t-134 74.5t-52 168.5q1 146 73 238t220 178l24 -51q-102 -49 -150 -124t-65 -192q70 23 120 23z" />
    <glyph glyph-name="parenleft" unicode="(" horiz-adv-x="835" 
d="M432 614v-221q0 -299 82 -499t307 -367l-33 -55q-324 195 -477 417q-178 256 -178 583t188.5 598t473.5 394l32 -55l-26 -16q-185 -121 -277 -329t-92 -450z" />
    <glyph glyph-name="parenright" unicode=")" horiz-adv-x="835" 
d="M358 457q0 338 -71 536q-88 242 -318 426l35 54q220 -155 358 -287t216 -306t79 -410q0 -461 -354 -781q-81 -73 -311 -217l-31 63q246 168 332 404q65 180 65 518z" />
    <glyph glyph-name="asterisk" unicode="*" horiz-adv-x="749" 
d="M6 1176q0 46 27 85t73 39t115 -61q49 -47 98 -92q-3 10 -41 98t-38 127t36.5 63.5t84.5 24.5t79 -28.5t31 -75.5q0 -13 -90 -213q63 59 115 107t97 48q44 0 73.5 -39t29.5 -87t-25.5 -75.5t-65.5 -27.5t-105.5 10.5t-98.5 10.5q86 -43 131 -70q82 -52 82 -104
t-39.5 -87.5t-87.5 -35.5q-66 0 -98 102q-20 80 -41 160q-18 -106 -33 -160q-27 -98 -104 -98q-45 0 -85 33.5t-40 78.5q0 72 117 129q51 25 102 49l-49 5l-152 -21q-39 0 -68.5 29.5t-29.5 75.5z" />
    <glyph glyph-name="plus" unicode="+" horiz-adv-x="1267" 
d="M6 680h510v510h164v-510h516v-166h-516v-514h-164v514h-510v166z" />
    <glyph glyph-name="comma" unicode="," horiz-adv-x="477" 
d="M152 303q196 1 196 -269q0 -128 -72 -220t-217 -179l-30 52q111 61 160 131.5t63 195.5q-62 -30 -118 -30q-55 0 -100.5 44t-45.5 112t47 115.5t117 47.5z" />
    <glyph glyph-name="hyphen" unicode="-" horiz-adv-x="749" 
d="M2 639h688v-197h-688v197z" />
    <glyph glyph-name="period" unicode="." horiz-adv-x="395" 
d="M192 307q73 0 113.5 -52t40.5 -121t-50 -113t-118 -44t-116 48.5t-48 120.5t52.5 116.5t125.5 44.5z" />
    <glyph glyph-name="slash" unicode="/" horiz-adv-x="714" 
d="M514 1438h174l-569 -1438h-170z" />
    <glyph glyph-name="zero" unicode="0" 
d="M309 510q0 -477 176 -477q88 0 129 90q31 68 31 166l17 479v51q0 18 -7 154v55q0 143 -24 215q-41 117 -148 117q-176 0 -176 -473zM478 1413q257 0 386 -248q102 -199 102 -465t-104 -469q-130 -251 -364 -251t-373 231q-119 197 -119 472t92 470q123 260 380 260z" />
    <glyph glyph-name="one" unicode="1" 
d="M688 1427v-1376h191v-51h-701v53h201v1063l-186 -143l-31 57q182 139 231 182q121 104 203 215h92z" />
    <glyph glyph-name="two" unicode="2" 
d="M571 997q0 115 -45 193q-57 98 -170 98t-182.5 -84t-69.5 -205q0 -215 183 -317l-33 -53q-111 68 -163 154.5t-52 211.5q0 176 126 300t306 124t295 -114.5t115 -282.5t-107 -317q-82 -115 -242 -246q-131 -100 -262 -201h383q96 0 146.5 48t74.5 147l64 -21
q-39 -94 -84 -227t-70 -205h-792l-15 41q133 137 269 274q154 168 240 332t85 350z" />
    <glyph glyph-name="three" unicode="3" 
d="M551 909q168 0 275 -131q108 -130 108 -320t-126 -332t-314 -142t-295 81q-106 81 -181 248l62 21q31 -113 121 -188.5t205 -75.5q143 0 190 143q27 81 27 247t-25 242q-41 129 -156 129q-76 0 -157 -57q-14 -10 -129 -110l-41 47l497 440h-438l-86 -176l-57 26
q126 269 194 400h680l21 -51l-408 -361q-25 -23 -49 -43q-14 -14 -43 -51q57 14 125 14z" />
    <glyph glyph-name="four" unicode="4" 
d="M461 502l-2 590q-199 -295 -396 -590h398zM760 1438v-936h135v178h70v-434h-72v178h-135v-426h-303v428h-484v68l647 944h142z" />
    <glyph glyph-name="five" unicode="5" 
d="M500 934q188 0 300 -130t112 -333t-136.5 -345t-349.5 -142q-160 0 -268.5 93t-163.5 253l-14 43l61 18q25 -129 114 -219t222 -90t184 133q33 84 33 246t-31 239q-49 125 -178 125q-98 0 -160.5 -62.5t-85.5 -164.5l-57 10l80 797h432q104 0 147 37q10 10 72 78l41 -17
q-110 -244 -188 -303t-267 -59h-63q-64 0 -111 2h-28l-39 -363q154 154 342 154z" />
    <glyph glyph-name="six" unicode="6" 
d="M332 483q0 -448 174 -448q119 0 156 170q16 78 16 252t-25 250q-43 131 -164 131q-102 0 -137 -136q-20 -78 -20 -219zM571 922q205 0 311 -130t107 -334q0 -204 -137 -341t-338 -137q-252 0 -379 223q-102 179 -102 473t123 500q150 248 444 247q124 -1 224 -67
t100 -182q0 -43 -34 -81t-77 -38q-119 0 -119 131q0 18 12.5 55t12.5 65t-41 42t-84 14q-262 0 -262 -537q63 51 115.5 74t123.5 23z" />
    <glyph glyph-name="seven" unicode="7" 
d="M578 4h-338l14 55q70 285 205 551t332 545h-654l-49 -182l-63 18l114 410h842q-141 -266 -227 -476q-176 -430 -176 -921z" />
    <glyph glyph-name="eight" unicode="8" 
d="M723 1079q0 111 -55 197q-54 86 -158 86t-172 -50t-68 -143q0 -141 201 -233q133 -51 184 -72q68 104 68 215zM213 374q-1 -148 65 -240t207 -93q96 0 179.5 72.5t83.5 171.5q0 158 -136 258q-78 57 -278 133q-121 -154 -121 -302zM61 1040q-1 174 133 278t301 103
q167 1 293 -81t125 -228q0 -90 -49 -156t-137 -129q109 -63 172.5 -163.5t63.5 -223.5q0 -203 -148.5 -331.5t-340.5 -128.5t-327 108q-136 108 -137 283q0 123 64 200t188 142q-106 72 -154 141t-47 186z" />
    <glyph glyph-name="nine" unicode="9" 
d="M475 565q106 0 146 117q27 78 26 223v60q0 164 -24 247q-43 150 -166 150q-104 0 -140 -156q-18 -82 -18 -244t20 -241q41 -156 156 -156zM375 41q264 0 264 491v43q-59 -45 -113.5 -66.5t-126.5 -21.5q-193 0 -301 124t-108 327t125 345t331 142q266 0 396 -223
q104 -180 104 -474t-131 -501q-154 -244 -438 -243q-125 0 -223 64t-99 183q0 49 35 86t85 37t78 -37.5t28 -89.5l-21 -110q0 -76 115 -76z" />
    <glyph glyph-name="colon" unicode=":" horiz-adv-x="552" 
d="M158 848q0 70 47 115t114.5 45t116.5 -45t49 -113t-46.5 -117t-116.5 -49t-117 47t-47 117zM314 305q71 0 120 -45t49 -114t-47.5 -117.5t-115.5 -48.5t-117 47t-49 115t44.5 115.5t115.5 47.5z" />
    <glyph glyph-name="semicolon" unicode=";" horiz-adv-x="552" 
d="M308 1010q69 0 118 -48t49 -118t-50 -116t-121 -46t-115 46t-44 119t47 118t116 45zM129 136q0 64 42 114.5t108 50.5q104 0 158.5 -67.5t54.5 -184.5t-43 -193.5t-250 -222.5l-33 56q106 39 156 118t67 201q-137 -58 -198.5 3t-61.5 125z" />
    <glyph glyph-name="less" unicode="&#x3c;" horiz-adv-x="1085" 
d="M1067 924l-881 -400l881 -399v-141l-1053 477v127l1053 477v-141z" />
    <glyph glyph-name="equal" unicode="=" horiz-adv-x="1267" 
d="M-98 862h1366v-162h-1366v162zM-98 492h1366v-160h-1366v160z" />
    <glyph glyph-name="greater" unicode="&#x3e;" horiz-adv-x="1085" 
d="M27 125l880 399l-880 400v141l1052 -477v-127l-1052 -477v141z" />
    <glyph glyph-name="question" unicode="?" horiz-adv-x="913" 
d="M402 311q68 0 116.5 -49t48.5 -114.5t-51.5 -114.5t-115.5 -49t-112 48t-48 114t47 115.5t115 49.5zM226 1071q-54 0 -91 37t-37 94q0 127 123 197q100 57 240 57q412 0 411 -403q0 -170 -108 -262q-104 -61 -213 -127t-119 -175l-2 -65h-70l-2 49q0 139 119 266t119 336
q0 143 -25 211q-41 111 -159 111q-35 0 -62.5 -21.5t-27.5 -56.5l20 -127q0 -51 -31 -86t-85 -35z" />
    <glyph glyph-name="at" unicode="@" horiz-adv-x="2103" 
d="M1327 468q0 -52 45 -52q123 0 209 156t86 292q0 242 -167.5 388.5t-425.5 146.5t-436.5 -192.5t-178.5 -468.5t185 -463t460 -187q145 0 277 62.5t225 175.5h141q-102 -170 -276.5 -268.5t-372.5 -98.5q-332 0 -561.5 227.5t-229.5 555.5t229.5 557t533.5 229t517 -182
t213 -465q0 -207 -148 -403t-347 -195q-59 0 -95 35.5t-36 93.5l-7 -2q-124 -129 -251 -129t-214.5 99t-87.5 234q0 217 134 394t346 178q166 0 239 -162l41 129l142 -2q-165 -567 -177 -610t-12 -73zM1096 1036q-132 0 -222 -133t-90 -272q0 -84 45 -141.5t127 -57.5
q126 0 218 140t92 274q0 72 -49 131t-121 59z" />
    <glyph glyph-name="A" unicode="A" horiz-adv-x="1386" 
d="M666 539l-162 487l-170 -487h332zM-70 55h168l500 1403h68q258 -705 516 -1409h157v-49h-716v51h206q-35 109 -71 225t-80 207h-365l-149 -430h205v-49h-439v51z" />
    <glyph glyph-name="B" unicode="B" horiz-adv-x="1347" 
d="M598 821q145 0 199 80q43 63 43 216t-57.5 208t-213.5 55l-114 -2v-557h143zM643 57q147 0 219 123q58 98 58 261t-80 243t-250 80h-135v-707h188zM-66 53h209v1333h-200v52l256 -2l518 2q205 0 307 -56q137 -74 137 -264q0 -139 -119 -223q-84 -59 -245 -100
q188 0 323 -110t135 -298.5t-141 -288.5t-340 -100h-840v55z" />
    <glyph glyph-name="C" unicode="C" horiz-adv-x="1425" 
d="M766 1470q213 0 541 -120v-408h-68l-16 92q-31 154 -161 259.5t-290 105.5q-90 0 -178 -47q-160 -84 -213 -281q-33 -121 -33 -389t66 -420q98 -227 350 -227q147 0 285.5 110.5t173.5 253.5l20 103h66v-404q-311 -125 -570 -125q-313 0 -524 205.5t-211 531.5t209 543
t553 217z" />
    <glyph glyph-name="D" unicode="D" horiz-adv-x="1626" 
d="M717 61q248 0 360 226q84 168 84 443t-78 435q-106 221 -350 221h-291v-1325h275zM-80 55h203v1340h-195v47h774q119 0 179.5 -3t134.5 -20q244 -53 370.5 -233t126.5 -436q0 -332 -176 -540t-503 -208h-914v53z" />
    <glyph glyph-name="E" unicode="E" horiz-adv-x="1347" 
d="M-72 55h207v1336h-194v47h1257v-453h-53q-35 242 -205 328q-125 63 -397 63h-86v-618l32 -2q313 0 314 301h59v-658h-65l-4 29q1 152 -87 210t-249 58v-639h209q229 0 361 102.5t169 325.5h59v-489h-1327v59z" />
    <glyph glyph-name="F" unicode="F" horiz-adv-x="1267" 
d="M-66 55h205v1334h-198v49h1288v-457h-58q0 162 -126.5 278.5t-294.5 116.5h-283v-639h39q186 0 249.5 59.5t96.5 245.5h53v-661h-55q0 162 -83 227t-253 66h-53v-623h205v-51h-732v55z" />
    <glyph glyph-name="G" unicode="G" horiz-adv-x="1585" 
d="M338 719q0 -385 119 -545q102 -137 301 -137q131 0 221 47q115 59 115 182v398h-181v57h672v-59h-180v-512q-332 -170 -663 -170t-537.5 204.5t-206.5 544.5t236 542t595 202q205 0 514 -101v-373l-57 -2q-99 408 -461 408q-283 0 -399 -215q-88 -162 -88 -471z" />
    <glyph glyph-name="H" unicode="H" horiz-adv-x="1585" 
d="M-90 55h199v1331h-191v50h717v-54h-195v-616h572v610h-197v58h719v-60h-201v-1327h195v-55h-719v57h199v658h-574v-654h195v-55h-719v57z" />
    <glyph glyph-name="I" unicode="I" horiz-adv-x="749" 
d="M-23 51h209v1335h-196v50h721v-56h-207v-1331h198v-51h-725v53z" />
    <glyph glyph-name="J" unicode="J" horiz-adv-x="991" 
d="M436 1386h-205v52h715v-54h-192v-968q0 -238 -99.5 -337t-337.5 -99q-147 0 -243 47q-127 61 -127 194q0 72 34.5 120t100.5 48t104.5 -31.5t38.5 -91.5t-43 -102.5t-43 -66.5t39 -43t74 -19q100 0 142 59t42 168v1124z" />
    <glyph glyph-name="K" unicode="K" horiz-adv-x="1507" 
d="M459 735v-684h194v-51h-714v53h202v1333h-198v50h716v-47h-198v-590h110l461 590h-209v49h498v-47h-205l-334 -422q68 -115 168 -278t182 -299t211 -345h146v-49h-705v51h183q-149 278 -406 686h-102z" />
    <glyph glyph-name="L" unicode="L" horiz-adv-x="1347" 
d="M-66 55h205v1336h-198v47h723v-52h-203v-1329h256q188 0 343 129t154 316h62v-502h-1342v55z" />
    <glyph glyph-name="M" unicode="M" horiz-adv-x="1863" 
d="M-104 1438h561q159 -419 248 -642q90 -223 159 -395l428 1037h531v-52h-201v-1337h199v-49h-744v51h221l-2 1247q-27 -94 -101 -261t-447 -1068h-60l-516 1319v-1231h219v-57h-493v55h206v1336h-208v47z" />
    <glyph glyph-name="N" unicode="N" horiz-adv-x="1544" 
d="M-90 51h205v1335h-193v52h580l739 -944v888h-219v52h481v-56h-192v-1403l-56 -16q-430 544 -686 876q-257 332 -381 488v-1274h218v-49h-496v51z" />
    <glyph glyph-name="O" unicode="O" horiz-adv-x="1626" 
d="M766 33q170 0 264 125q125 166 125 592q0 667 -389 665q-328 0 -393 -409q-20 -121 -21 -318q0 -655 414 -655zM757 1479q333 0 547 -208t214 -556t-222 -547t-587 -199q-327 -1 -521 223t-194 555t215 531.5t548 200.5z" />
    <glyph glyph-name="P" unicode="P" horiz-adv-x="1347" 
d="M934 1042q0 336 -219 334h-254v-663h100q199 0 270 47q103 67 103 282zM-63 55h200v1331h-196v52l907 2q200 0 318 -98t118 -288t-119 -284q-139 -111 -487 -111l-215 3v-613h225v-49h-751v55z" />
    <glyph glyph-name="Q" unicode="Q" horiz-adv-x="1626" 
d="M750 35q256 0 352 250q61 162 61 499q0 633 -411 633q-306 0 -373 -411q-20 -123 -21 -306q0 -665 392 -665zM1255 -367v-59h-245q-135 0 -205 66q-39 36 -101 154t-90 146.5t-125 66.5t-159 77q-328 202 -328 651q0 346 215 544t554 198t545 -214t206 -547t-219.5 -540
t-565.5 -207q36 -13 85 -29q50 -16 66 -22t44 -31q47 -37 86 -125q57 -129 237 -129z" />
    <glyph glyph-name="R" unicode="R" horiz-adv-x="1425" 
d="M592 780q143 0 196 90q41 68 41 231t-64.5 221t-240.5 58h-69v-600h137zM1149 1139q1 -135 -61 -218t-300 -165q313 -35 392 -221q14 -35 37 -324q12 -166 169 -166v-47h-223q-193 0 -245 143q-16 45 -33 265.5t-103 277.5q-63 35 -139 35l-149 2h-37v-666h221v-55h-748
v55h209v1334h-198v49l755 2q453 0 453 -301z" />
    <glyph glyph-name="S" unicode="S" horiz-adv-x="1110" 
d="M537 51q119 0 211 62t92 176q0 150 -203 246q-190 84 -381 170q-205 125 -205 333q-1 208 141 320t351 112q109 0 199 -25t190 -59l20 -348h-65q-33 150 -135 252t-250 103q-96 0 -167 -53.5t-71 -145.5q0 -139 194 -228t382 -173q202 -131 202 -355t-158 -342
q-158 -119 -385 -119q-228 0 -454 99l-12 418h63q37 -193 140 -308q119 -135 301 -135z" />
    <glyph glyph-name="T" unicode="T" horiz-adv-x="1425" 
d="M-49 1438h1415v-490h-57q0 104 -68 211q-69 117 -139 164t-195 47h-28l-60 -2v-1321h195v-49h-723v51h203l-2 1323l-58 2q-203 0 -304 -104.5t-128 -311.5h-51v480z" />
    <glyph glyph-name="U" unicode="U" horiz-adv-x="1507" 
d="M1278 434q0 -469 -520 -469q-375 0 -510 115q-119 100 -119 303v1006h-192v49h733v-52h-226v-1058q0 -142 106 -216t257 -73q211 0 306 95t95 306v946h-221v48h488v-50h-197v-950z" />
    <glyph glyph-name="V" unicode="V" horiz-adv-x="1310" 
d="M-102 1438h733v-54h-211q70 -245 178 -559q109 -315 133 -395l340 956h-205v50h439v-54h-158q-176 -448 -324 -855q-147 -408 -196 -564l-62 2q-57 160 -176 502t-181 518t-153 399h-157v54z" />
    <glyph glyph-name="W" unicode="W" horiz-adv-x="2103" 
d="M-162 1438h692v-54h-198l297 -933l299 931h-195v52h744v-58h-193q103 -296 180 -538q76 -242 127 -398q51 208 135 454t160 480h-203v56h416v-56h-155q-43 -125 -206 -637t-259 -782h-54l-456 1370l-445 -1366h-61q-59 193 -148 448t-178 531q-88 277 -153 448h-146v52z
" />
    <glyph glyph-name="X" unicode="X" horiz-adv-x="1386" 
d="M-109 1438h736v-54h-209l258 -452l303 450h-205v52h471v-56h-186q-80 -94 -172 -236t-176 -270l485 -829h147v-47h-731v55h205q-49 102 -87 172t-216 367l-358 -535h213v-55h-461v55h170q102 143 209.5 295t189.5 295q-109 199 -151 275t-121 204q-80 128 -164 265h-150
v49z" />
    <glyph glyph-name="Y" unicode="Y" horiz-adv-x="1347" 
d="M-104 1438h763v-52h-221q136 -239 330 -563l334 561h-213v52h450v-54h-161l-396 -655v-676h211v-51h-753v51h217v674l-396 664h-165v49z" />
    <glyph glyph-name="Z" unicode="Z" horiz-adv-x="1267" 
d="M586 1374q-196 0 -350 -106t-154 -289h-51v459h1196q-133 -188 -488 -722t-440 -657h334q158 0 304 90t185 314l4 31h56v-494h-1282l589 887q164 243 328 487h-231z" />
    <glyph glyph-name="bracketleft" unicode="[" horiz-adv-x="749" 
d="M205 1438h543v-72h-254v-1792h243v-76h-532v1940z" />
    <glyph glyph-name="backslash" unicode="\" horiz-adv-x="575" 
d="M-35 1528h137l510 -1567h-139z" />
    <glyph glyph-name="bracketright" unicode="]" horiz-adv-x="749" 
d="M-37 -430h260v1792h-248v74h531v-1940h-543v74z" />
    <glyph glyph-name="asciicircum" unicode="^" horiz-adv-x="0" 
d="M94 1546q-66 61 -162 168q-42 -30 -74 -62t-100 -108l-112 -6l299 287h102l299 -279h-252z" />
    <glyph glyph-name="underscore" unicode="_" horiz-adv-x="1153" 
d="M0 -258v102h1153v-102h-1153z" />
    <glyph glyph-name="grave" unicode="`" horiz-adv-x="0" 
d="M-246 1411q0 57 70 57l80 2q53 0 78.5 -16t44.5 -65l110 -287h-76q-103 88 -205 182t-102 127z" />
    <glyph glyph-name="a" unicode="a" horiz-adv-x="1110" 
d="M446 72q201 0 201 383l-2 153q-201 -59 -250 -94q-102 -72 -102 -238q0 -88 36 -146t117 -58zM312 -20q-128 0 -218 79.5t-90 227.5q0 213 210 268.5t429 114.5l-2 69q0 111 -33 165t-137 54q-147 0 -165.5 -135t-108.5 -135q-68 0 -93.5 23.5t-25.5 89.5q0 115 160 172
q119 43 258 43q225 0 317 -64q113 -78 113 -295v-424q0 -90 25.5 -134t99.5 -44q18 2 26 2v-57h-33l-204 -10q-88 0 -126 29.5t-71 115.5q-66 -88 -134.5 -121.5t-196.5 -33.5z" />
    <glyph glyph-name="b" unicode="b" horiz-adv-x="1189" 
d="M548 926q-104 0 -161 -115q-43 -90 -43 -199v-159q0 -160 27 -246q45 -145 168 -146q143 0 194 127q33 82 33 254l2 148q0 204 -58 270t-162 66zM164 1432q94 0 186 12v-582q70 80 132 114t159 34q195 0 324 -150t129 -355q0 -206 -133 -366t-343 -159q-178 0 -272 151
v-133h-289v1376h-151v60l231 -2h27z" />
    <glyph glyph-name="c" unicode="c" horiz-adv-x="991" 
d="M528 -29q-240 0 -371.5 151.5t-131.5 385.5q-1 234 161 370t394 136q137 0 241 -51q135 -68 135 -189q0 -66 -36.5 -100.5t-100.5 -34.5q-125 0 -145.5 157.5t-126.5 157.5q-133 0 -178 -151q-27 -89 -27 -283t33 -293q59 -174 229 -174q98 0 168 47t148 219l63 -16
q-88 -182 -179 -257t-276 -75z" />
    <glyph glyph-name="d" unicode="d" horiz-adv-x="1228" 
d="M520 61q150 0 201 148q31 88 31 274v70q0 166 -35 248q-53 123 -187 123t-180 -148q-31 -96 -31 -276v-80q0 -154 29 -232q47 -127 172 -127zM4 484q0 218 122 369t345 151q96 0 151.5 -27t127.5 -103v504h-154l2 56h92l350 8v-1389h144v-57l-174 2l-265 -8v133
q-123 -147 -317 -147t-308 144q-116 146 -116 364z" />
    <glyph glyph-name="e" unicode="e" 
d="M510 958q-94 0 -145 -104q-41 -82 -41 -188v-58h376l2 51q0 137 -28 201q-45 98 -164 98zM596 57q125 1 203 63t137 181l59 -22q-78 -150 -189.5 -226t-277.5 -76q-229 0 -371.5 146.5t-142.5 378.5t141.5 372t368.5 140t357.5 -124t130.5 -343h-684l-2 -64
q0 -244 72 -335t198 -91z" />
    <glyph glyph-name="f" unicode="f" horiz-adv-x="673" 
d="M-25 55h154v877h-147v59h149v86q0 87 10 142q20 117 140 184q100 57 235 57t221 -43q117 -59 117 -183t-129 -124q-76 0 -98 39t-23 113v41q0 37 -23 66.5t-75 29.5t-71 -39t-19 -111v-258h174v-61h-172v-877h166v-53h-609v55z" />
    <glyph glyph-name="g" unicode="g" horiz-adv-x="1110" 
d="M510 442q88 0 117 78q20 55 20 156v55q0 100 -18 152q-31 84 -116 84t-116 -86q-18 -53 -18 -171t14 -167q29 -101 117 -101zM186 -178q0 -209 344 -209q121 0 213 41q125 55 125 167t-135 150q-72 20 -231 21q-316 0 -316 -170zM35 225q0 88 44 165t128 106
q-41 49 -53 69q-33 55 -33 140q0 151 122 231t277 80q88 0 152 -22t151 -74q49 50 81 68t92 18t100.5 -38t40.5 -90t-23.5 -79t-64.5 -27q-84 0 -99 94q-6 47 -22 47q-25 0 -34 -5t-46 -27q29 -47 41 -81t12 -81q0 -162 -113 -249t-276 -87q-88 0 -160 27q-4 2 -94 41
q-37 -4 -70.5 -36t-33.5 -69q0 -70 170 -92q78 -10 223 -10l178 -6q133 0 219 -76t86 -209q0 -211 -174 -311q-139 -80 -338 -80t-325 43q-186 63 -187 196q0 93 62 141t168 76q-88 20 -144 70t-57 137z" />
    <glyph glyph-name="h" unicode="h" horiz-adv-x="1267" 
d="M723 1014q156 0 250 -77t94 -228v-658h145v-51h-589v51h161v674q0 98 -42 149.5t-138 51.5q-47 0 -110 -44q-62 -44 -84 -130t-23 -197v-500h156v-55h-594v53h151v1333h-147l-2 50l436 10v-604q117 172 336 172z" />
    <glyph glyph-name="i" unicode="i" horiz-adv-x="636" 
d="M141 1284q0 64 39 113t94 49l45 2q57 0 99.5 -48t42.5 -112t-43 -108.5t-113 -44.5t-117 42.5t-47 106.5zM453 49h145v-49h-600v49h160v887h-156l2 55l203 -6q144 0 246 19v-955z" />
    <glyph glyph-name="j" unicode="j" horiz-adv-x="591" 
d="M152 1292q0 64 50 108t114 44t110.5 -44t46.5 -114t-45 -113t-116 -43t-115.5 49t-44.5 113zM459 -18q-1 -204 -139 -308t-349 -104l-14 51q129 0 176 107q33 72 33 219v993h-156l-2 53l178 -2l273 13v-1022z" />
    <glyph glyph-name="k" unicode="k" horiz-adv-x="1189" 
d="M1204 47v-51h-577v53h141l-285 424h-96v-422h145v-53h-593v53h157v1333h-151l-2 54l446 8v-914h121l244 402h-172v57h419v-59h-172l-145 -244q265 -411 446 -641h74z" />
    <glyph glyph-name="l" unicode="l" horiz-adv-x="636" 
d="M250 1440q106 0 178 10v-1401h145v-47h-591v51h159v1338h-153v47h88l84 2h90z" />
    <glyph glyph-name="m" unicode="m" horiz-adv-x="1902" 
d="M580 905q-236 0 -236 -395v-459h162v-51h-606v55h153v879h-145v61l213 -4h29q102 0 204 13v-183q70 104 162 145.5t208 41.5t198 -55.5t102 -151.5q74 113 155 156.5t233 43.5t225 -83.5t73 -255.5v-617h152v-53h-600v55h155v684q0 72 -39 123t-110 51q-133 0 -193 -117
q-45 -88 -45 -237v-502h152v-53h-600v53h155v662q0 194 -157 194z" />
    <glyph glyph-name="n" unicode="n" horiz-adv-x="1267" 
d="M745 1010q324 0 324 -308v-653h143v-53h-585v53h149l2 705q0 72 -36.5 116.5t-108.5 44.5q-125 0 -183 -102t-57 -240v-524h146v-49h-594v51h155v881h-149v59l188 -2h33q115 0 229 12l-4 -182q61 113 137 152t211 39z" />
    <glyph glyph-name="o" unicode="o" horiz-adv-x="1146" 
d="M542.5 27q139.5 0 188.5 157q29 92 29 273v67q0 193 -31 287q-51 156 -188 156t-189 -158q-31 -96 -30 -274v-78q0 -190 30 -281q51 -149 190.5 -149zM539 1016q227 0 378.5 -143.5t151.5 -374.5t-150.5 -376t-384.5 -145t-376 146.5t-142 374.5t148 373t375 145z" />
    <glyph glyph-name="p" unicode="p" horiz-adv-x="1189" 
d="M563 57q137 0 189 119q33 78 32 238v166q0 164 -30 237q-49 117 -191 117q-115 0 -167 -104.5t-52 -320.5t31 -304q51 -148 188 -148zM170 989q106 0 178 10v-137q72 82 135.5 117t163.5 35q209 0 330 -154t121 -368q0 -212 -129 -362t-334 -148q-98 0 -162.5 27.5
t-124.5 101.5v-496h148v-57h-594v53h153v1325h-147l2 53h260z" />
    <glyph glyph-name="q" unicode="q" horiz-adv-x="1146" 
d="M522 45q160 0 215 143q35 90 35 281v72q0 180 -35 264q-53 131 -205 131q-111 0 -163 -100q-43 -80 -43 -201l-4 -176q0 -414 200 -414zM1047 991v-1380h149v-55h-588v53h156v500q-121 -137 -287 -138q-217 0 -344 155t-127 374t131 365.5t344 146.5q86 0 149.5 -29
t133.5 -94l16 102h267z" />
    <glyph glyph-name="r" unicode="r" horiz-adv-x="835" 
d="M881 809q0 -143 -127 -143q-57 0 -88 38t-31 144q0 33 -6 49t-33 16q-78 0 -120 -152.5t-42 -416.5v-297h152v-47h-604v47h153v887h-151l-2 55l202 -2h84q100 0 168 10v-184q51 98 111 143t150 45t137 -57t47 -135z" />
    <glyph glyph-name="s" unicode="s" horiz-adv-x="870" 
d="M387 -23q-126 0 -334 68v328l53 2q33 -158 95 -236q82 -102 225 -102q74 0 133 42t59 111q0 86 -143 144q-244 98 -266 112q-145 92 -145 251t104 238q106 79 249 79t310 -66v-262l-55 6q-22 119 -88 190t-181 70q-57 0 -105 -32.5t-48 -88.5q0 -80 143 -135
q236 -90 271 -112q145 -92 145 -260t-122 -258t-300 -89z" />
    <glyph glyph-name="t" unicode="t" horiz-adv-x="673" 
d="M430 229q0 -61 25 -112t87 -51t130 69l33 -53q-137 -98 -285 -98t-216.5 61t-68.5 195v694h-149v57h157v275h291v-275h203v-59h-207v-703z" />
    <glyph glyph-name="u" unicode="u" horiz-adv-x="1267" 
d="M406 -23q-170 -1 -238 87t-68 264v612h-151v51l440 10l2 -694q0 -227 164 -227q147 0 201 139q35 90 35 264v453h-154v55l145 -2h121q100 0 168 10v-954h152v-47l-197 2l-231 -8v158q-68 -86 -170.5 -129.5t-218.5 -43.5z" />
    <glyph glyph-name="v" unicode="v" horiz-adv-x="1071" 
d="M-82 995h590v-55l-139 2q122 -303 249 -602l263 596h-140v55h334v-57h-123q-71 -132 -167 -363q-96 -232 -265 -596l-55 -2q-30 83 -173 394t-247 575h-127v53z" />
    <glyph glyph-name="w" unicode="w" horiz-adv-x="1665" 
d="M-131 995h610v-55h-160q41 -137 201 -575q106 305 223 569h-163v57h616v-57h-158l197 -580l219 580h-156v55h367v-57h-141q-63 -162 -144 -373t-119 -307t-108 -289l-59 -2q-39 96 -143 388t-183 497l-342 -879h-51l-361 975h-145v53z" />
    <glyph glyph-name="x" unicode="x" horiz-adv-x="1146" 
d="M-80 991h631v-59h-143q82 -135 163 -268l217 268h-145v57h363v-57h-136l-264 -326q180 -281 361 -559h137v-49h-635v51l154 2q-63 119 -203 324q-148 -180 -254 -324h158v-51h-394v51l150 2q37 41 155 188t156 193q-61 84 -184 276t-144 222h-143v59z" />
    <glyph glyph-name="y" unicode="y" horiz-adv-x="1071" 
d="M-82 993h619v-53h-154q90 -234 248 -608q125 303 231 604h-153v55h364v-57h-141q-78 -216 -256 -668t-236 -536q-115 -168 -268 -168q-94 0 -158.5 58t-64.5 138t38.5 123t104.5 43t88 -49q16 -35 17 -108v-60q1 -55 65 -55t133 119q31 51 84 184q-102 249 -210 513
t-212 474h-139v51z" />
    <glyph glyph-name="z" unicode="z" horiz-adv-x="948" 
d="M414 57q166 0 278 83t111 243h53l-6 -385h-887l559 934l-114 2q-147 0 -212 -66t-96 -219h-59l8 346h825l-557 -938h97z" />
    <glyph glyph-name="braceleft" unicode="{" horiz-adv-x="692" 
d="M514 1362q-96 0 -96 -170l2 -236l-2 -118q0 -86 -52 -177t-130 -112q117 -39 157 -174q27 -86 27 -244l-4 -178q0 -127 22.5 -176t75.5 -49h92v-134h-139q-100 0 -156.5 81t-56.5 186l2 354q0 94 -37 172q-47 98 -131 98v125q113 0 148 140q16 66 16 229v92q0 190 24 272
q45 154 191 154h139v-135h-92z" />
    <glyph glyph-name="bar" unicode="|" horiz-adv-x="538" 
d="M195 1528h151v-1567h-151v1567z" />
    <glyph glyph-name="braceright" unicode="}" horiz-adv-x="692" 
d="M606 485q-86 0 -131 -96q-37 -78 -37 -174v-352q0 -102 -57 -185t-156 -84h-137v134h90q66 0 86 86q10 41 10 139l-2 180q0 156 27 242q43 135 158 170q-80 25 -131.5 116t-51.5 181v350q0 168 -96 170h-90v135h139q100 0 154 -78q61 -92 61 -317l-2 -123q0 -172 15 -229
q35 -139 151 -140v-125z" />
    <glyph glyph-name="asciitilde" unicode="~" horiz-adv-x="0" 
d="M-147 1825q55 0 169 -41t158 -41q45 0 73 18t66 66l46 -27q-39 -96 -80 -149q-63 -82 -144 -82q-55 1 -169 41t-158 40t-74 -20q-29 -22 -59 -69l-50 26q39 102 78 154q64 84 144 84z" />
    <glyph glyph-name="c128" horiz-adv-x="983" 
d="M989 758v-107h-383l-153 -276h536v-107h-598l-176 -317l-96 55l145 262h-309v107h371l151 276h-522v107h582l180 323l96 -55l-149 -268h325z" />
    <glyph glyph-name="c129" horiz-adv-x="1277" 
d="M967 342q78 0 134 48t56 123t-51.5 129t-117.5 54t-128 -33t-192 -141q94 -90 135 -119q86 -61 164 -61zM230 696q-73 0 -126 -55t-53 -127t56.5 -122t143.5 -50t191 86q12 10 99 94q-96 82 -144 113q-94 61 -167 61zM988 795q106 0 189 -79t83 -189t-78 -195.5
t-178 -85.5t-160 28t-238 179q-162 -135 -174 -144q-98 -63 -212 -63t-190.5 83t-76.5 195t82.5 191.5t196.5 79.5t247 -103q43 -33 125 -108q121 109 170 141q108 70 214 70z" />
    <glyph glyph-name="c141" horiz-adv-x="1097" 
d="M59 98h813l-380 920zM1116 0h-1184l629 1356z" />
    <glyph glyph-name="c142" horiz-adv-x="886" 
d="M410 1360l-322 -619l322 -635l323 635zM350 0l-381 741l381 725h119l383 -725l-383 -741h-119z" />
    <glyph glyph-name="c143" horiz-adv-x="1271" 
 />
    <glyph glyph-name="nonbreakingspace" unicode="&#xa0;" horiz-adv-x="552" 
 />
    <glyph glyph-name="exclamdown" unicode="&#xa1;" horiz-adv-x="552" 
d="M219 -20q-68 0 -103.5 48t-35.5 119l6 78l107 793h75l15 -176q19 -194 84 -627l4 -43q0 -192 -152 -192zM234 1456q66 0 111.5 -50t45.5 -115.5t-45 -113t-114 -47.5t-116.5 49t-47.5 117t50 114t116 46z" />
    <glyph glyph-name="cent" unicode="&#xa2;" horiz-adv-x="991" 
d="M492 1257h81l2 -243q137 0 244 -51q139 -68 139 -189q0 -66 -37.5 -101.5t-101.5 -35.5q-125 0 -146.5 153.5t-99.5 163.5v-899h48q115 0 190 80q49 53 109 184l61 -16q-82 -172 -152 -237q-96 -92 -256 -93v-219h-81v219q-220 0 -344 157t-124 373t132.5 348t335.5 157
v249zM342 530q0 -166 16 -245q34 -154 134 -205v868q-98 -31 -132 -174q-18 -78 -18 -244z" />
    <glyph glyph-name="sterling" unicode="&#xa3;" horiz-adv-x="1189" 
d="M113 242q70 0 215 -64q37 112 37 139q0 86 -31 197q-43 129 -60 191h-249v75l227 -2l-8 166q0 178 144 330.5t321 152.5q109 0 186 -38q100 -51 100 -150q0 -49 -32.5 -80t-81.5 -31q-74 0 -123 106.5t-122 106.5t-114 -56t-41 -125q1 -70 9 -116t63 -264h348v-78h-330
q11 -80 11 -114q0 -104 -51.5 -220t-127.5 -202q88 -10 250 -10t263 78t102 241h74v-59q0 -451 -398 -451q-180 0 -319 119l-21 16q-150 -131 -231 -131q-59 0 -108.5 43.5t-49.5 101.5t39 93t109 35z" />
    <glyph glyph-name="section" unicode="&#xa7;" horiz-adv-x="948" 
d="M778 -45q0 -67 -35 -168q47 66 65.5 128t18.5 146q0 215 -161 385q-154 137 -306 275q-164 172 -163 383q0 59 13 101t34 95q-68 -72 -98.5 -146.5t-30.5 -174.5q0 -197 172 -369q160 -141 319 -280q172 -172 172 -375zM428 -367q117 0 186.5 70.5t69.5 188.5t-174 264
q-274 231 -322 284q-176 203 -176 457t134.5 409.5t383.5 155.5q117 0 232 -74t115 -186q0 -59 -30 -98t-81 -39t-93 28.5t-42 71.5l12 109q0 51 -40 81.5t-95 30.5q-92 0 -156.5 -62t-64.5 -155q0 -121 164 -264q266 -231 307 -280q166 -199 166 -473q0 -596 -533 -596
q-151 0 -267 76t-116 221q0 57 38 102t91 45t88 -35t35 -86l-14 -131q0 -61 55 -88t127 -27z" />
    <glyph glyph-name="dieresis" unicode="&#xa8;" horiz-adv-x="0" 
d="M222 1427q62 0 103.5 -40.5t41.5 -102.5t-48.5 -100.5t-105.5 -38.5t-96 43t-39 98t41 98t103 43zM-373 1288q0 60 42.5 99.5t102.5 39.5t100 -42t40 -100t-41 -99t-103 -41t-101.5 41.5t-39.5 101.5z" />
    <glyph glyph-name="copyright" unicode="&#xa9;" horiz-adv-x="1415" 
d="M694 971q-122 -1 -194 -105t-72 -235t66.5 -217t197.5 -86q82 0 135.5 22.5t124.5 81.5l21 -37q-70 -74 -135.5 -109.5t-157.5 -35.5q-172 0 -274.5 104.5t-102.5 271.5t102.5 281.5t262.5 114.5q35 0 108 -18q74 -18 108 -17q34 0 40 31h39l8 -254l-41 2
q-16 88 -81 146.5t-155 58.5zM671 47q247 0 425 176t178 426t-177 425t-425 175t-424 -176t-176 -425t176 -425t423 -176zM671 1329q282 0 481.5 -197.5t199.5 -479.5t-199 -482.5t-481.5 -200.5t-481 199.5t-198.5 481.5t198.5 480.5t480.5 198.5z" />
    <glyph glyph-name="guillemotleft" unicode="&#xab;" horiz-adv-x="794" 
d="M315 578l375 307l41 -37l-172 -305l164 -310l-45 -32q-77 77 -207 182q-131 105 -156 119v76zM-31 578l373 311l47 -33q-41 -54 -89 -146t-91 -171l166 -306l-49 -30l-250 217q-34 28 -60 50t-47 32v76z" />
    <glyph glyph-name="logicalnot" unicode="&#xac;" horiz-adv-x="1277" 
d="M-68 567h1309v-567h-106v459h-1203v108z" />
    <glyph glyph-name="registered" unicode="&#xae;" horiz-adv-x="1415" 
d="M821 860q0 86 -63 121q-45 25 -154 25q-16 0 -29.5 -11.5t-13.5 -25.5l2 -277q143 0 200.5 41t57.5 127zM381 1010h-31v34h346q106 0 182 -40t76 -132t-58 -150t-140 -58l235 -304q22 -26 72 -26v-37h-186l-261 350h-53v-258q0 -55 92 -55v-37h-315l2 37q96 0 96 49
l-2 567q0 37 -13 48.5t-42 11.5zM665 1239q-249 0 -423 -176t-174 -425t174 -423t425 -174t426 175t175 424t-177 424t-426 175zM669.5 -39q-282.5 0 -480 199.5t-197.5 479.5t198.5 478.5t479 198.5t480.5 -197.5t200 -479.5t-199 -480.5t-481.5 -198.5z" />
    <glyph glyph-name="degree" unicode="&#xb0;" horiz-adv-x="552" 
d="M221 1268q-90 0 -151.5 -63.5t-61.5 -153.5t63.5 -151.5t152.5 -61.5t151.5 62.5t62.5 151.5t-63.5 152.5t-153.5 63.5zM223 758q-121 0 -209 86t-88 208t86 208t209 86t209 -86t86 -208t-86 -208t-207 -86z" />
    <glyph glyph-name="plusminus" unicode="&#xb1;" horiz-adv-x="983" 
d="M-53 0v109h1040v-109h-1040zM412 805v465h108v-465h467v-111h-467v-467h-108v467h-465v111h465z" />
    <glyph glyph-name="acute" unicode="&#xb4;" horiz-adv-x="0" 
d="M248 1421q0 -37 -110 -139t-197 -182h-80q43 119 76 198q63 154 104 162l59 6l88 2q16 0 38 -15t22 -32z" />
    <glyph glyph-name="mu" unicode="&#xb5;" 
d="M803 -33q-66 0 -110 36t-75 159q-53 -80 -137 -137q-163 -111 -299 -15q-45 35 -69 51v-43q0 -55 31.5 -160.5t31.5 -157.5t-24 -95t-71 -43q-48 0 -71.5 44t-23.5 97t28 164t27 151v967h170v-653q0 -102 44 -165t142 -63q63 0 130 46.5t91 103.5v731h170v-756
q0 -57 26 -111.5t80 -54.5t75 46q18 61 30 92h39q-61 -234 -235 -234z" />
    <glyph glyph-name="paragraph" unicode="&#xb6;" horiz-adv-x="1382" 
d="M1116 1462v-110h-69v-1698h-121v1698h-297v-1698h-121v1005q-154 25 -240 129.5t-86 260.5q0 199 128 306t331 107h475z" />
    <glyph glyph-name="periodcentered" unicode="&#xb7;" horiz-adv-x="309" 
d="M171 735q58 0 97 -41t39 -97t-38 -98t-99 -42t-100 39t-39 100t41 100t99 39z" />
    <glyph glyph-name="periodcentered" unicode="&#x2219;" horiz-adv-x="309" 
d="M171 735q58 0 97 -41t39 -97t-38 -98t-99 -42t-100 39t-39 100t41 100t99 39z" />
    <glyph glyph-name="cedilla" unicode="&#xb8;" horiz-adv-x="0" 
d="M-59 -365q118 0 118 126t-106 126q-45 0 -67 -40t-36 -97h-47v152q229 97 320.5 18.5t91.5 -167.5t-70.5 -138t-136.5 -49t-113 17.5t-110 47.5l39 45q72 -41 117 -41z" />
    <glyph glyph-name="guillemotright" unicode="&#xbb;" horiz-adv-x="794" 
d="M512 535l-164 311l51 35q188 -176 359 -312v-69l-375 -312l-41 33zM164 535l-162 311l41 35l367 -314v-67l-369 -307l-45 32z" />
    <glyph glyph-name="questiondown" unicode="&#xbf;" horiz-adv-x="913" 
d="M460 1456q69 0 118 -45t49 -113t-46 -118t-114 -50t-118 45t-50 113t46 118t115 50zM272 383q0 -147 21 -215q39 -127 149 -127q45 0 75 23.5t30 57.5t-11.5 69.5t-11.5 68.5t30 69t86 36t94 -34t38 -91q0 -124 -116 -190t-246 -66q-197 0 -306.5 98t-109.5 284t112 283
q106 61 217 127t111 176l6 66h66l2 -51q0 -141 -118 -265t-118 -319z" />
    <glyph glyph-name="Agrave" unicode="&#xc0;" horiz-adv-x="1386" 
d="M668 537l-162 487l-170 -487h332zM-68 53h168l500 1403h68q258 -705 516 -1409h157v-49h-716v51h206q-35 109 -71 225t-80 207h-365l-149 -430h205v-49h-439v51zM375 1788q0 45 61 45h150q82 0 104 -86l53 -191h-73q-295 176 -295 232z" />
    <glyph glyph-name="Aacute" unicode="&#xc1;" horiz-adv-x="1386" 
d="M666 539l-162 487l-170 -487h332zM-70 55h168l500 1403h68q258 -705 516 -1409h157v-49h-716v51h206q-35 109 -71 225t-80 207h-365l-149 -430h205v-49h-439v51zM850 1778q0 -33 -51 -68q-63 -35 -82 -47l-172 -115h-74l70 199q26 80 110 80l144 -2q55 0 55 -47z" />
    <glyph glyph-name="Acircumflex" unicode="&#xc2;" horiz-adv-x="1386" 
d="M666 539l-162 487l-170 -487h332zM-70 55h168l500 1403h68q258 -705 516 -1409h157v-49h-716v51h206q-35 109 -71 225t-80 207h-365l-149 -430h205v-49h-439v51zM563 1825h103l301 -279l-256 -2q-76 72 -162 170q-78 -62 -172 -170l-111 -6z" />
    <glyph glyph-name="Atilde" unicode="&#xc3;" horiz-adv-x="1386" 
d="M666 539l-162 487l-170 -487h332zM-70 55h168l500 1403h68q258 -705 516 -1409h157v-49h-716v51h206q-35 109 -71 225t-80 207h-365l-149 -430h205v-49h-439v51zM434 1649q-78 0 -133 -88l-49 26q39 100 78 154q61 84 143 84q55 0 160 -41t157 -41t82.5 19.5t65.5 64.5
l41 -27q-16 -80 -81 -156t-130 -75q-65 0 -173 40t-161 40z" />
    <glyph glyph-name="Adieresis" unicode="&#xc4;" horiz-adv-x="1386" 
d="M743 1682q0 64 43 104.5t108 40.5t109 -46.5t44 -108.5t-45.5 -105t-109.5 -43t-106.5 47t-42.5 111zM219 1682q0 64 48.5 104.5t108.5 40.5t103 -45t43 -106.5t-43 -106.5t-109 -45t-108.5 47t-42.5 111zM666 539l-162 487l-170 -487h332zM-70 55h168l500 1403h68
q258 -705 516 -1409h157v-49h-716v51h206q-35 109 -71 225t-80 207h-365l-149 -430h205v-49h-439v51z" />
    <glyph glyph-name="Aring" unicode="&#xc5;" horiz-adv-x="1386" 
d="M535 1666q0 -38 28.5 -70.5t67.5 -32.5t75.5 25.5t36.5 70.5t-28.5 75.5t-73.5 30.5t-75.5 -30.5t-30.5 -68.5zM639 1845q76 0 127 -53t51 -127t-53 -125t-125 -51t-125 51t-53 127t51 127t127 51zM666 539l-162 487l-170 -487h332zM-70 55h168l500 1403h68
q258 -705 516 -1409h157v-49h-716v51h206q-35 109 -71 225t-80 207h-365l-149 -430h205v-49h-439v51z" />
    <glyph glyph-name="AE" unicode="&#xc6;" horiz-adv-x="1978" 
d="M784 588v801l-397 -801h397zM-119 53h164q80 131 222 426t448 903h-176v54h1290v-451l-57 -2q0 160 -123 274.5t-283 114.5h-276v-618h28q145 0 229.5 77.5t84.5 223.5h57v-658h-57q0 157 -88 225t-250 68l-7 -633h205q94 0 157.5 8.5t125.5 38.5q117 59 176 150.5
t82 228.5h55v-487h-1310v57h202v475l-418 2l-229 -477h201v-51h-453v51z" />
    <glyph glyph-name="Ccedilla" unicode="&#xc7;" horiz-adv-x="1425" 
d="M766 1468q213 0 541 -120v-408h-68l-16 92q-31 154 -161 259.5t-290 105.5q-90 0 -178 -47q-160 -84 -213 -281q-33 -121 -33 -389t66 -420q98 -227 350 -227q147 0 285.5 110.5t173.5 253.5l20 103h66v-404q-311 -125 -570 -125q-313 0 -524 205.5t-211 531.5t209 543
t553 217zM864 -248q0 -86 -72 -136t-140 -50t-102 13t-116 52l39 45q53 -38 113 -38t90.5 34.5t30.5 124.5t-107 90q-43 0 -71.5 -46t-28.5 -91h-49l-2 152q227 95 321 15.5t94 -165.5z" />
    <glyph glyph-name="Egrave" unicode="&#xc8;" horiz-adv-x="1347" 
d="M-72 55h207v1336h-194v47h1257v-453h-53q-35 242 -205 328q-125 63 -397 63h-86v-618l32 -2q313 0 314 301h59v-658h-65l-4 29q1 152 -87 210t-249 58v-639h209q229 0 361 102.5t169 325.5h59v-489h-1327v59zM358 1782q0 51 62 51h147q45 0 67.5 -20.5t37.5 -65.5
l57 -191h-74q-297 180 -297 226z" />
    <glyph glyph-name="Eacute" unicode="&#xc9;" horiz-adv-x="1347" 
d="M-72 55h207v1336h-194v47h1257v-453h-53q-35 242 -205 328q-125 63 -397 63h-86v-618l32 -2q313 0 314 301h59v-658h-65l-4 29q1 152 -87 210t-249 58v-639h209q229 0 361 102.5t169 325.5h59v-489h-1327v59zM831 1778q0 -33 -51 -68q-61 -35 -80 -47l-174 -115h-71
l67 199q29 80 111 80l145 -2q53 0 53 -47z" />
    <glyph glyph-name="Ecircumflex" unicode="&#xca;" horiz-adv-x="1347" 
d="M-72 55h207v1336h-194v47h1257v-453h-53q-35 242 -205 328q-125 63 -397 63h-86v-618l32 -2q313 0 314 301h59v-658h-65l-4 29q1 152 -87 210t-249 58v-639h209q229 0 361 102.5t169 325.5h59v-489h-1327v59zM549 1825h102l297 -279h-254l-159 168q-92 -80 -177 -170
l-110 -6z" />
    <glyph glyph-name="Edieresis" unicode="&#xcb;" horiz-adv-x="1347" 
d="M-72 53h207v1336h-194v47h1257v-453h-53q-35 242 -205 328q-125 63 -397 63h-86v-618l32 -2q313 0 314 301h59v-658h-65l-4 29q1 152 -87 210t-249 58v-639h209q229 0 361 102.5t169 325.5h59v-489h-1327v59zM860 1833q64 0 107 -49.5t43 -111.5t-45 -105t-108.5 -43
t-106.5 45t-43 113t44.5 109.5t108.5 41.5zM333 1833q62 0 106 -46t44 -109.5t-44.5 -107.5t-108.5 -44t-107 45t-43 110t45.5 108.5t107.5 43.5z" />
    <glyph glyph-name="Igrave" unicode="&#xcc;" horiz-adv-x="749" 
d="M-23 51h209v1335h-196v50h721v-56h-207v-1331h198v-51h-725v53zM295 1833q78 0 102 -86l58 -191l-76 -2q-85 53 -191 124t-106 110q0 23 19.5 34t43.5 11h150z" />
    <glyph glyph-name="Iacute" unicode="&#xcd;" horiz-adv-x="749" 
d="M-23 51h209v1335h-196v50h721v-56h-207v-1331h198v-51h-725v53zM358 1827h146q51 0 51 -51q0 -35 -51 -68q-61 -33 -80 -45l-172 -115h-74l68 201q26 78 112 78z" />
    <glyph glyph-name="Icircumflex" unicode="&#xce;" horiz-adv-x="749" 
d="M-18 51h208v1335h-196v50h721v-56h-207v-1331h199v-51h-725v53zM426 1546q-66 61 -162 168q-86 -71 -176 -170l-111 -6l302 287h100l301 -279h-254z" />
    <glyph glyph-name="Idieresis" unicode="&#xcf;" horiz-adv-x="749" 
d="M-8 49h209v1335h-197v50h721v-56h-207v-1331h199v-51h-725v53zM600 1831q62 0 107 -52.5t45 -110.5t-47.5 -101t-108.5 -43t-105.5 46t-44.5 112t46 107.5t108 41.5zM73 1833q60 0 105 -45t45 -108t-42.5 -108.5t-108.5 -45.5t-110 46t-44 110t47.5 107.5t107.5 43.5z
" />
    <glyph glyph-name="Ntilde" unicode="&#xd1;" horiz-adv-x="1544" 
d="M-90 51h205v1335h-193v52h580l739 -944v888h-219v52h481v-56h-192v-1403l-56 -16q-430 544 -686 876q-257 332 -381 488v-1274h218v-49h-496v51zM543 1825q55 0 159.5 -41t161.5 -41q89 0 144 84l43 -25q-41 -76 -80 -151q-55 -82 -142 -82q-53 -1 -167 39t-160 41
q-86 0 -131 -88l-49 26q43 109 77 156q62 82 144 82z" />
    <glyph glyph-name="Ograve" unicode="&#xd2;" horiz-adv-x="1626" 
d="M766 31q170 0 264 125q125 166 125 592q0 667 -389 665q-328 0 -393 -409q-20 -121 -21 -318q0 -655 414 -655zM757 1477q333 0 547 -208t214 -556t-222 -547t-587 -199q-327 -1 -521 223t-194 555t215 531.5t548 200.5zM496 1780q0 53 59 53h150q45 0 68.5 -21.5
t35.5 -64.5l55 -191h-73q-295 178 -295 224z" />
    <glyph glyph-name="Oacute" unicode="&#xd3;" horiz-adv-x="1626" 
d="M766 33q170 0 264 125q125 166 125 592q0 667 -389 665q-328 0 -393 -409q-20 -121 -21 -318q0 -655 414 -655zM757 1479q333 0 547 -208t214 -556t-222 -547t-587 -199q-327 -1 -521 223t-194 555t215 531.5t548 200.5zM770 1827h143q55 0 56 -51q0 -35 -51 -68
q-63 -33 -82 -45l-172 -115h-76l69 199q27 80 113 80z" />
    <glyph glyph-name="Ocircumflex" unicode="&#xd4;" horiz-adv-x="1626" 
d="M766 33q170 0 264 125q125 166 125 592q0 667 -389 665q-328 0 -393 -409q-20 -121 -21 -318q0 -655 414 -655zM757 1479q333 0 547 -208t214 -556t-222 -547t-587 -199q-327 -1 -521 223t-194 555t215 531.5t548 200.5zM831 1546q-73 67 -161 168q-69 -55 -174 -170
l-113 -6l301 287h102l299 -279h-254z" />
    <glyph glyph-name="Otilde" unicode="&#xd5;" horiz-adv-x="1626" 
d="M766 33q170 0 264 125q125 166 125 592q0 667 -389 665q-328 0 -393 -409q-20 -121 -21 -318q0 -655 414 -655zM757 1479q333 0 547 -208t214 -556t-222 -547t-587 -199q-327 -1 -521 223t-194 555t215 531.5t548 200.5zM915 1745q87 0 142 82l43 -25q-39 -100 -78 -151
q-61 -82 -143 -82q-53 -1 -167 39t-159 41q-86 0 -133 -88l-49 28q43 106 78 154q61 82 143 82q57 0 162.5 -40t160.5 -40z" />
    <glyph glyph-name="Odieresis" unicode="&#xd6;" horiz-adv-x="1626" 
d="M885 1687q0 67 48.5 106.5t110.5 39.5t103 -47.5t41 -105.5t-42 -104t-107 -46t-109.5 45t-44.5 112zM362 1687.5q0 65.5 44.5 105.5t110 40t106.5 -43t41 -108.5t-44.5 -107.5t-110 -42t-106.5 45t-41 110.5zM1157 743q0 676 -387 674q-252 0 -348 -241
q-66 -164 -66 -456t66 -452q98 -239 344 -239q308 0 373 405q18 117 18 309zM752 1479q332 0 550 -195t218 -512q0 -375 -206 -589t-579 -214q-334 0 -537.5 216t-203.5 553t213 539t545 202z" />
    <glyph glyph-name="Oslash" unicode="&#xd8;" horiz-adv-x="1626" 
d="M750 35q186 0 284 123q127 156 127 536q0 129 -10 213t-14 129l-731 -714q27 -123 123 -205t221 -82zM758 1415q-404 0 -404 -696q0 -129 29 -307l727 716q-47 150 -126 218t-226 69zM1522 713q0 -346 -218.5 -545t-568.5 -199q-143 0 -261 44t-238 137l-179 -177l-63 58
l184 178q-90 92 -135 227t-45 277q0 344 207 555t551 211q154 0 280.5 -43t245.5 -142l180 176l60 -59l-181 -176q181 -221 181 -522z" />
    <glyph glyph-name="Ugrave" unicode="&#xd9;" horiz-adv-x="1507" 
d="M1278 432q0 -469 -520 -469q-375 0 -510 115q-119 100 -119 303v1005h-192v50h733v-52h-226v-1058q0 -142 106 -216t257 -73q211 0 306 95t95 306v946h-221v48h488v-50h-197v-950zM430 1788q0 45 64 45h147q78 0 102 -86l60 -191l-78 3q-84 51 -168 104q-127 86 -127 125
z" />
    <glyph glyph-name="Uacute" unicode="&#xda;" horiz-adv-x="1507" 
d="M1278 434q0 -469 -520 -469q-375 0 -510 115q-119 100 -119 303v1006h-192v49h733v-52h-226v-1058q0 -142 106 -216t257 -73q211 0 306 95t95 306v946h-221v48h488v-50h-197v-950zM903 1778q0 -39 -72 -82q-31 -16 -59 -33l-174 -115h-72l68 201q27 78 111 78l147 -2
q51 0 51 -47z" />
    <glyph glyph-name="Ucircumflex" unicode="&#xdb;" horiz-adv-x="1507" 
d="M1278 434q0 -469 -520 -469q-375 0 -510 115q-119 100 -119 303v1006h-192v49h733v-52h-226v-1058q0 -142 106 -216t257 -73q211 0 306 95t95 306v946h-221v48h488v-50h-197v-950zM621 1825h102l299 -279h-254l-162 168q-47 -28 -176 -170l-108 -6z" />
    <glyph glyph-name="Udieresis" unicode="&#xdc;" horiz-adv-x="1507" 
d="M1031 1835q60 0 105.5 -45t45.5 -106t-43 -106.5t-108.5 -45.5t-109.5 46t-44 108t47 105.5t107 43.5zM352 1687.5q0 61.5 46 103.5t104 42t106.5 -36t48.5 -89v-33q0 -63 -47 -104t-109 -41t-105.5 48t-43.5 109.5zM-63 1438h733v-52h-226v-1015q0 -166 95.5 -249
t272.5 -83t286 85t108 267v995h-219v48h488v-50h-197v-933q0 -276 -154 -390q-131 -96 -404 -96t-409 74q-182 100 -182 338v1012h-192v49z" />
    <glyph glyph-name="germandbls" unicode="&#xdf;" horiz-adv-x="1189" 
d="M535 909q194 1 194 233q0 114 -35 177q-45 84 -162 84q-74 0 -111.5 -66.5t-37.5 -146.5v-1137h98v-53h-551v57h162v965q0 440 502 440q168 0 278 -53q146 -70 146 -215t-100 -221q-78 -59 -232 -88q219 -49 295 -113q104 -88 104 -295t-65 -332q-86 -164 -275 -163
q-135 0 -191 71.5t-56 212.5h61v-16q-1 -176 105 -176q62 0 89 53q26 53 25 119l-2 334q0 141 -56 203.5t-198 62.5v63h13z" />
    <glyph glyph-name="agrave" unicode="&#xe0;" horiz-adv-x="1110" 
d="M446 72q201 0 201 383l-2 153q-201 -59 -250 -94q-102 -72 -102 -238q0 -88 36 -146t117 -58zM312 -20q-128 0 -218 79.5t-90 227.5q0 213 210 268.5t429 114.5l-2 69q0 111 -33 165t-137 54q-147 0 -165.5 -135t-108.5 -135q-68 0 -93.5 23.5t-25.5 89.5q0 115 160 172
q119 43 258 43q225 0 317 -64q113 -78 113 -295v-424q0 -90 25.5 -134t99.5 -44q18 2 26 2v-57h-33l-204 -10q-88 0 -126 29.5t-71 115.5q-66 -88 -134.5 -121.5t-196.5 -33.5zM258 1419q0 51 117 51h26q51 0 81 -17t48 -64l107 -287l-74 2q-117 106 -231 213q-26 20 -50 45
t-24 57z" />
    <glyph glyph-name="aacute" unicode="&#xe1;" horiz-adv-x="1110" 
d="M446 72q201 0 201 383l-2 153q-201 -59 -250 -94q-102 -72 -102 -238q0 -88 36 -146t117 -58zM312 -20q-128 0 -218 79.5t-90 227.5q0 213 210 268.5t429 114.5l-2 69q0 111 -33 165t-137 54q-147 0 -165.5 -135t-108.5 -135q-68 0 -93.5 23.5t-25.5 89.5q0 115 160 172
q119 43 258 43q225 0 317 -64q113 -78 113 -295v-424q0 -90 25.5 -134t99.5 -44q18 2 26 2v-57h-33l-204 -10q-88 0 -126 29.5t-71 115.5q-66 -88 -134.5 -121.5t-196.5 -33.5zM690 1466q18 0 40 -14t22 -31q0 -37 -112 -139t-200 -182l-80 2q37 98 76 198q66 154 107 160
l57 6h90z" />
    <glyph glyph-name="acircumflex" unicode="&#xe2;" horiz-adv-x="1110" 
d="M446 72q201 0 201 383l-2 153q-201 -59 -250 -94q-102 -72 -102 -238q0 -88 36 -146t117 -58zM312 -20q-128 0 -218 79.5t-90 227.5q0 213 210 268.5t429 114.5l-2 69q0 111 -33 165t-137 54q-147 0 -165.5 -135t-108.5 -135q-68 0 -93.5 23.5t-25.5 89.5q0 115 160 172
q119 43 258 43q225 0 317 -64q113 -78 113 -295v-424q0 -90 25.5 -134t99.5 -44q18 2 26 2v-57h-33l-204 -10q-88 0 -126 29.5t-71 115.5q-66 -88 -134.5 -121.5t-196.5 -33.5zM463 1466h61l279 -368h-213l-152 225l-155 -227h-80z" />
    <glyph glyph-name="atilde" unicode="&#xe3;" horiz-adv-x="1110" 
d="M446 72q201 0 201 383l-2 153q-201 -59 -250 -94q-102 -72 -102 -238q0 -88 36 -146t117 -58zM312 -20q-128 0 -218 79.5t-90 227.5q0 213 210 268.5t429 114.5l-2 69q0 111 -33 165t-137 54q-147 0 -165.5 -135t-108.5 -135q-68 0 -93.5 23.5t-25.5 89.5q0 115 160 172
q119 43 258 43q225 0 317 -64q113 -78 113 -295v-424q0 -90 25.5 -134t99.5 -44q18 2 26 2v-57h-33l-204 -10q-88 0 -126 29.5t-71 115.5q-66 -88 -134.5 -121.5t-196.5 -33.5zM659 1331q85 0 140 86l47 -24q-48 -121 -106 -177t-111 -57t-157 45t-142 46t-66 -20
q-26 -19 -71 -69l-48 23q14 76 82 154q67 78 133 77q66 0 162 -42t137 -42z" />
    <glyph glyph-name="adieresis" unicode="&#xe4;" horiz-adv-x="1110" 
d="M592 1288q0 59 44 99t100 40t99.5 -45t43.5 -103t-41.5 -98t-101.5 -40t-102 44t-42 103zM145 1285q0 58 43 99t105 41t99.5 -42t37.5 -101t-47 -100t-103 -41t-95.5 43t-39.5 101zM305 262q0 -82 38 -136t127 -54t137 93t48 200v247q-190 -51 -254 -102
q-96 -78 -96 -248zM866 -14q-88 0 -141 34.5t-68 116.5q-115 -158 -301 -157q-158 0 -247 77.5t-89 233.5q0 113 58.5 177t173.5 93q168 41 255 62.5t148 46.5v51q0 117 -24 166q-37 76 -148 76q-150 0 -166 -137.5t-110 -137.5q-117 0 -117 92q0 139 168 197q113 39 291 39
t272 -64q113 -76 113 -254v-467q0 -98 31 -140t122 -42v-45q-133 -18 -221 -18z" />
    <glyph glyph-name="aring" unicode="&#xe5;" horiz-adv-x="1110" 
d="M509 1165q46 0 79 26t33 69t-28 74.5t-69 31.5t-74.5 -25.5t-33.5 -69.5t23.5 -75t69.5 -31zM340 1267q0 73 54.5 123t128 50t123.5 -52t50 -128t-52 -124.5t-129 -48.5t-126 53.5t-49 126.5zM467 70q100 0 151 104q41 84 41 197v243q-215 -78 -247 -100
q-104 -72 -105 -235q0 -209 160 -209zM657 727q0 113 -28 164q-39 70 -146 70q-150 0 -166 -137.5t-106 -137.5q-55 0 -86 20t-31 70q0 129 148 191q109 45 258 45q262 0 348 -78t86 -223l2 -504q0 -88 30.5 -119t118.5 -41v-45q-119 -16 -210 -16q-193 0 -218 147
q-59 -86 -130 -119.5t-203 -33.5t-218 79.5t-86 231.5q0 208 234 268q168 41 255 62.5t148 46.5v59z" />
    <glyph glyph-name="ae" unicode="&#xe6;" horiz-adv-x="1585" 
d="M1047 954q-96 0 -146 -112q-37 -84 -37 -205v-31h383l2 51q0 169 -53 233t-149 64zM403 70q100 0 146 131q31 90 31 215v184q-199 -74 -226 -92q-104 -70 -104 -209l2 -57q0 -172 151 -172zM1147 49q215 0 334 254l57 -27q-66 -147 -187.5 -226t-283.5 -79t-262 54.5
t-182 191.5q-33 -131 -124 -187t-232.5 -56.5t-223.5 83.5t-82 228q0 197 229 272q193 54 388 109l2 65q0 104 -29 156q-39 70 -133 69q-156 0 -156 -145q0 -68 -22.5 -96.5t-83.5 -28.5t-90 20.5t-29 73.5q0 127 147 187q102 41 227 41t196 -27t126 -96q78 70 155 95.5
t189 25.5q217 0 338 -119t141 -340h-694q0 -233 33 -326q61 -172 252 -172z" />
    <glyph glyph-name="ccedilla" unicode="&#xe7;" horiz-adv-x="991" 
d="M528 -31q-240 0 -371.5 151.5t-131.5 385.5q-1 234 161 370t394 136q137 0 241 -51q135 -68 135 -189q0 -66 -36.5 -100.5t-100.5 -34.5q-125 0 -145.5 157.5t-126.5 157.5q-133 0 -178 -151q-27 -89 -27 -283t33 -293q59 -174 229 -174q98 0 168 47t148 219l63 -16
q-88 -182 -179 -257t-276 -75zM387 -365q119 0 119 140q0 115 -109 114q-43 0 -64 -41t-34 -98h-49l2 152q221 103 316.5 21.5t95.5 -170.5t-71 -138t-141 -49t-102 12t-119 53l41 45q55 -41 115 -41z" />
    <glyph glyph-name="egrave" unicode="&#xe8;" 
d="M510 958q-94 0 -145 -104q-41 -82 -41 -188v-58h376l2 51q0 137 -28 201q-45 98 -164 98zM596 57q125 1 203 63t137 181l59 -22q-78 -150 -189.5 -226t-277.5 -76q-229 0 -371.5 146.5t-142.5 378.5t141.5 372t368.5 140t357.5 -124t130.5 -343h-684l-2 -64
q0 -244 72 -335t198 -91zM219 1411q0 57 70 57l80 2q49 0 76.5 -17t46.5 -64l106 -287l-74 2q-86 76 -170 151q-135 125 -135 156z" />
    <glyph glyph-name="eacute" unicode="&#xe9;" 
d="M510 958q-94 0 -145 -104q-41 -82 -41 -188v-58h376l2 51q0 137 -28 201q-45 98 -164 98zM596 57q125 1 203 63t137 181l59 -22q-78 -150 -189.5 -226t-277.5 -76q-229 0 -371.5 146.5t-142.5 378.5t141.5 372t368.5 140t357.5 -124t130.5 -343h-684l-2 -64
q0 -244 72 -335t198 -91zM651 1466q20 0 40 -15t20 -41t-112 -130t-198 -180h-77q43 119 75 198q63 154 107 162l57 6h88z" />
    <glyph glyph-name="ecircumflex" unicode="&#xea;" 
d="M510 958q-94 0 -145 -104q-41 -82 -41 -188v-58h376l2 51q0 137 -28 201q-45 98 -164 98zM596 57q125 1 203 63t137 181l59 -22q-78 -150 -189.5 -226t-277.5 -76q-229 0 -371.5 146.5t-142.5 378.5t141.5 372t368.5 140t357.5 -124t130.5 -343h-684l-2 -64
q0 -244 72 -335t198 -91zM424 1466h61l279 -368h-211l-156 225l-153 -227h-78z" />
    <glyph glyph-name="edieresis" unicode="&#xeb;" 
d="M510 958q-94 0 -145 -104q-41 -82 -41 -188v-58h376l2 51q0 137 -28 201q-45 98 -164 98zM596 57q125 1 203 63t137 181l59 -22q-78 -150 -189.5 -226t-277.5 -76q-229 0 -371.5 146.5t-142.5 378.5t141.5 372t368.5 140t357.5 -124t130.5 -343h-684l-2 -64
q0 -244 72 -335t198 -91zM684 1427q59 0 101 -39.5t42 -100.5t-44 -102.5t-103 -41.5t-98 43t-39 99t41 99t100 43zM92 1288q0 60 42 99.5t99 39.5t101.5 -39.5t44.5 -97.5t-41.5 -101.5t-103.5 -43.5t-102 41.5t-40 101.5z" />
    <glyph glyph-name="igrave" unicode="&#xec;" horiz-adv-x="636" 
d="M221 989q119 0 236 12v-952h143v-49h-600v49h160v885h-154l2 57l178 -2h35zM37 1419q0 39 44 46.5t81 7.5h24q51 0 77 -16.5t44 -67.5l107 -287h-74l-227 217q-27 20 -51.5 43.5t-24.5 56.5z" />
    <glyph glyph-name="iacute" unicode="&#xed;" horiz-adv-x="636" 
d="M221 989q119 0 236 12v-952h143v-49h-600v49h160v885h-154l2 57l178 -2h35zM530 1421q0 -37 -112 -139t-199 -182l-78 2q37 98 88 224t93 134l57 6l90 2q16 0 38.5 -15t22.5 -32z" />
    <glyph glyph-name="icircumflex" unicode="&#xee;" horiz-adv-x="636" 
d="M236 989q119 0 235 12v-952h145v-49h-602v49h160v885h-154l3 57l178 -2h35zM256 1466h61l277 -368h-209l-156 225l-153 -227h-78z" />
    <glyph glyph-name="idieresis" unicode="&#xef;" horiz-adv-x="636" 
d="M231 991q119 0 236 13v-953h145v-49h-602v49h160v885h-154l2 57l179 -2h34zM513 1430q56 0 100 -40t44 -101t-47 -101.5t-107 -40.5t-96 44t-36 100t43 97.5t99 41.5zM60 1427q60 0 103.5 -40.5t43.5 -98.5t-39 -101.5t-99 -43.5t-104.5 40t-44.5 100t40 102t100 42z" />
    <glyph glyph-name="ntilde" unicode="&#xf1;" horiz-adv-x="1267" 
d="M745 1010q324 0 324 -308v-653h143v-53h-585v53h149l2 705q0 72 -36.5 116.5t-108.5 44.5q-125 0 -183 -102t-57 -240v-524h146v-49h-594v51h155v881h-149v59l188 -2h33q115 0 229 12l-4 -182q61 113 137 152t211 39zM379.5 1249q-58.5 0 -121.5 -88l-49 25
q57 115 82 147q61 82 127 82t168 -43q100 -43 139 -43q86 0 137 88l49 -22q-98 -236 -225 -236q-55 0 -151.5 45t-155 45z" />
    <glyph glyph-name="ograve" unicode="&#xf2;" horiz-adv-x="1146" 
d="M542.5 27q139.5 0 188.5 157q29 92 29 273v67q0 193 -31 287q-51 156 -188 156t-189 -158q-31 -96 -30 -274v-78q0 -190 30 -281q51 -149 190.5 -149zM539 1016q227 0 378.5 -143.5t151.5 -374.5t-150.5 -376t-384.5 -145t-376 146.5t-142 374.5t148 373t375 145z
M424 1473q51 0 75.5 -17.5t43.5 -66.5l110 -287h-75l-228 217q-59 53 -61 55q-14 20 -14.5 59.5t110.5 39.5h39z" />
    <glyph glyph-name="oacute" unicode="&#xf3;" horiz-adv-x="1146" 
d="M542.5 27q139.5 0 188.5 157q29 92 29 273v67q0 193 -31 287q-51 156 -188 156t-189 -158q-31 -96 -30 -274v-78q0 -190 30 -281q51 -149 190.5 -149zM539 1016q227 0 378.5 -143.5t151.5 -374.5t-150.5 -376t-384.5 -145t-376 146.5t-142 374.5t148 373t375 145z
M764 1411q0 -27 -112 -131t-197 -180l-80 2q45 119 78 198q63 152 104 160l59 6l89 2q20 0 39.5 -15t19.5 -42z" />
    <glyph glyph-name="ocircumflex" unicode="&#xf4;" horiz-adv-x="1146" 
d="M542.5 27q139.5 0 188.5 157q29 92 29 273v67q0 193 -31 287q-51 156 -188 156t-189 -158q-31 -96 -30 -274v-78q0 -190 30 -281q51 -149 190.5 -149zM539 1016q227 0 378.5 -143.5t151.5 -374.5t-150.5 -376t-384.5 -145t-376 146.5t-142 374.5t148 373t375 145z
M477 1466h62l278 -368h-209l-155 225l-156 -227h-80z" />
    <glyph glyph-name="otilde" unicode="&#xf5;" horiz-adv-x="1146" 
d="M540.5 27q139.5 0 188.5 157q29 92 29 273v67q0 193 -31 287q-51 156 -188 156t-189 -158q-31 -96 -31 -274v-78q0 -190 31 -281q51 -149 190.5 -149zM536 1016q227 0 379 -143.5t152 -374.5t-150.5 -376t-384.5 -145t-376 146.5t-142 374.5t147.5 373t374.5 145z
M639 1159q-53 0 -151.5 45t-141.5 45q-86 0 -137 -88l-49 23q31 86 89 158q57 72 121 73q64 0 130 -26q145 -59 178 -60q92 0 135 88l51 -24q-99 -234 -225 -234z" />
    <glyph glyph-name="odieresis" unicode="&#xf6;" horiz-adv-x="1146" 
d="M776.5 1423q59.5 0 103.5 -42t44 -100t-43 -99t-101 -41t-100.5 40t-42.5 99t40 101t99.5 42zM326 1425q55 0 101 -35.5t46 -86.5v-33q0 -53 -49.5 -90t-103.5 -37t-93 43t-39 98t41.5 98t96.5 43zM582 31q125 0 168 188q22 100 22 292t-27 284q-49 172 -188 172
t-190 -144q-35 -96 -35 -282v-47q0 -48 2 -76q0 -180 35 -260q55 -127 213 -127zM558 1016q228 0 373.5 -147.5t145.5 -374.5t-151.5 -373t-379.5 -146t-372.5 148.5t-144.5 378.5t150.5 372t378.5 142z" />
    <glyph glyph-name="divide" unicode="&#xf7;" horiz-adv-x="983" 
d="M451 362q45 0 77.5 -32.5t32.5 -77.5t-30.5 -78t-77.5 -33t-80 33t-33 78t33 77.5t78 32.5zM453 897q45 0 78.5 -31.5t33.5 -77t-32.5 -78t-78.5 -32.5t-79 30.5t-33 76.5t33 79t78 33zM-53 571h1034v-106h-1034v106z" />
    <glyph glyph-name="oslash" unicode="&#xf8;" horiz-adv-x="1146" 
d="M535 33q129 0 182 143q37 98 37 254v229l-432 -407q27 -109 63 -156q52 -63 150 -63zM526 963q-215 0 -215 -416l6 -209l422 412q-34 211 -213 213zM8 475q0 242 143.5 391.5t383.5 149.5q109 0 184.5 -26.5t169.5 -96.5l121 119l55 -54l-125 -118q63 -90 92 -166
t29 -174q0 -231 -147.5 -377t-363.5 -146t-372 121l-125 -118l-57 51l129 121q-63 92 -90 160t-27 163z" />
    <glyph glyph-name="ugrave" unicode="&#xf9;" horiz-adv-x="1267" 
d="M406 -23q-170 -1 -238 87t-68 264v612h-151v51l440 10l2 -694q0 -227 164 -227q147 0 201 139q35 90 35 264v453h-154v55l145 -2h121q100 0 168 10v-954h152v-47l-197 2l-231 -8v158q-68 -86 -170.5 -129.5t-218.5 -43.5zM442 1473h29q53 0 81 -17.5t44 -66.5l109 -287
l-76 2l-230 213q-25 20 -49 45t-24 59q0 52 116 52z" />
    <glyph glyph-name="uacute" unicode="&#xfa;" horiz-adv-x="1267" 
d="M406 -23q-170 -1 -238 87t-68 264v612h-151v51l440 10l2 -694q0 -227 164 -227q147 0 201 139q35 90 35 264v453h-154v55l145 -2h121q100 0 168 10v-954h152v-47l-197 2l-231 -8v158q-68 -86 -170.5 -129.5t-218.5 -43.5zM756 1466q20 0 40.5 -13t20.5 -32
q0 -45 -186 -211q-63 -55 -125 -110h-76q51 156 99.5 255t78.5 105l60 6h88z" />
    <glyph glyph-name="ucircumflex" unicode="&#xfb;" horiz-adv-x="1267" 
d="M406 -23q-170 -1 -238 87t-68 264v612h-151v51l440 10l2 -694q0 -227 164 -227q147 0 201 139q35 90 35 264v453h-154v55l145 -2h121q100 0 168 10v-954h152v-47l-197 2l-231 -8v158q-68 -86 -170.5 -129.5t-218.5 -43.5zM528 1466h62l280 -368h-213l-153 225l-154 -227
h-78z" />
    <glyph glyph-name="udieresis" unicode="&#xfc;" horiz-adv-x="1267" 
d="M784.5 1423q61.5 0 103.5 -42t42 -99t-41 -100t-100 -43t-101.5 40t-42.5 101t39 102t100.5 41zM346 1421q58 0 96.5 -43t38.5 -97t-41 -97t-102 -43t-101 42t-40 103t45.5 98t103.5 37zM402 -20q-294 0 -293 313v649h-152v51h80l358 8v-692q0 -231 164 -231
q117 0 174 89t58 212v559h-150v53l434 10v-950h150l2 -49h-119l-313 -12v170q-76 -98 -163.5 -139t-229.5 -41z" />
    <glyph glyph-name="ydieresis" unicode="&#xff;" horiz-adv-x="1071" 
d="M-82 995h619v-53h-154q90 -234 248 -608q125 303 231 604h-153v55h364v-57h-141q-78 -216 -256 -668t-236 -536q-115 -168 -268 -168q-94 0 -158.5 58.5t-64.5 137.5t38.5 122.5t104.5 43.5t88 -49q16 -35 17 -108v-60q1 -55 65 -55t133 119q31 51 84 184
q-102 249 -210 513t-212 474h-139v51zM692.5 1427q61.5 0 102.5 -40.5t41 -100.5t-48.5 -100.5t-103.5 -40.5t-95 42t-40 98t41 99t102.5 43zM98 1288q0 60 43 99.5t99 39.5t100.5 -39.5t44.5 -99.5t-39.5 -101.5t-103.5 -41.5t-104 41.5t-40 101.5z" />
    <glyph glyph-name="dotlessi" unicode="&#x131;" horiz-adv-x="636" 
d="M221 989q119 0 236 12v-952h143v-49h-600v49h160v885h-154l2 57l178 -2h35z" />
    <glyph glyph-name="OE" unicode="&#x152;" horiz-adv-x="2177" 
d="M995 1083q0 310 -270 310q-248 0 -346 -238q-66 -160 -66 -453q0 -369 117 -528q100 -137 286 -137t245 137q35 84 34 297v612zM2040 1434v-449l-60 -2q-43 250 -215 332q-121 57 -405 57h-70v-618h33q150 0 230.5 76.5t80.5 226.5h62v-660h-64l2 17q0 282 -344 282v-639
h283q193 0 310.5 114t152.5 310h57v-487h-1044q-63 0 -214 -13t-206 -14q-299 0 -485 218t-187 538q0 320 199.5 525.5t533.5 205.5l322 -20h1028z" />
    <glyph glyph-name="oe" unicode="&#x153;" horiz-adv-x="1665" 
d="M1159 958q-190 0 -188 -337v-15h362l2 51q0 127 -26 195q-41 106 -150 106zM690 647q0 113 -43 203q-55 117 -155 117q-150 0 -197 -187q-23 -90 -23 -288t29 -293q49 -166 181 -166t180 143q29 88 28 252v219zM-33 494q0 224 146.5 373t386.5 149q104 0 170 -29
t161 -104q86 70 159 100.5t175 30.5q225 0 340 -121t142 -350h-678q0 -221 30 -316q57 -176 230 -176q109 0 191.5 59.5t135.5 159.5l15 31l57 -20q-88 -154 -192 -229t-265 -75q-109 0 -183.5 31t-166.5 105q-144 -133 -354 -133q-209 0 -354.5 145t-145.5 369z" />
    <glyph glyph-name="Scaron" unicode="&#x160;" horiz-adv-x="1374" 
d="M-39 0v319h29q10 -63 38.5 -91.5t92.5 -28.5h309l-4 57q-200 57 -312 191t-112 337q0 264 190 418t459 154q270 0 462 -154t192 -416q0 -205 -113 -339t-315 -193l-5 -55h312q63 0 92 27.5t39 92.5h28v-319h-581l33 299q154 68 217 191q63 122 63 324q-1 202 -103 339
t-318 137t-319 -138t-103 -342t58 -320q60 -117 220 -191l33 -299h-582z" />
    <glyph glyph-name="Ydieresis" unicode="&#x178;" horiz-adv-x="1347" 
d="M-104 1436h763v-52h-221q136 -239 330 -563l334 561h-213v52h450v-54h-161l-396 -655v-676h211v-51h-753v51h217v674l-396 663h-165v50zM854 1833q64 0 107 -49.5t43 -111.5t-45.5 -105t-109 -43t-106.5 45t-43 113t45 109.5t109 41.5zM327 1833q62 0 106 -46t44 -109.5
t-44.5 -107.5t-108.5 -44t-107 45t-43 110t45.5 108.5t107.5 43.5z" />
    <glyph glyph-name="florin" unicode="&#x192;" horiz-adv-x="983" 
d="M963 684l-979 -455v123l852 391l-852 394v120l979 -450v-123zM963 0h-979v109h979v-109z" />
    <glyph glyph-name="circumflex" unicode="&#x2c6;" horiz-adv-x="0" 
d="M-39 1466h59l281 -368h-211l-153 225l-154 -227h-80z" />
    <glyph glyph-name="caron" unicode="&#x2c7;" horiz-adv-x="0" 
d="M-94 1466l153 -225l156 225h84l-264 -372h-68q-53 82 -153 216t-117 156h209z" />
    <glyph glyph-name="tilde" unicode="&#x2dc;" horiz-adv-x="0" 
d="M-170 1247q-84 0 -137 -86l-53 23q57 115 84 149q63 82 141 82q53 -1 159 -43t140 -42q35 0 73.5 24t57.5 63l49 -24q-92 -234 -221 -234q-49 0 -157 44t-136 44z" />
    <glyph glyph-name="endash" unicode="&#x2013;" 
d="M-18 641h989v-197h-989v197z" />
    <glyph glyph-name="emdash" unicode="&#x2014;" horiz-adv-x="1267" 
d="M-98 680h1366v-162h-1366v162z" />
    <glyph glyph-name="quoteleft" unicode="&#x2018;" horiz-adv-x="477" 
d="M270 1110q49 0 94.5 -45t45.5 -113t-47 -112.5t-129 -44.5t-134.5 74.5t-52.5 168.5q1 146 73 238t220 178l25 -51q-102 -49 -150.5 -124t-64.5 -192q71 23 120 23z" />
    <glyph glyph-name="quoteright" unicode="&#x2019;" horiz-adv-x="477" 
d="M134 1141q-50 0 -98 46.5t-48 112.5t45 111t131 45t136 -73t50 -177q0 -174 -125 -288q-35 -33 -162 -127l-30 55q115 68 165 134t50 185q-64 -24 -114 -24z" />
    <glyph glyph-name="quotesinglbase" unicode="&#x201a;" horiz-adv-x="423" 
d="M150 303q196 1 196 -269q0 -128 -72 -220t-217 -179l-30 52q111 61 160 131.5t63 195.5q-62 -30 -118 -30q-55 0 -100.5 44t-45.5 112t47 115.5t117 47.5z" />
    <glyph glyph-name="quotedblleft" unicode="&#x201c;" horiz-adv-x="913" 
d="M690 1112q63 0 108.5 -47t45.5 -111t-43 -109.5t-125 -45.5t-137.5 69.5t-55.5 161.5q0 147 76 256t215 172l29 -49q-121 -78 -159 -131t-58 -186q41 20 104 20zM240 1114q56 0 99.5 -47t43.5 -115t-47 -110.5t-129 -42.5t-133 72.5t-51 164.5q1 142 75 242t213 182
l29 -51q-96 -49 -156 -131t-61 -184q61 20 117 20z" />
    <glyph glyph-name="quotedblright" unicode="&#x201d;" horiz-adv-x="913" 
d="M618 1143q-57 0 -99 41.5t-42 113.5t49 115t121 43q101 0 145 -78t44 -198q0 -226 -289 -389l-29 51q195 96 215 319q-58 -18 -115 -18zM153 1141q-46 0 -93.5 47.5t-47.5 111.5t47 111t129 47t134 -76t53 -170q0 -145 -84 -249q-59 -74 -207 -170l-25 49
q104 59 153.5 133t63.5 194q-77 -28 -123 -28z" />
    <glyph glyph-name="quotedblbase" unicode="&#x201e;" horiz-adv-x="913" 
d="M473 136q0 70 45 115.5t113 45.5q117 0 164 -84q37 -66 37 -191t-83 -223q-82 -98 -208 -168l-27 56q215 94 215 323q-64 -28 -92 -28q-76 0 -120 42t-44 112zM262 -4v14q-64 -28 -108 -28q-43 0 -95.5 44t-52.5 110t46 116.5t129 50.5t134.5 -74.5t51.5 -169.5
q0 -152 -80 -252q-51 -63 -209 -174l-31 54q215 107 215 309z" />
    <glyph glyph-name="dagger" unicode="&#x2020;" horiz-adv-x="991" 
d="M625 -74q0 -217 -172 -217q-72 0 -116 52.5t-44 138.5t18 204q27 143 57 309t56 429q-74 -23 -148 -45q-94 -43 -114 -50t-62 -7t-76 41.5t-34 103.5t41 100.5t106 38.5q6 0 131 -49t156 -55q-10 55 -64.5 200.5t-54.5 205.5t47 102t115 42t114 -42t46 -104
q1 -62 -27 -118t-53 -111t-45 -177q279 100 297 100q55 0 95 -40t40 -96t-33 -101.5t-77 -45.5t-320 107q0 -111 14 -208t42 -255t46.5 -262.5t18.5 -190.5z" />
    <glyph glyph-name="daggerdbl" unicode="&#x2021;" horiz-adv-x="1476" 
d="M1462 1434q-184 0 -184 -195v-1233q0 -92 47 -126t145 -34v-45h-604v43q96 0 142.5 33t46.5 129v1364h-705l2 -1364q0 -94 46 -127t143 -33v-45h-602v45q100 0 145 32t45 128v1235q0 193 -186 193v45h1519v-45z" />
    <glyph glyph-name="bullet" unicode="&#x2022;" horiz-adv-x="690" 
d="M616 730q0 -112 -75.5 -189.5t-190.5 -77.5t-195.5 79t-80.5 189.5t82 190t194 79.5t189 -79.5t77 -191.5z" />
    <glyph glyph-name="ellipsis" unicode="&#x2026;" horiz-adv-x="2072" 
d="M1835 0h-217v219h217v-219zM1145 0h-217v219h217v-219zM455 0h-217v219h217v-219z" />
    <glyph glyph-name="perthousand" unicode="&#x2030;" horiz-adv-x="493" 
d="M201 1178q0 626 202 626q53 0 94.5 -29.5t41.5 -73.5t-31 -68.5t-66 -24.5t-61.5 22.5t-43.5 22.5t-26.5 -15.5t-9.5 -79.5t18.5 -276.5t18.5 -318.5v-428q0 -177 -30 -401t-93 -296q-20 -20 -58 -34.5t-77 -14.5t-75 38t-36 76t28.5 63.5t56.5 25.5t62 -32t44 -32
q23 0 38 55.5t15 141.5l-12 608v445z" />
    <glyph glyph-name="guilsinglleft" unicode="&#x2039;" horiz-adv-x="690" 
d="M508 223l-326 256v191l326 254v-183l-217 -168l217 -167v-183z" />
    <glyph glyph-name="guilsinglright" unicode="&#x203a;" horiz-adv-x="690" 
d="M182 406l217 167l-217 168v183l326 -254v-191l-326 -256v183z" />
    <glyph glyph-name="trademark" unicode="&#x2122;" horiz-adv-x="1593" 
d="M762 666q0 -54 100 -54v-37h-254v35q47 0 64 6q37 12 37 52v555q0 41 -18.5 53t-57.5 12h-27v37h223l258 -567l250 567h219v-37l-18 2q-39 0 -58.5 -8t-19.5 -43v-573q0 -27 20.5 -40.5t78.5 -13.5v-37h-316l2 35q47 0 64 6q37 12 37 52v544l-267 -637h-35l-282 607v-516
zM512 1143q0 66 -42 101.5t-110 35.5h-71v-614q0 -27 20.5 -40.5t75.5 -13.5v-37h-315v35q49 0 65 6q35 12 35 52v612l-72 2q-152 0 -151 -149l-37 2l8 190h623l6 -190l-35 -2v10z" />
    <glyph glyph-name="fraction" unicode="&#x2215;" horiz-adv-x="239" 
d="M391 1440l84 -2l-723 -1434h-90z" />
    </font>
</defs>
</svg>
