<?xml version="1.0" standalone="no"?>
<!DOCTYPE svg PUBLIC "-//W3C//DTD SVG 1.1//EN" "http://www.w3.org/Graphics/SVG/1.1/DTD/svg11.dtd" >
<svg xmlns="http://www.w3.org/2000/svg">
<metadata>
Created by FontPrep 20130207 at Wed Sep 28 07:09:16 2016
 By Ben Racher
Glacial Indifference is a trademark of Alfredo Marco Pradil
</metadata>
<defs>
<font id="18e4120734a7d9c7a8faafc483e2e4d6" horiz-adv-x='1024' >
  <font-face 
    font-family="GlacialIndifference-Bold"
    font-weight="700"
    font-stretch="normal"
    units-per-em="2048"
    panose-1="0 0 8 0 0 0 0 0 0 0"
    ascent="1536"
    descent="-512"
    x-height="901"
    cap-height="1393"
    bbox="-172 -533.262 1860 1964"
    underline-thickness="102"
    underline-position="-245"
    unicode-range="U+0020-F8FF"
  />
<missing-glyph horiz-adv-x="1024" 
d="M897 0h-768v1536h768v-1536zM256 1409v-1280h512v1280h-512z" />
    <glyph glyph-name=".notdef" horiz-adv-x="1024" 
d="M897 0h-768v1536h768v-1536zM256 1409v-1280h512v1280h-512z" />
    <glyph glyph-name=".null" horiz-adv-x="0" 
 />
    <glyph glyph-name="nonmarkingreturn" horiz-adv-x="681" 
 />
    <glyph glyph-name="space" unicode=" " horiz-adv-x="512" 
 />
    <glyph glyph-name="exclam" unicode="!" horiz-adv-x="573" 
d="M174 469l-41 1067h307l-41 -1067h-225zM286 -20q-76 0 -128 52t-52 127t52 128t128 53q75 0 128 -53t53 -128t-53 -127t-128 -52z" />
    <glyph glyph-name="quotedbl" unicode="&#x22;" horiz-adv-x="710" 
d="M438 1536h232l-41 -567h-150zM41 1536h231l-41 -567h-149z" />
    <glyph glyph-name="numbersign" unicode="#" horiz-adv-x="1124" 
d="M1104 829h-217l-27 -215h193v-196h-217l-52 -428l-194 26l49 402h-221l-53 -428l-197 26l51 406h-199v192h226l26 215h-200v195h225l49 401l193 -26l-47 -375h221l49 401l192 -26l-45 -375h195v-195zM688 829h-219l-27 -215h222z" />
    <glyph glyph-name="dollar" unicode="$" horiz-adv-x="1290" 
d="M780 -213h-266v190q-201 31 -326 153t-127 329h318q6 -119 84 -175t205 -56t199 59q44 37 44 96t-59 101q-60 42 -150 60q-194 40 -387 121q-90 37 -149 121t-60 205q0 173 117 279t291 135v172h266v-176q176 -33 286 -141t116 -291h-318q-20 182 -250 182
q-78 0 -134 -32t-56 -92t44 -94t116 -52q72 -19 158 -37t170 -48q85 -30 157 -72t116 -121t44 -187q0 -194 -126 -304t-323 -137v-188z" />
    <glyph glyph-name="percent" unicode="%" horiz-adv-x="1456" 
d="M1196 305q0 156 -89 156t-89 -154t90 -153q40 0 64 43t24 108zM1108 -20q-82 0 -144 32q-111 58 -149 190q-16 54 -16 101q0 98 63 205q33 55 96 91q62 36 148 36q226 0 294 -234q15 -51 15 -96q-1 -115 -77 -220t-230 -105zM349 1239q-89 0 -89 -154q0 -69 23 -111
t65 -42t67 43q24 43 23 108q0 156 -89 156zM348 758q-106 0 -179 58q-128 102 -128 269q0 97 62 202q31 54 95 90t150 36t150 -36t95 -90q62 -105 62 -212q-1 -107 -77 -212t-230 -105zM887 1393h241l-559 -1393h-241z" />
    <glyph glyph-name="ampersand" unicode="&#x26;" horiz-adv-x="1370" 
d="M528 -20q-194 0 -325 120t-131 308q0 230 241 384q25 15 37 25q-114 129 -114 269t98 234q98 93 248 93t252 -89q100 -89 100 -234q0 -98 -54 -170t-153 -146l191 -231q74 84 141 172l178 -183q-53 -78 -156 -190l279 -344h-338l-123 154q-177 -172 -371 -172zM682 1095
q0 33 -28 57t-67 24q-40 0 -70 -25t-30 -66q-1 -41 29 -79q30 -39 51 -60q86 59 105 98q10 18 10 51zM332 419q0 -79 55 -134t138 -55t208 120l-221 271q-180 -123 -180 -202z" />
    <glyph glyph-name="quotesingle" unicode="'" horiz-adv-x="313" 
d="M41 1536h231l-41 -567h-149z" />
    <glyph glyph-name="parenleft" unicode="(" horiz-adv-x="589" 
d="M264 547q0 -442 164 -819q37 -86 64 -125l26 -41h-203q-28 39 -77 148q-95 211 -145 522q-49 310 4 667q39 254 131 474q36 85 63 124l24 39h203q-34 -47 -83 -157q-50 -109 -83 -215q-32 -106 -60 -274q-28 -167 -28 -343z" />
    <glyph glyph-name="parenright" unicode=")" horiz-adv-x="589" 
d="M326 547q0 176 -27 341t-82 336t-119 271l-26 41h202q33 -47 80 -150q47 -104 79 -209t59 -275q54 -342 7 -652t-138 -523q-36 -85 -62 -124l-25 -41h-202q32 45 107 206t111 382t36 397z" />
    <glyph glyph-name="asterisk" unicode="*" horiz-adv-x="1044" 
d="M184 1364l287 -152l-49 324h201l-52 -324l289 152l62 -190l-318 -56l227 -223l-161 -119l-148 283l-145 -283l-164 119l227 221l-317 58z" />
    <glyph glyph-name="plus" unicode="+" horiz-adv-x="901" 
d="M535 369v-336h-168v336h-336v170h336v333h168v-333h335v-170h-335z" />
    <glyph glyph-name="comma" unicode="," horiz-adv-x="503" 
d="M434 279l-260 -553h-168l125 553h303z" />
    <glyph glyph-name="hyphen" unicode="-" horiz-adv-x="696" 
d="M666 369h-635v170h635v-170z" />
    <glyph glyph-name="period" unicode="." horiz-adv-x="573" 
d="M286 -20q-76 0 -128 52t-52 127t52 127t128 52q75 0 128 -52t53 -127t-53 -127t-128 -52z" />
    <glyph glyph-name="slash" unicode="/" horiz-adv-x="1060" 
d="M8 -426l787 1962h282l-788 -1962h-281z" />
    <glyph glyph-name="zero" unicode="0" horiz-adv-x="1261" 
d="M631 -25q-115 -1 -211 47t-160 122q-125 148 -169 361q-19 95 -19 182q0 191 74 367q42 99 104 178t160 130q100 51 221 51t220 -51t161 -130q178 -229 178 -540q0 -195 -88 -391t-260 -278q-96 -48 -211 -48zM632 1135q-190 0 -241 -296q-12 -71 -12 -148t12 -149
q48 -288 240 -288q70 0 121 41q50 41 78 109q50 124 52 283q1 160 -48 291q-27 71 -79 114t-123 43z" />
    <glyph glyph-name="one" unicode="1" horiz-adv-x="612" 
d="M489 0h-307v1028h-162v211l469 154v-1393z" />
    <glyph glyph-name="two" unicode="2" horiz-adv-x="1058" 
d="M977 0h-1008l551 705q4 5 29 35t58 73q52 69 53 146q2 75 -42 119t-114 44q-166 0 -174 -207h-289q4 213 125 355t330 143q210 0 334 -125t124 -327q0 -95 -23 -152t-35 -84t-45 -71q-32 -44 -62 -86t-87 -105l-147 -184h422v-279z" />
    <glyph glyph-name="three" unicode="3" horiz-adv-x="1103" 
d="M547 256q76 0 128 53t52 136t-51 128t-141 45h-127v238h127q69 0 101 43t32 107t-41 101q-41 36 -105 36q-145 0 -157 -148h-310q13 197 143 308t324 111t321 -101q128 -100 128 -301q0 -68 -35 -140t-92 -112q188 -88 188 -310t-139 -347q-139 -123 -353 -123t-357 103
q-142 104 -152 327h309q31 -154 207 -154z" />
    <glyph glyph-name="four" unicode="4" horiz-adv-x="1236" 
d="M1186 272h-197v-272h-305v272h-745l774 1121h276v-838h197v-283zM684 555v428l-285 -428h285z" />
    <glyph glyph-name="five" unicode="5" horiz-adv-x="1116" 
d="M1044 471q0 -225 -162 -358t-397 -133q-324 0 -505 311l237 164q121 -190 272 -191q104 0 178 51q73 51 73 158t-72 161t-179 54q-49 0 -172 -33l-155 117l172 621h655v-275h-440l-49 -188q266 26 405 -104t139 -355z" />
    <glyph glyph-name="six" unicode="6" horiz-adv-x="1161" 
d="M1090 456q0 -196 -150 -336t-361 -140q-210 0 -359 140q-148 140 -148 347q0 156 123 326l428 600h358l-322 -443q183 -20 307 -159t124 -335zM788 467q0 85 -60 143t-147 58t-147 -58t-59 -143q0 -84 59 -142q58 -59 146 -59t148 58t60 143z" />
    <glyph glyph-name="seven" unicode="7" horiz-adv-x="1124" 
d="M20 1393h1125l-754 -1393h-354l633 1110h-650v283z" />
    <glyph glyph-name="eight" unicode="8" horiz-adv-x="1138" 
d="M1067 457q-1 -205 -149 -341t-347 -136t-349 130t-150 334t153 324q-92 109 -92 244q0 172 133 286t303 115q170 0 302 -114q133 -114 133 -269t-93 -260q74 -51 115 -135t41 -178zM569 1145q-57 0 -100 -42q-43 -41 -43 -101t42 -101t100 -41t101 41q42 41 42 99
t-42 102q-43 43 -100 43zM568 643q-81 0 -136 -53t-55 -134q0 -80 55 -136t136 -56t138 55q56 55 56 137t-56 134q-57 53 -138 53z" />
    <glyph glyph-name="nine" unicode="9" horiz-adv-x="1161" 
d="M583 1413q210 0 358 -140t149 -347q0 -154 -121 -326l-428 -600h-361l322 442q-184 20 -307 160t-123 335q0 196 150 336q151 140 361 140zM581 725q87 0 147 58q60 59 60 143t-60 142t-147 58t-147 -58t-59 -142q0 -84 59 -143q60 -58 147 -58z" />
    <glyph glyph-name="colon" unicode=":" horiz-adv-x="626" 
d="M133 159q0 75 52 127t127 52t128 -52q54 -52 54 -127t-54 -127t-128 -52q-75 0 -127 52t-52 127zM133 873q0 75 52 127t127 52t128 -52q54 -52 54 -127t-54 -127t-128 -52q-75 0 -127 52t-52 127z" />
    <glyph glyph-name="semicolon" unicode=";" horiz-adv-x="626" 
d="M133 873q0 75 52 127t127 52t128 -52q54 -52 54 -127t-54 -127t-128 -52q-75 0 -127 52t-52 127zM496 279l-260 -553h-168l125 553h303z" />
    <glyph glyph-name="less" unicode="&#x3c;" horiz-adv-x="1087" 
d="M965 -92l-842 393v303l842 393v-243l-658 -301l658 -301v-244z" />
    <glyph glyph-name="equal" unicode="=" horiz-adv-x="696" 
d="M666 184h-635v170h635v-170zM666 553h-635v170h635v-170z" />
    <glyph glyph-name="greater" unicode="&#x3e;" horiz-adv-x="1087" 
d="M965 301l-842 -393v244l655 301l-655 301v243l842 -393v-303z" />
    <glyph glyph-name="question" unicode="?" horiz-adv-x="995" 
d="M664 1182q0 143 -172 143q-76 0 -122 -49t-38 -137h-260q2 205 118 311q118 106 302 106t308 -96t124 -278q0 -127 -103 -218q-43 -38 -86 -71q-102 -78 -102 -145v-306h-262v306q0 133 75 213q61 61 118 95q56 35 78 64t22 62zM326 159q0 75 52 127t127 52t127 -52
t52 -127t-52 -127t-127 -52t-127 52t-52 127z" />
    <glyph glyph-name="at" unicode="@" horiz-adv-x="1087" 
d="M934 733v-506h-180q-45 -16 -92 -16q-115 0 -196 83t-81 211t116 214t249 37q-29 61 -156 61t-214 -90t-87 -232q0 -143 101 -237t239 -94h293v-164h-293q-223 0 -372 134q-148 134 -148 356t136 368q136 145 363 146q134 0 228 -76t94 -195zM668 395q52 0 76 48
q24 49 -1 97t-75 48t-76 -30q-25 -30 -25 -66t25 -67q25 -30 76 -30z" />
    <glyph glyph-name="A" unicode="A" horiz-adv-x="1411" 
d="M1401 0h-330l-100 281h-531l-100 -281h-330l565 1393h261zM881 532l-176 496l-177 -496h353z" />
    <glyph glyph-name="B" unicode="B" horiz-adv-x="1128" 
d="M1108 399q0 -183 -113 -291t-309 -108h-563v1393h479q174 -1 282 -101t107 -248q0 -219 -166 -294q123 -28 203 -122t80 -229zM537 827q65 0 113 48t48 115t-48 114t-113 47h-107v-324h107zM625 240q70 0 120 49t50 118q-1 69 -51 119t-119 49h-195v-335h195z" />
    <glyph glyph-name="C" unicode="C" horiz-adv-x="1521" 
d="M788 -20q-296 0 -506 210t-210 506q0 297 210 507t506 210q236 0 422 -136t258 -353h-342q-43 92 -136 147t-202 55q-168 0 -286 -126t-119 -304q0 -178 119 -304t286 -126q109 0 203 58t137 149h342q-72 -217 -259 -355t-423 -138z" />
    <glyph glyph-name="D" unicode="D" horiz-adv-x="1300" 
d="M123 1393h414q295 0 493 -201t199 -496q0 -296 -199 -496t-493 -200h-414v1393zM426 283h92q174 1 286 119t111 294q0 176 -110 294q-111 118 -287 118h-92v-825z" />
    <glyph glyph-name="E" unicode="E" horiz-adv-x="1052" 
d="M930 279v-279h-807v1393h807v-279h-500v-276h479v-279h-479v-280h500z" />
    <glyph glyph-name="F" unicode="F" horiz-adv-x="1032" 
d="M909 559h-479v-559h-307v1393h807v-279h-500v-276h479v-279z" />
    <glyph glyph-name="G" unicode="G" horiz-adv-x="1605" 
d="M819 1126q-165 0 -285 -129t-120 -305t120 -305t285 -129q291 0 383 254h-354v231h686v-47q0 -297 -209 -507q-209 -209 -505 -209t-507 210t-211 506q0 295 211 506t506 211q229 0 419 -136t261 -353h-338q-47 104 -139 153t-203 49z" />
    <glyph glyph-name="H" unicode="H" horiz-adv-x="1339" 
d="M889 1393h328v-1393h-328v559h-459v-559h-307v1393h307v-555h459v555z" />
    <glyph glyph-name="I" unicode="I" horiz-adv-x="552" 
d="M430 0h-307v1393h307v-1393z" />
    <glyph glyph-name="J" unicode="J" horiz-adv-x="874" 
d="M238 274q176 0 211 115q16 55 16 158v846h307v-871q0 -286 -136 -414t-398 -128q-102 0 -197 22v375h6q54 -103 191 -103z" />
    <glyph glyph-name="K" unicode="K" horiz-adv-x="1263" 
d="M430 0h-307v1393h307v-623l440 623h394l-535 -697l555 -696h-414l-440 623v-623z" />
    <glyph glyph-name="L" unicode="L" horiz-adv-x="1001" 
d="M123 0v1393h307v-1114h500v-279h-807z" />
    <glyph glyph-name="M" unicode="M" horiz-adv-x="1869" 
d="M1860 0h-338l-164 961l-273 -961h-301l-272 961l-164 -961h-338l271 1393h364l291 -977l289 977h364z" />
    <glyph glyph-name="N" unicode="N" horiz-adv-x="1339" 
d="M1217 0h-308l-479 868v-868h-307v1393h307l479 -869v869h308v-1393z" />
    <glyph glyph-name="O" unicode="O" horiz-adv-x="1576" 
d="M1505 696q0 -288 -214 -502t-503 -214q-288 0 -502 214t-214 502t214 503q214 214 502 214t503 -214q214 -214 214 -503zM1198 698q0 162 -124 286t-286 124t-286 -124t-123 -286q0 -162 124 -286q123 -124 285 -125q162 1 286 125t124 286z" />
    <glyph glyph-name="P" unicode="P" horiz-adv-x="1101" 
d="M594 1151h-164v-412h164q74 1 129 57t55 148t-56 150t-128 57zM430 498v-498h-307v1393h522q174 0 300 -127t126 -326q0 -198 -125 -320t-301 -122h-215z" />
    <glyph glyph-name="Q" unicode="Q" horiz-adv-x="1589" 
d="M1587 244v-244h-633q-82 -20 -166 -20q-288 0 -502 214t-214 502t214 503q214 214 502 214t503 -214q214 -214 214 -509t-233 -516l149 70h166zM1198 698q0 162 -124 286t-286 124t-286 -124t-123 -286q0 -162 124 -286q123 -124 285 -125q162 1 286 125t124 286z" />
    <glyph glyph-name="R" unicode="R" horiz-adv-x="1128" 
d="M594 1151h-164v-412h164q74 1 129 57t55 148t-56 150t-128 57zM430 498v-498h-307v1393h522q174 0 300 -127q126 -126 126 -308t-89 -298t-228 -148l399 -512h-389l-332 498h-2z" />
    <glyph glyph-name="S" unicode="S" horiz-adv-x="1290" 
d="M648 217q106 0 185 40t78 124q0 61 -59 103q-60 42 -150 60q-194 40 -387 121q-90 37 -149 121t-60 205q0 201 156 312t377 111t378 -112q157 -110 165 -333h-297q-11 106 -73 149t-160 43t-163 -37q-66 -37 -65 -108q0 -95 160 -135q72 -19 158 -37t170 -48
q85 -30 157 -72t116 -121t44 -187q0 -227 -169 -338t-414 -111t-414 125t-171 367h312q6 -119 88 -181q81 -62 187 -61z" />
    <glyph glyph-name="T" unicode="T" horiz-adv-x="1122" 
d="M715 1114v-1114h-307v1114h-398v279h1102v-279h-397z" />
    <glyph glyph-name="U" unicode="U" horiz-adv-x="1335" 
d="M936 1393h307v-850q0 -274 -150 -419q-151 -144 -425 -144t-425 144t-151 419v850h307v-805q-1 -154 59 -228t211 -74t209 74t58 228v805z" />
    <glyph glyph-name="V" unicode="V" horiz-adv-x="1411" 
d="M1401 1393l-563 -1393h-265l-563 1393h332l287 -783l76 -219l75 219l289 783h332z" />
    <glyph glyph-name="W" unicode="W" horiz-adv-x="1869" 
d="M1860 1393l-271 -1393h-364l-289 977l-291 -977h-364l-271 1393h338l164 -961l272 961h301l273 -961l164 961h338z" />
    <glyph glyph-name="X" unicode="X" horiz-adv-x="1368" 
d="M1356 0h-375l-297 483l-297 -483h-375l484 696l-484 697h375l297 -484l297 484h375l-484 -697z" />
    <glyph glyph-name="Y" unicode="Y" horiz-adv-x="1368" 
d="M530 0v666l-514 727h367l301 -482l301 482h367l-514 -727v-666h-308z" />
    <glyph glyph-name="Z" unicode="Z" horiz-adv-x="1163" 
d="M1090 279v-279h-1049l582 1114h-541v279h1040l-581 -1114h549z" />
    <glyph glyph-name="bracketleft" unicode="[" horiz-adv-x="679" 
d="M412 -238h196v-213h-485v1987h485v-211h-196v-1563z" />
    <glyph glyph-name="backslash" unicode="\" horiz-adv-x="1060" 
d="M8 1536h283l786 -1962h-280z" />
    <glyph glyph-name="bracketright" unicode="]" horiz-adv-x="679" 
d="M72 -451v213h194v1563h-194v211h485v-1987h-485z" />
    <glyph glyph-name="asciicircum" unicode="^" horiz-adv-x="1157" 
d="M1143 653h-299l-264 561l-265 -561h-299l402 740h323z" />
    <glyph glyph-name="underscore" unicode="_" horiz-adv-x="1157" 
d="M1157 -340h-1157v211h1157v-211z" />
    <glyph glyph-name="grave" unicode="`" horiz-adv-x="673" 
d="M88 1903h262l242 -367h-230z" />
    <glyph glyph-name="a" unicode="a" 
d="M1137 901v-901h-308v109q-43 -66 -129 -98t-180 -31q-188 0 -318 140t-130 330t130 332t326 142t301 -131v108h308zM829 451q0 89 -62 157q-63 68 -153 68t-152 -68t-62 -158t62 -157q62 -68 152 -68t153 68q62 68 62 158z" />
    <glyph glyph-name="b" unicode="b" 
d="M430 0h-307v1536h307v-743q106 131 302 131t326 -142t130 -331q0 -191 -130 -331t-319 -140q-96 0 -181 32t-128 97v-109zM430 451q0 -90 62 -158t153 -68q90 0 153 68q62 68 62 158q0 89 -62 157t-152 68t-154 -68q-62 -68 -62 -157z" />
    <glyph glyph-name="c" unicode="c" horiz-adv-x="1130" 
d="M577 684q-87 0 -133 -72t-45 -164q0 -92 43 -164q44 -71 130 -71q174 0 190 123h299q-25 -156 -156 -256t-346 -100t-351 135t-136 335t140 336t357 138q217 0 353 -111t145 -272h-305q-4 67 -51 105t-134 38z" />
    <glyph glyph-name="d" unicode="d" 
d="M1137 1536v-1536h-308v109q-43 -66 -129 -98t-180 -31q-188 0 -318 140t-130 330t130 332t326 142t301 -131v743h308zM829 451q0 89 -62 157q-63 68 -153 68t-152 -68t-62 -158t62 -157q62 -68 152 -68t153 68q62 68 62 158z" />
    <glyph glyph-name="e" unicode="e" horiz-adv-x="1171" 
d="M397 414q1 -84 55 -150t136 -66t131 43q49 42 51 95h313q-39 -174 -169 -265t-316 -91q-236 0 -381 129t-145 341t148 343t370 131t366 -122t144 -331l-2 -57h-701zM805 559q1 21 -15 54q-16 34 -35 56t-59 40t-110 18q-68 0 -118 -42t-58 -83l-9 -43h404z" />
    <glyph glyph-name="f" unicode="f" horiz-adv-x="743" 
d="M481 1536h228v-240h-131q-47 0 -64 -27q-16 -28 -16 -95v-271h211v-237h-211v-666h-308v666h-129v237h129v307q0 160 81 243t210 83z" />
    <glyph glyph-name="g" unicode="g" 
d="M829 903h308v-901q0 -222 -153 -368t-364 -146q-212 0 -368 102t-166 295h307q17 -78 73 -124t143 -46t154 76t66 176v144q-43 -66 -129 -99t-180 -32q-188 0 -318 141t-130 331t130 331t322 141t305 -131v110zM614 225q90 0 153 68q62 68 62 159q0 90 -62 158
q-63 68 -153 68t-152 -68t-62 -158t62 -159q62 -68 152 -68z" />
    <glyph glyph-name="h" unicode="h" horiz-adv-x="1138" 
d="M1047 512v-512h-308v512q0 164 -137 164q-72 0 -122 -67t-50 -158v-451h-307v1536h307v-743q104 131 278 131t256 -110q83 -110 83 -302z" />
    <glyph glyph-name="i" unicode="i" horiz-adv-x="573" 
d="M440 0h-307v903h307v-903zM286 1032q-76 0 -128 53t-52 128t52 127t128 52q75 0 128 -52t53 -127t-53 -128t-128 -53z" />
    <glyph glyph-name="j" unicode="j" horiz-adv-x="573" 
d="M287 1032q-73 0 -127 53t-54 128t54 127t127 52q74 0 127 -52t53 -127t-53 -128t-127 -53zM123 -112v1015h328v-971q-1 -186 -89 -315t-264 -129q-73 0 -147 25v294q45 -33 85 -33t56 16q31 27 31 98z" />
    <glyph glyph-name="k" unicode="k" horiz-adv-x="1079" 
d="M430 0h-307v1536h307v-991l289 358h381l-389 -430l430 -473h-393l-318 399v-399z" />
    <glyph glyph-name="l" unicode="l" horiz-adv-x="552" 
d="M430 0h-307v1536h307v-1536z" />
    <glyph glyph-name="m" unicode="m" horiz-adv-x="1730" 
d="M1034 459v-459h-307v500q0 176 -131 176q-72 0 -119 -74t-47 -151v-451h-307v903h307v-110q104 131 250 131q184 0 281 -154q121 154 329 154q170 0 259 -120t89 -304v-500h-307v500q0 176 -131 176q-82 0 -124 -64t-42 -153z" />
    <glyph glyph-name="n" unicode="n" horiz-adv-x="1138" 
d="M1047 512v-512h-308v512q0 164 -137 164q-72 0 -122 -67t-50 -158v-451h-307v903h307v-110q104 131 278 131t256 -110q83 -110 83 -302z" />
    <glyph glyph-name="o" unicode="o" horiz-adv-x="1173" 
d="M587 922q215 0 365 -132t150 -341t-146 -338t-368 -129q-221 0 -369 128q-147 128 -147 338t149 342q150 132 366 132zM587 213q114 0 162 68t48 167q0 98 -49 166t-160 68t-161 -68t-50 -166t48 -167q48 -68 162 -68z" />
    <glyph glyph-name="p" unicode="p" 
d="M430 -512h-307v1415h307v-110q106 131 302 131t326 -142t130 -331q0 -191 -130 -331t-319 -140q-96 0 -181 32t-128 97v-621zM430 451q0 -90 62 -158t153 -68q90 0 153 68q62 68 62 158q0 89 -62 157t-152 68t-154 -68q-62 -68 -62 -157z" />
    <glyph glyph-name="q" unicode="q" 
d="M1137 903v-1415h-308v621q-43 -66 -129 -98t-180 -31q-188 0 -318 140t-130 330t130 332t326 142t301 -131v110h308zM829 451q0 89 -62 157q-63 68 -153 68t-152 -68t-62 -158t62 -157q62 -68 152 -68t153 68q62 68 62 158z" />
    <glyph glyph-name="r" unicode="r" horiz-adv-x="780" 
d="M631 676q-81 0 -141 -71t-60 -154v-451h-307v903h307v-110q92 131 238 131q51 0 92 -21v-278h-4q-43 51 -125 51z" />
    <glyph glyph-name="s" unicode="s" horiz-adv-x="1034" 
d="M389 651q1 -35 61 -52t145 -29t171 -38q86 -24 146 -90t61 -172q0 -291 -445 -290q-213 0 -344 87t-143 269h305q0 -143 189 -143q55 0 92 20t37 63t-60 71t-146 40q-85 11 -171 31q-87 20 -147 74t-60 145q0 287 440 287q186 0 303 -72t135 -223h-301q-6 55 -49 80
t-93 25t-88 -24t-38 -59z" />
    <glyph glyph-name="t" unicode="t" horiz-adv-x="714" 
d="M510 666v-666h-305v666h-164v237h164v344h305v-344h164v-237h-164z" />
    <glyph glyph-name="u" unicode="u" horiz-adv-x="1148" 
d="M102 389v514h308v-514q0 -164 137 -164q72 0 122 67t50 159v452h307v-903h-307v111q-103 -131 -277 -131t-257 108t-83 301z" />
    <glyph glyph-name="v" unicode="v" horiz-adv-x="1009" 
d="M1030 903l-344 -903h-362l-344 903h309l215 -645l215 645h311z" />
    <glyph glyph-name="w" unicode="w" horiz-adv-x="1607" 
d="M1645 903l-318 -903h-350l-176 563l-174 -563h-353l-311 903h336l184 -590l199 590h238l200 -590l187 590h338z" />
    <glyph glyph-name="x" unicode="x" horiz-adv-x="1044" 
d="M-12 901h356l178 -276l178 276h357l-338 -446l366 -455h-374l-189 279l-188 -279h-375l367 455z" />
    <glyph glyph-name="y" unicode="y" horiz-adv-x="1009" 
d="M489 -512h-319l205 512h-51l-344 903h309l215 -645l215 645h311z" />
    <glyph glyph-name="z" unicode="z" horiz-adv-x="991" 
d="M961 244v-244h-951l475 670h-434v233h905l-434 -659h439z" />
    <glyph glyph-name="braceleft" unicode="{" horiz-adv-x="757" 
d="M199 -100v434q0 55 -105 82v264q61 16 83 39t22 82v393q0 346 258 346l172 -6v-293h-48q-45 0 -51 -4t-15 -8t-11 -11t-7 -21t-5 -56v-355q0 -143 -99 -247q98 -102 99 -195v-397q0 -95 14 -101t40 -6t83 4v-301q-20 2 -58 2l-116 -4q-256 0 -256 359z" />
    <glyph glyph-name="bar" unicode="|" horiz-adv-x="552" 
d="M410 -461h-267v1997h267v-1997z" />
    <glyph glyph-name="braceright" unicode="}" horiz-adv-x="731" 
d="M524 1194v-393q0 -59 22 -82t83 -39v-264q-104 -27 -105 -82v-434q0 -359 -256 -359l-174 2v301q57 -4 83 -4t36 4q20 8 20 103v397q0 51 48 102q21 24 90 93q-137 141 -138 247v355q0 42 -5 55q-5 14 -7 22t-12 11q-10 4 -13 7q-5 5 -38 5h-64v293l172 6q258 0 258 -346
z" />
    <glyph glyph-name="asciitilde" unicode="~" horiz-adv-x="1343" 
d="M880 1174q-88 0 -230 58t-216 58q-45 0 -85 -50t-60 -103l-187 112q62 105 158 197t188 92t236 -57t200 -57t98 43q42 44 65 96l194 -111q-69 -102 -171 -190t-190 -88z" />
    <glyph glyph-name="uni00A0" unicode="&#xa0;" horiz-adv-x="512" 
 />
    <glyph glyph-name="yen" unicode="&#xa5;" 
 />
    <glyph glyph-name="dieresis" unicode="&#xa8;" horiz-adv-x="1107" 
d="M106 1779q0 75 52 127t128 52q75 0 128 -52t53 -127t-53 -128t-128 -53q-76 0 -128 52q-52 54 -52 129zM643 1779q0 75 52 127t127 52t128 -52q54 -52 54 -127t-54 -128t-128 -53q-75 0 -127 52q-52 54 -52 129z" />
    <glyph glyph-name="copyright" unicode="&#xa9;" horiz-adv-x="1488" 
d="M739 983q-88 0 -151 -62q-64 -63 -64 -149t64 -148t151 -63q127 0 189 86h176q-26 -64 -86 -127q-114 -119 -275 -119q-163 0 -275 110q-112 109 -112 261t113 262t276 109q163 0 261 -104q73 -78 100 -146h-176q-70 90 -191 90zM1438 768q0 -276 -204 -473t-490 -197
t-490 197t-203 473q0 276 204 473q203 197 489 197t490 -197t204 -473zM1257 768q0 205 -150 349q-151 145 -363 145t-362 -144t-151 -350q0 -205 151 -349q150 -145 362 -145t362 144t151 350z" />
    <glyph glyph-name="registered" unicode="&#xae;" horiz-adv-x="1488" 
d="M1438 768q0 -276 -204 -473t-490 -197t-490 197t-203 473q0 276 204 473q203 197 489 197t490 -197t204 -473zM1257 768q0 205 -150 349q-151 145 -363 145t-362 -144t-151 -350q0 -205 151 -349q150 -145 362 -145t362 144t151 350zM688 700v-278h-147v692h217
q98 0 170 -61t72 -155t-128 -173l177 -303h-183l-129 278h-49zM758 987h-70v-162h70q38 0 66 23q28 24 28 58t-26 58t-68 23z" />
    <glyph glyph-name="degree" unicode="&#xb0;" horiz-adv-x="901" 
d="M451 1413q159 0 269 -96t110 -251t-110 -249q-108 -94 -270 -94t-270 94t-108 249t109 251q110 96 270 96zM451 893q154 0 153 172q0 74 -37 124t-117 50t-116 -50q-37 -50 -37 -124q0 -172 154 -172z" />
    <glyph glyph-name="acute" unicode="&#xb4;" horiz-adv-x="673" 
d="M592 1903l-275 -367h-229l242 367h262z" />
    <glyph glyph-name="paragraph" unicode="&#xb6;" horiz-adv-x="1024" 
d="M850 1393v-1393h-121v1274h-119v-1274h-118v430q-188 29 -315 161q-126 131 -126 325q1 194 145 335t345 142h309z" />
    <glyph glyph-name="cedilla" unicode="&#xb8;" horiz-adv-x="1103" 
d="M516 20h131l-88 -188q41 10 78 2q65 -14 91 -89t-4 -148t-102 -103q-147 -62 -329 17l55 116q43 -18 98 -26q106 -16 144 43q27 43 -10 71q-14 10 -33 15q-41 0 -45 1t-47 -6t-47 -8l-29 -6z" />
    <glyph glyph-name="ordmasculine" unicode="&#xba;" horiz-adv-x="1173" 
d="M588 1845q160 0 235 -120q37 -58 37 -132t-37 -131q-77 -118 -235 -116q-119 0 -197 68t-78 180q0 110 80 180t195 71zM596 1718q-121 0 -121 -125t112 -125t111 125q0 51 -26 88q-27 37 -76 37z" />
    <glyph glyph-name="Agrave" unicode="&#xc0;" horiz-adv-x="1411" 
d="M1401 0h-330l-100 281h-531l-100 -281h-330l565 1393h261zM881 532l-176 496l-177 -496h353zM313 1903h262l242 -367h-229z" />
    <glyph glyph-name="Aacute" unicode="&#xc1;" horiz-adv-x="1411" 
d="M1401 0h-330l-100 281h-531l-100 -281h-330l565 1393h261zM881 532l-176 496l-177 -496h353zM1106 1903l-275 -367h-229l242 367h262z" />
    <glyph glyph-name="Acircumflex" unicode="&#xc2;" horiz-adv-x="1411" 
d="M1401 0h-330l-100 281h-531l-100 -281h-330l565 1393h261zM881 532l-176 496l-177 -496h353zM825 1964l262 -428h-229l-153 309l-154 -309h-229l262 428h241z" />
    <glyph glyph-name="Atilde" unicode="&#xc3;" horiz-adv-x="1411" 
d="M1401 0h-330l-100 281h-531l-100 -281h-330l565 1393h261zM881 532l-176 496l-177 -496h353zM913 1772h185q0 -133 -66 -213t-180 -80q-58 -1 -108 27t-93 56t-87 28t-66 -34q-22 -33 -21 -65h-174q0 115 67 205t181 90q82 0 210 -78q42 -26 63 -25q64 0 81 40q8 20 8 49
z" />
    <glyph glyph-name="Adieresis" unicode="&#xc4;" horiz-adv-x="1411" 
d="M1401 0h-330l-100 281h-531l-100 -281h-330l565 1393h261zM881 532l-176 496l-177 -496h353zM256 1738q0 75 52 127t127 52t128 -52t53 -127t-53 -128q-53 -54 -128 -54t-127 54t-52 128zM793 1738q0 75 52 127t127 52t128 -52t53 -127t-53 -128q-53 -54 -128 -54
t-127 54t-52 128z" />
    <glyph glyph-name="Aring" unicode="&#xc5;" horiz-adv-x="1411" 
d="M881 532l-176 496l-177 -496h353zM712 1718q-120 0 -120 -125t112 -125t111 125q0 51 -27 88q-28 37 -76 37zM430 1595q0 109 80 179t195 71q160 0 235 -120q37 -58 37 -130q0 -152 -135 -219l559 -1376h-330l-100 281h-531l-100 -281h-330l557 1374q-137 67 -137 221z
" />
    <glyph glyph-name="AE" unicode="&#xc6;" horiz-adv-x="1607" 
d="M684 532v566l-156 -566h156zM1470 279v-279h-786v281h-244l-100 -281h-330l565 1393h895v-279h-499v-276h479v-279h-479v-280h499z" />
    <glyph glyph-name="Ccedilla" unicode="&#xc7;" horiz-adv-x="1521" 
d="M72 696q0 297 210 507t506 210q236 0 422 -136t258 -353h-342q-43 92 -136 147t-202 55q-168 0 -286 -126t-119 -304q0 -178 119 -304t286 -126q109 0 203 58t137 149h342q-68 -209 -244 -345t-399 -146l-59 -129q41 10 78 2q66 -14 92 -89t-5 -148q-30 -74 -103 -104
q-139 -58 -312 11l-16 6l55 117q42 -18 98 -27q106 -16 144 43q27 43 -11 72q-14 10 -32 14q-41 0 -45 1t-47 -6t-48 -7l-28 -6l112 254q-174 20 -318 119t-227 255t-83 336z" />
    <glyph glyph-name="Egrave" unicode="&#xc8;" horiz-adv-x="1052" 
d="M930 279v-279h-807v1393h807v-279h-500v-276h479v-279h-479v-280h500zM211 1903h262l242 -367h-230z" />
    <glyph glyph-name="Eacute" unicode="&#xc9;" horiz-adv-x="1052" 
d="M930 279v-279h-807v1393h807v-279h-500v-276h479v-279h-479v-280h500zM928 1903l-275 -367h-229l242 367h262z" />
    <glyph glyph-name="Ecircumflex" unicode="&#xca;" horiz-adv-x="1052" 
d="M930 279v-279h-807v1393h807v-279h-500v-276h479v-279h-479v-280h500zM641 1964l262 -428h-229l-154 309l-153 -309h-230l262 428h242z" />
    <glyph glyph-name="Edieresis" unicode="&#xcb;" horiz-adv-x="1052" 
d="M930 279v-279h-807v1393h807v-279h-500v-276h479v-279h-479v-280h500zM80 1738q0 75 52 127t127 52t128 -52t53 -127t-53 -128q-53 -54 -128 -54t-127 54t-52 128zM616 1738q0 75 52 127t128 52q75 0 128 -52t53 -127t-53 -128q-53 -54 -128 -54q-76 0 -128 54t-52 128z
" />
    <glyph glyph-name="Igrave" unicode="&#xcc;" horiz-adv-x="552" 
d="M430 0h-307v1393h307v-1393zM-117 1903h262l242 -367h-229z" />
    <glyph glyph-name="Iacute" unicode="&#xcd;" horiz-adv-x="552" 
d="M430 0h-307v1393h307v-1393zM676 1903l-275 -367h-229l242 367h262z" />
    <glyph glyph-name="Icircumflex" unicode="&#xce;" horiz-adv-x="552" 
d="M430 0h-307v1393h307v-1393zM397 1964l262 -428h-229l-154 309l-153 -309h-229l262 428h241z" />
    <glyph glyph-name="Idieresis" unicode="&#xcf;" horiz-adv-x="552" 
d="M430 0h-307v1393h307v-1393zM-172 1738q0 75 52 127t127 52t128 -52t53 -127t-53 -128q-53 -54 -128 -54t-127 54t-52 128zM365 1738q0 75 52 127t127 52t128 -52t53 -127t-53 -128q-53 -54 -128 -54t-127 54t-52 128z" />
    <glyph glyph-name="Eth" unicode="&#xd0;" horiz-adv-x="1300" 
d="M426 283h92q174 1 286 119t111 294q0 176 -110 294q-111 118 -287 118h-92v-338h332v-170h-332v-317zM123 1393h414q295 0 493 -201t199 -496q0 -296 -199 -496t-493 -200h-414v600h-123v170h123v623z" />
    <glyph glyph-name="Ntilde" unicode="&#xd1;" horiz-adv-x="1339" 
d="M1217 0h-308l-479 868v-868h-307v1393h307l479 -869v869h308v-1393zM913 1772h185q0 -133 -66 -213t-180 -80q-58 -1 -108 27t-93 56t-87 28t-66 -34q-22 -33 -21 -65h-174q0 115 67 205t181 90q82 0 210 -78q42 -26 63 -25q64 0 81 40q8 20 8 49z" />
    <glyph glyph-name="Ograve" unicode="&#xd2;" horiz-adv-x="1576" 
d="M1505 696q0 -288 -214 -502t-503 -214q-288 0 -502 214t-214 502t214 503q214 214 502 214t503 -214q214 -214 214 -503zM1198 698q0 162 -124 286t-286 124t-286 -124t-123 -286q0 -162 124 -286q123 -124 285 -125q162 1 286 125t124 286zM395 1903h262l242 -367h-229z
" />
    <glyph glyph-name="Oacute" unicode="&#xd3;" horiz-adv-x="1576" 
d="M1505 696q0 -288 -214 -502t-503 -214q-288 0 -502 214t-214 502t214 503q214 214 502 214t503 -214q214 -214 214 -503zM1198 698q0 162 -124 286t-286 124t-286 -124t-123 -286q0 -162 124 -286q123 -124 285 -125q162 1 286 125t124 286zM1163 1903l-274 -367h-230
l242 367h262z" />
    <glyph glyph-name="Ocircumflex" unicode="&#xd4;" horiz-adv-x="1576" 
d="M1505 696q0 -288 -214 -502t-503 -214q-288 0 -502 214t-214 502t214 503q214 214 502 214t503 -214q214 -214 214 -503zM1198 698q0 162 -124 286t-286 124t-286 -124t-123 -286q0 -162 124 -286q123 -124 285 -125q162 1 286 125t124 286zM907 1964l262 -428h-229
l-154 309l-153 -309h-230l263 428h241z" />
    <glyph glyph-name="Otilde" unicode="&#xd5;" horiz-adv-x="1576" 
d="M1505 696q0 -288 -214 -502t-503 -214q-288 0 -502 214t-214 502t214 503q214 214 502 214t503 -214q214 -214 214 -503zM1198 698q0 162 -124 286t-286 124t-286 -124t-123 -286q0 -162 124 -286q123 -124 285 -125q162 1 286 125t124 286zM995 1772h185
q0 -133 -66 -213t-180 -80q-58 -1 -108 27t-93 56t-87 28t-66 -34q-22 -33 -21 -65h-174q0 163 112 250q59 45 127 45t122 -26t96 -52t64 -25q64 0 81 40q8 20 8 49z" />
    <glyph glyph-name="Odieresis" unicode="&#xd6;" horiz-adv-x="1576" 
d="M1505 696q0 -288 -214 -502t-503 -214q-288 0 -502 214t-214 502t214 503q214 214 502 214t503 -214q214 -214 214 -503zM1198 698q0 162 -124 286t-286 124t-286 -124t-123 -286q0 -162 124 -286q123 -124 285 -125q162 1 286 125t124 286zM338 1738q0 75 52 127t127 52
t128 -52t53 -127t-53 -128q-53 -54 -128 -54t-127 54t-52 128zM874 1738q0 75 52 127t128 52q75 0 128 -52t53 -127t-53 -128q-53 -54 -128 -54q-76 0 -128 54t-52 128z" />
    <glyph glyph-name="multiply" unicode="&#xd7;" horiz-adv-x="901" 
d="M332 453l-238 237l119 119l238 -236l237 236l119 -119l-238 -237l238 -238l-119 -119l-237 238l-238 -238l-119 119z" />
    <glyph glyph-name="Oslash" unicode="&#xd8;" horiz-adv-x="1576" 
d="M1198 698q0 119 -72 224l-567 -560q109 -76 229 -75q162 0 286 125t124 286zM788 1108q-162 0 -286 -124t-123 -286q-1 -115 67 -217l564 555q-104 72 -222 72zM788 1413q244 0 443 -160l164 162l116 -115l-165 -161q160 -199 159 -443q0 -188 -98 -354t-264 -264
t-355 -98q-250 0 -450 165l-156 -153l-116 114l159 156q-154 197 -153 434q0 188 98 354t264 265q166 98 354 98z" />
    <glyph glyph-name="Ugrave" unicode="&#xd9;" horiz-adv-x="1335" 
d="M936 1393h307v-850q0 -274 -150 -419q-151 -144 -425 -144t-425 144t-151 419v850h307v-805q-1 -154 59 -228t211 -74t209 74t58 228v805zM272 1903h263l241 -367h-229z" />
    <glyph glyph-name="Uacute" unicode="&#xda;" horiz-adv-x="1335" 
d="M936 1393h307v-850q0 -274 -150 -419q-151 -144 -425 -144t-425 144t-151 419v850h307v-805q-1 -154 59 -228t211 -74t209 74t58 228v805zM1026 1903l-274 -367h-230l242 367h262z" />
    <glyph glyph-name="Ucircumflex" unicode="&#xdb;" horiz-adv-x="1335" 
d="M936 1393h307v-850q0 -274 -150 -419q-151 -144 -425 -144t-425 144t-151 419v850h307v-805q-1 -154 59 -228t211 -74t209 74t58 228v805zM784 1964l263 -428h-230l-153 309l-154 -309h-229l262 428h241z" />
    <glyph glyph-name="Udieresis" unicode="&#xdc;" horiz-adv-x="1335" 
d="M936 1393h307v-850q0 -274 -150 -419q-151 -144 -425 -144t-425 144t-151 419v850h307v-805q-1 -154 59 -228t211 -74t209 74t58 228v805zM223 1738q0 75 52 127t127 52t128 -52q54 -52 54 -127t-54 -128q-54 -54 -128 -54q-75 0 -127 54t-52 128zM760 1738q0 75 52 127
t127 52t128 -52t53 -127t-53 -128q-53 -54 -128 -54t-127 54t-52 128z" />
    <glyph glyph-name="Yacute" unicode="&#xdd;" horiz-adv-x="1368" 
d="M530 0v666l-514 727h367l301 -482l301 482h367l-514 -727v-666h-308zM1085 1903l-274 -367h-229l241 367h262z" />
    <glyph glyph-name="Thorn" unicode="&#xde;" horiz-adv-x="1101" 
d="M430 1008v-412h164q74 0 129 56t55 148t-56 150q-56 57 -128 58h-164zM430 1249h215q174 0 300 -127q126 -128 126 -326t-125 -320t-301 -122h-215v-354h-307v1536h307v-287z" />
    <glyph glyph-name="germandbls" unicode="&#xdf;" horiz-adv-x="1128" 
d="M504 575v252h33q55 -1 108 49t53 116t-40 113q-40 46 -102 46t-94 -42t-32 -85v-1024h-307v950q0 221 107 332q108 111 352 111q176 1 292 -101t117 -248q0 -219 -166 -294q123 -29 203 -122t80 -229q0 -179 -118 -289t-304 -110h-184q-2 236 0 240h123q57 0 113 51
t56 118t-50 117t-119 49h-121z" />
    <glyph glyph-name="agrave" unicode="&#xe0;" 
d="M1137 901v-901h-308v109q-43 -66 -129 -98t-180 -31q-188 0 -318 140t-130 330t130 332t326 142t301 -131v108h308zM829 451q0 89 -62 157q-63 68 -153 68t-152 -68t-62 -158t62 -157q62 -68 152 -68t153 68q62 68 62 158zM164 1442h262l242 -367h-230z" />
    <glyph glyph-name="aacute" unicode="&#xe1;" 
d="M1137 901v-901h-308v109q-43 -66 -129 -98t-180 -31q-188 0 -318 140t-130 330t130 332t326 142t301 -131v108h308zM829 451q0 89 -62 157q-63 68 -153 68t-152 -68t-62 -158t62 -157q62 -68 152 -68t153 68q62 68 62 158zM907 1442l-274 -367h-230l242 367h262z" />
    <glyph glyph-name="acircumflex" unicode="&#xe2;" 
d="M1137 901v-901h-308v109q-43 -66 -129 -98t-180 -31q-188 0 -318 140t-130 330t130 332t326 142t301 -131v108h308zM829 451q0 89 -62 157q-63 68 -153 68t-152 -68t-62 -158t62 -157q62 -68 152 -68t153 68q62 68 62 158zM707 1503l262 -428h-230l-153 309l-154 -309
h-229l262 428h242z" />
    <glyph glyph-name="atilde" unicode="&#xe3;" 
d="M1137 901v-901h-308v109q-43 -66 -129 -98t-180 -31q-188 0 -318 140t-130 330t130 332t326 142t301 -131v108h308zM829 451q0 89 -62 157q-63 68 -153 68t-152 -68t-62 -158t62 -157q62 -68 152 -68t153 68q62 68 62 158zM784 1358h185q0 -133 -66 -213t-180 -80
q-59 0 -109 28q-50 27 -92 55q-43 28 -87 28q-43 0 -65 -33t-22 -66h-174q0 115 67 205t167 90t224 -77q42 -25 63 -25q65 2 81 40q8 19 8 48z" />
    <glyph glyph-name="adieresis" unicode="&#xe4;" 
d="M1137 901v-901h-308v109q-43 -66 -129 -98t-180 -31q-188 0 -318 140t-130 330t130 332t326 142t301 -131v108h308zM829 451q0 89 -62 157q-63 68 -153 68t-152 -68t-62 -158t62 -157q62 -68 152 -68t153 68q62 68 62 158zM80 1213q0 75 52 127t127 52t128 -52t53 -127
t-53 -128t-128 -53t-127 53t-52 128zM796 1032q-76 0 -128 53t-52 128t52 127t128 52q75 0 128 -52t53 -127t-53 -128t-128 -53z" />
    <glyph glyph-name="aring" unicode="&#xe5;" 
d="M1137 901v-901h-308v109q-43 -66 -129 -98t-180 -31q-188 0 -318 140t-130 330t130 332t326 142t301 -131v108h308zM829 451q0 89 -62 157q-63 68 -153 68t-152 -68t-62 -158t62 -157q62 -68 152 -68t153 68q62 68 62 158zM567 1526q115 0 194 -71t79 -181t-78 -180
q-78 -68 -176 -68t-158 30q-61 30 -98 87t-37 133q-1 110 79 180t195 70zM566 1149q112 0 112 125q0 51 -27 88t-85 37t-85 -37t-26 -88q-1 -125 111 -125z" />
    <glyph glyph-name="ae" unicode="&#xe6;" horiz-adv-x="1839" 
d="M1466 559q0 20 -15 54t-35 56t-59 40q-40 18 -92 18q-51 0 -93 -17t-61 -42q-41 -54 -48 -109h403zM1059 414q0 -84 54 -150t136 -66t131 43q49 42 52 95h313q-39 -174 -169 -265t-316 -91q-256 0 -404 149q-162 -150 -457 -149q-141 0 -229 76t-88 214q0 96 53 177
t141 118h455v6q0 99 -137 132q-137 32 -221 -76l-246 98q65 96 181 147t243 52q213 0 340 -123q145 123 365 123t362 -122q143 -122 143 -331l-2 -57h-700zM401 295q0 -117 129 -117t234 98q-23 55 -29 119l-4 6h-264q-66 -41 -66 -106z" />
    <glyph glyph-name="ccedilla" unicode="&#xe7;" horiz-adv-x="1130" 
d="M577 684q-87 0 -133 -72t-45 -147q-1 -75 15 -125t59 -88q43 -39 114 -39t119 32t56 91h299q-23 -145 -140 -244q-118 -98 -303 -110l-59 -129q41 10 78 2q65 -14 91 -89t-4 -148q-30 -74 -102 -104q-139 -58 -313 11l-16 6l55 117q42 -18 98 -27q106 -16 144 43
q27 43 -10 72q-14 10 -33 14q-41 0 -45 1t-47 -6t-47 -7l-29 -6l113 252q-195 26 -308 156q-112 130 -112 320t140 326t357 138q217 0 353 -111t145 -272h-305q-4 67 -51 105t-134 38z" />
    <glyph glyph-name="egrave" unicode="&#xe8;" horiz-adv-x="1171" 
d="M397 414q1 -84 55 -150t136 -66t131 43q49 42 51 95h313q-39 -174 -169 -265t-316 -91q-236 0 -381 129t-145 341t148 343t370 131t366 -122t144 -331l-2 -57h-701zM805 559q1 21 -15 54q-16 34 -35 56t-59 40t-110 18q-68 0 -118 -42t-58 -83l-9 -43h404zM225 1442h262
l242 -367h-229z" />
    <glyph glyph-name="eacute" unicode="&#xe9;" horiz-adv-x="1171" 
d="M397 414q1 -84 55 -150t136 -66t131 43q49 42 51 95h313q-39 -174 -169 -265t-316 -91q-236 0 -381 129t-145 341t148 343t370 131t366 -122t144 -331l-2 -57h-701zM805 559q1 21 -15 54q-16 34 -35 56t-59 40t-110 18q-68 0 -118 -42t-58 -83l-9 -43h404zM991 1442
l-274 -367h-230l242 367h262z" />
    <glyph glyph-name="ecircumflex" unicode="&#xea;" horiz-adv-x="1171" 
d="M397 414q1 -84 55 -150t136 -66t131 43q49 42 51 95h313q-39 -174 -169 -265t-316 -91q-236 0 -381 129t-145 341t148 343t370 131t366 -122t144 -331l-2 -57h-701zM805 559q1 21 -15 54q-16 34 -35 56t-59 40t-110 18q-68 0 -118 -42t-58 -83l-9 -43h404zM727 1503
l262 -428h-229l-154 309l-153 -309h-230l262 428h242z" />
    <glyph glyph-name="edieresis" unicode="&#xeb;" horiz-adv-x="1171" 
d="M397 414q1 -84 55 -150t136 -66t131 43q49 42 51 95h313q-39 -174 -169 -265t-316 -91q-236 0 -381 129t-145 341t148 343t370 131t366 -122t144 -331l-2 -57h-701zM805 559q1 21 -15 54q-16 34 -35 56t-59 40t-110 18q-68 0 -118 -42t-58 -83l-9 -43h404zM135 1213
q0 75 52 127t127 52t128 -52q54 -52 54 -127t-54 -128t-128 -53q-75 0 -127 53t-52 128zM672 1213q0 75 52 127t127 52t128 -52t53 -127t-53 -128t-128 -53t-127 53t-52 128z" />
    <glyph glyph-name="igrave" unicode="&#xec;" horiz-adv-x="573" 
d="M440 0h-307v903h307v-903zM-106 1442h262l241 -367h-229z" />
    <glyph glyph-name="iacute" unicode="&#xed;" horiz-adv-x="573" 
d="M440 0h-307v903h307v-903zM684 1442l-274 -367h-230l242 367h262z" />
    <glyph glyph-name="icircumflex" unicode="&#xee;" horiz-adv-x="573" 
d="M440 0h-307v903h307v-903zM408 1503l262 -428h-230l-153 309l-154 -309h-229l262 428h242z" />
    <glyph glyph-name="idieresis" unicode="&#xef;" horiz-adv-x="573" 
d="M440 0h-307v903h307v-903zM-162 1213q0 75 52 127t127 52t128 -52t53 -127t-52 -128q-54 -53 -129 -53t-127 53t-52 128zM375 1213q0 75 52 127t127 52t128 -52t53 -127t-53 -128t-128 -53t-127 53t-52 128z" />
    <glyph glyph-name="eth" unicode="&#xf0;" 
d="M829 1073h-327v170h327v293h308v-293h123v-170h-123v-1073h-308v109q-43 -66 -129 -98t-180 -31q-188 0 -318 140t-130 330t130 332t326 142t301 -131v280zM829 451q0 89 -62 157q-63 68 -153 68t-152 -68t-62 -158t62 -157q62 -68 152 -68t153 68q62 68 62 158z" />
    <glyph glyph-name="ntilde" unicode="&#xf1;" horiz-adv-x="1138" 
d="M1047 512v-512h-308v512q0 164 -137 164q-72 0 -122 -67t-50 -158v-451h-307v903h307v-110q104 131 278 131t256 -110q83 -110 83 -302zM883 1358h184q0 -133 -66 -213t-180 -80q-59 0 -108 28q-49 27 -92 55t-87 28t-66 -33t-22 -66h-174q0 115 67 205t167 90t224 -77
q42 -25 64 -25q65 2 80 40q9 19 9 48z" />
    <glyph glyph-name="ograve" unicode="&#xf2;" horiz-adv-x="1173" 
d="M587 922q215 0 365 -132t150 -341t-146 -338t-368 -129q-221 0 -369 128q-147 128 -147 338t149 342q150 132 366 132zM587 213q114 0 162 68t48 167q0 98 -49 166t-160 68t-161 -68t-50 -166t48 -167q48 -68 162 -68zM201 1442h262l242 -367h-230z" />
    <glyph glyph-name="oacute" unicode="&#xf3;" horiz-adv-x="1173" 
d="M587 922q215 0 365 -132t150 -341t-146 -338t-368 -129q-221 0 -369 128q-147 128 -147 338t149 342q150 132 366 132zM587 213q114 0 162 68t48 167q0 98 -49 166t-160 68t-161 -68t-50 -166t48 -167q48 -68 162 -68zM971 1442l-275 -367h-229l242 367h262z" />
    <glyph glyph-name="ocircumflex" unicode="&#xf4;" horiz-adv-x="1173" 
d="M587 922q215 0 365 -132t150 -341t-146 -338t-368 -129q-221 0 -369 128q-147 128 -147 338t149 342q150 132 366 132zM587 213q114 0 162 68t48 167q0 98 -49 166t-160 68t-161 -68t-50 -166t48 -167q48 -68 162 -68zM709 1503l262 -428h-230l-153 309l-154 -309h-229
l262 428h242z" />
    <glyph glyph-name="otilde" unicode="&#xf5;" horiz-adv-x="1173" 
d="M587 922q215 0 365 -132t150 -341t-146 -338t-368 -129q-221 0 -369 128q-147 128 -147 338t149 342q150 132 366 132zM587 213q114 0 162 68t48 167q0 98 -49 166t-160 68t-161 -68t-50 -166t48 -167q48 -68 162 -68zM799 1358h184q1 -133 -65 -213t-181 -80
q-59 0 -108 28q-49 27 -92 55t-87 28t-66 -33t-22 -66h-174q0 115 67 205t167 90t224 -77q42 -25 64 -25q64 1 81 40q8 19 8 48z" />
    <glyph glyph-name="odieresis" unicode="&#xf6;" horiz-adv-x="1173" 
d="M587 922q215 0 365 -132t150 -341t-146 -338t-368 -129q-221 0 -369 128q-147 128 -147 338t149 342q150 132 366 132zM587 213q114 0 162 68t48 167q0 98 -49 166t-160 68t-161 -68t-50 -166t48 -167q48 -68 162 -68zM135 1213q0 75 52 127t127 52t128 -52
q54 -52 54 -127t-54 -128t-128 -53q-75 0 -127 53t-52 128zM672 1213q0 75 52 127t127 52t128 -52t53 -127t-53 -128t-128 -53t-127 53t-52 128z" />
    <glyph glyph-name="oslash" unicode="&#xf8;" horiz-adv-x="1173" 
d="M572 682q-94 0 -145 -68q-50 -68 -50 -152t20 -134l320 315q-51 39 -145 39zM588 213q113 0 161 68q48 69 48 149t-19 129l-315 -313q49 -33 125 -33zM72 457q0 201 149 333t347 132t335 -93l135 134l72 -72l-129 -129q121 -130 121 -326t-146 -325t-368 -129
q-176 0 -307 84l-134 -132l-71 72l123 123q-127 127 -127 328z" />
    <glyph glyph-name="ugrave" unicode="&#xf9;" horiz-adv-x="1148" 
d="M102 389v514h308v-514q0 -164 137 -164q72 0 122 67t50 159v452h307v-903h-307v111q-103 -131 -277 -131t-257 108t-83 301zM180 1442h262l242 -367h-229z" />
    <glyph glyph-name="uacute" unicode="&#xfa;" horiz-adv-x="1148" 
d="M102 389v514h308v-514q0 -164 137 -164q72 0 122 67t50 159v452h307v-903h-307v111q-103 -131 -277 -131t-257 108t-83 301zM950 1442l-274 -367h-230l242 367h262z" />
    <glyph glyph-name="ucircumflex" unicode="&#xfb;" horiz-adv-x="1148" 
d="M102 389v514h308v-514q0 -164 137 -164q72 0 122 67t50 159v452h307v-903h-307v111q-103 -131 -277 -131t-257 108t-83 301zM686 1503l262 -428h-229l-154 309l-153 -309h-230l262 428h242z" />
    <glyph glyph-name="udieresis" unicode="&#xfc;" horiz-adv-x="1148" 
d="M102 389v514h308v-514q0 -164 137 -164q72 0 122 67t50 159v452h307v-903h-307v111q-103 -131 -277 -131t-257 108t-83 301zM121 1213q0 75 52 127t127 52t128 -52t53 -127t-53 -128t-128 -53t-127 53t-52 128zM837 1032q-75 0 -127 53t-53 128q1 75 53 127t127 52
t128 -52t53 -127t-53 -128t-128 -53z" />
    <glyph glyph-name="yacute" unicode="&#xfd;" horiz-adv-x="1009" 
d="M489 -512h-319l205 512h-51l-344 903h309l215 -645l215 645h311zM887 1442l-275 -367h-229l242 367h262z" />
    <glyph glyph-name="thorn" unicode="&#xfe;" 
d="M430 -512h-307v2048h307v-743q106 131 302 131t326 -142t130 -331q0 -191 -130 -331t-319 -140q-96 0 -181 32t-128 97v-621zM430 451q0 -90 62 -158t153 -68q90 0 153 68q62 68 62 158q0 89 -62 157t-152 68t-154 -68q-62 -68 -62 -157z" />
    <glyph glyph-name="ydieresis" unicode="&#xff;" horiz-adv-x="1009" 
d="M489 -512h-319l205 512h-51l-344 903h309l215 -645l215 645h311zM239 1032q-75 0 -127 53t-53 128q1 75 53 127t127 52t128 -52t53 -127t-53 -128t-128 -53zM596 1213q0 75 52 127t127 52t128 -52t53 -127t-53 -128t-128 -53t-127 53t-52 128z" />
    <glyph glyph-name="dotlessi" unicode="&#x131;" horiz-adv-x="573" 
d="M440 0h-307v903h307v-903z" />
    <glyph glyph-name="OE" unicode="&#x152;" horiz-adv-x="1853" 
d="M1731 279v-279h-916q-295 0 -493 201t-199 495q0 294 199 496q199 201 493 201h916v-279h-500v-276h479v-279h-479v-280h500zM926 283v825h-92q-176 0 -287 -118t-111 -294t112 -295t286 -118h92z" />
    <glyph glyph-name="oe" unicode="&#x153;" horiz-adv-x="1890" 
d="M797 448q0 98 -49 166t-160 68t-161 -68t-50 -166t48 -167q48 -68 162 -68t162 68t48 167zM1530 557q0 19 -16 54q-16 34 -34 56q-20 22 -60 40t-108 18t-119 -42q-50 -42 -58 -85l-9 -41h404zM1122 412q0 -84 54 -150t137 -66q82 0 131 43q49 42 51 95h313
q-39 -174 -169 -265q-131 -91 -339 -91t-354 124q-143 -120 -361 -120t-366 128q-147 128 -147 338t149 342q150 132 366 132t361 -129q146 129 368 129t366 -122t143 -331l-2 -57h-701z" />
    <glyph glyph-name="Ydieresis" unicode="&#x178;" horiz-adv-x="1368" 
d="M530 0v666l-514 727h367l301 -482l301 482h367l-514 -727v-666h-308zM244 1738q0 75 52 127t127 52t128 -52t53 -127t-53 -128q-53 -54 -128 -54t-127 54t-52 128zM780 1738q0 75 52 127t128 52t128 -52t52 -127t-52 -128q-54 -54 -128 -54t-128 54q-52 54 -52 128z" />
    <glyph glyph-name="circumflex" unicode="&#x2c6;" horiz-adv-x="673" 
d="M459 1964l262 -428h-229l-154 309l-154 -309h-229l262 428h242z" />
    <glyph glyph-name="caron" unicode="&#x2c7;" horiz-adv-x="2129" 
 />
    <glyph glyph-name="tilde" unicode="&#x2dc;" horiz-adv-x="800" 
d="M610 1559h185q0 -133 -66 -213t-180 -80q-59 0 -109 28t-92 55q-43 27 -87 27q-43 0 -65 -33t-22 -65h-174q0 115 67 205t181 90q59 0 113 -26q55 -25 97 -51t63 -26q64 0 81 40q8 20 8 49z" />
    <glyph glyph-name="endash" unicode="&#x2013;" horiz-adv-x="757" 
d="M758 369h-758v170h758v-170z" />
    <glyph glyph-name="emdash" unicode="&#x2014;" horiz-adv-x="1370" 
d="M1370 369h-1370v170h1370v-170z" />
    <glyph glyph-name="quoteleft" unicode="&#x2018;" horiz-adv-x="555" 
d="M72 924l295 612h168l-160 -612h-303z" />
    <glyph glyph-name="quoteright" unicode="&#x2019;" horiz-adv-x="555" 
d="M535 1536l-295 -612h-168l159 612h304z" />
    <glyph glyph-name="quotedblleft" unicode="&#x201c;" horiz-adv-x="1040" 
d="M123 924l295 612h168l-160 -612h-303zM559 924l295 612h168l-160 -612h-303z" />
    <glyph glyph-name="quotedblright" unicode="&#x201d;" horiz-adv-x="1040" 
d="M918 1536l-295 -612h-168l159 612h304zM483 1536l-295 -612h-168l160 612h303z" />
    <glyph glyph-name="bullet" unicode="&#x2022;" horiz-adv-x="552" 
d="M35 715q0 106 76 182t183 76t183 -75q76 -76 76 -184t-76 -183q-75 -75 -183 -75t-184 77q-76 76 -75 182z" />
    <glyph glyph-name="ellipsis" unicode="&#x2026;" horiz-adv-x="1597" 
d="M286 -20q-76 0 -128 52t-52 127t52 127t128 52q75 0 128 -52t53 -127t-53 -127t-128 -52zM798 -20q-76 0 -128 52t-52 127t52 127t128 52q75 0 128 -52t53 -127t-53 -127t-128 -52zM1310 -20q-76 0 -128 52t-52 127t52 127t128 52q75 0 128 -52t53 -127t-53 -127
t-128 -52z" />
    <glyph glyph-name="fraction" unicode="&#x2044;" horiz-adv-x="921" 
d="M324 0h-283l557 1393h283z" />
    <glyph glyph-name="trademark" unicode="&#x2122;" horiz-adv-x="1554" 
d="M381 1243v-602h-166v602h-215v150h594v-150h-213zM1554 641h-182l-90 518l-145 -518h-164l-148 518l-88 -518h-182l147 752h197l156 -527l155 527h197z" />
    <glyph glyph-name="minus" unicode="&#x2212;" horiz-adv-x="696" 
d="M666 369h-635v170h635v-170z" />
    <glyph glyph-name="apple" unicode="&#xf8ff;" horiz-adv-x="1855" 
d="M1702 774q0 -322 -226 -548t-548 -226t-548 226t-226 548t226 548t548 226t548 -226t226 -548zM1630 774q0 291 -205 497t-497 206t-498 -206q-205 -206 -205 -497q0 -290 205 -496t498 -206q294 0 498 206t204 496zM1333 1077h4q4 -2 9 -4h4l6 -6q27 -23 0 -49
l-244 -244l244 -244q27 -26 0 -51t-49 2l-271 269q-23 27 0 49l271 268q8 10 26 10zM963 1042v-536q0 -35 -35 -35t-35 35v536q0 37 35 37t35 -37zM829 774q0 -35 -36 -35h-134q-35 0 -34 35q0 35 34 35h134q36 0 36 -35zM561 1042v-536q0 -35 -37 -35q-14 0 -24 10t-11 25
v536q1 14 11 26t25 11q15 0 26 -11q10 -12 10 -26z" />
    </font>
</defs>
</svg>
