<?xml version="1.0" standalone="no"?>
<!DOCTYPE svg PUBLIC "-//W3C//DTD SVG 1.1//EN" "http://www.w3.org/Graphics/SVG/1.1/DTD/svg11.dtd" >
<svg xmlns="http://www.w3.org/2000/svg">
<metadata>
Created by FontPrep 20130207 at Wed Sep 28 07:09:16 2016
 By Ben Racher
Copyright (c) 2015 by Alfredo Marco Padil. All rights reserved.
</metadata>
<defs>
<font id="f7812b54365ca3b12b23d2dc7eff84d5" horiz-adv-x='1024' >
  <font-face 
    font-family="GlacialIndifference-Italic"
    font-weight="400"
    font-style="italic"
    font-stretch="normal"
    units-per-em="2048"
    panose-1="0 0 0 0 0 0 0 0 0 0"
    ascent="1536"
    descent="-512"
    x-height="901"
    cap-height="1393"
    bbox="-141 -515.75 2189 1829"
    underline-thickness="92"
    underline-position="-204"
    unicode-range="U+000D-F8FF"
  />
<missing-glyph horiz-adv-x="552" 
 />
    <glyph glyph-name=".notdef" horiz-adv-x="552" 
 />
    <glyph glyph-name=".null" horiz-adv-x="0" 
 />
    <glyph glyph-name="nonmarkingreturn" unicode="&#xd;" horiz-adv-x="0" 
 />
    <glyph glyph-name="NULL" horiz-adv-x="0" 
 />
    <glyph glyph-name="NULL" horiz-adv-x="0" 
 />
    <glyph glyph-name="space" unicode=" " horiz-adv-x="552" 
 />
    <glyph glyph-name="exclam" unicode="!" horiz-adv-x="614" 
d="M414 1536l-39 -1120h-135l-39 1120h213zM188 94q0 47 36 82t84 35t84 -34t36 -82t-36 -82q-36 -33 -84 -33t-84 34t-36 80z" />
    <glyph glyph-name="quotedbl" unicode="&#x22;" horiz-adv-x="751" 
d="M662 1536l-35 -516h-105l-37 516h177zM266 1536l-37 -516h-104l-35 516h176z" />
    <glyph glyph-name="numbersign" unicode="#" horiz-adv-x="1165" 
d="M1047 539v-109h-222l-53 -434l-106 14l51 420h-328l-55 -434l-109 14l54 424h-211v105h227l47 356h-217v104h229l49 408l107 -14l-49 -394h325l52 408l106 -14l-49 -394h209v-104h-219l-45 -356h207zM451 895l-48 -356h328l43 356h-323z" />
    <glyph glyph-name="dollar" unicode="$" horiz-adv-x="1208" 
d="M813 614l-94 -489q113 12 221 77t125 165q27 139 -143 211q-48 20 -109 36zM737 803l92 471q-121 0 -220 -53t-121 -162t48 -164t201 -92zM1137 1094q0 117 -125 155q-39 12 -72 19l-94 -492q204 -50 295 -114q125 -96 90 -282t-201 -296q-137 -90 -340 -109l-24 -118
h-113l22 116q-303 14 -401 205q-35 72 -33 164h187q-4 -211 278 -219l101 520q-199 47 -295 119q-130 98 -94 275t192 275t346 101l25 123h112l-24 -129q227 -27 307 -182q29 -55 31 -131h-170z" />
    <glyph glyph-name="percent" unicode="%" horiz-adv-x="1497" 
d="M517 831q-136 1 -184 95t-29 192t105 196q85 98 223 98t191 -109q39 -82 19 -187t-105 -195q-84 -90 -220 -90zM551 0h-143l829 1393h147zM1138 -20q-134 0 -186 93t-32 192t106 197t223 98t191 -109q39 -82 18 -187t-94 -184q-92 -100 -226 -100zM428 1057
q0 -121 111 -121q74 0 118 54q64 80 64 204q0 61 -45 94q-25 18 -66 18q-71 1 -117 -55q-45 -57 -55 -119t-10 -75zM1337 332q0 123 -108 123q-78 -1 -120 -57t-56 -130q-25 -123 39 -168q24 -16 66 -16q75 0 119 58t52 106t8 84z" />
    <glyph glyph-name="ampersand" unicode="&#x26;" horiz-adv-x="1411" 
d="M540 -25q-188 0 -277 115t-56 289q39 203 266 346q75 48 135 88q-113 168 -88 298t123 216q99 86 231 86t200 -82t44 -211q-25 -129 -213 -264q-33 -25 -94 -65l215 -367q16 16 50 49t50 49l97 99l102 -78q-39 -43 -229 -230l178 -313l-189 -4l-114 199
q-129 -106 -191 -142q-143 -78 -240 -78zM709 934q25 -33 36 -51q108 68 146 98q80 69 94 143t-28 116t-104 46q-61 4 -121 -37t-78 -129t55 -186zM557 123q111 0 268 127q23 16 80 65l-229 392q-131 -84 -189 -132q-123 -104 -140 -194t41 -174t169 -84z" />
    <glyph glyph-name="quotesingle" unicode="'" horiz-adv-x="354" 
d="M266 1536l-37 -516h-104l-35 516h176z" />
    <glyph glyph-name="parenleft" unicode="(" horiz-adv-x="630" 
d="M799 1536q-203 -258 -337 -626t-147 -726t93 -643h-136q-47 96 -69 269q-47 362 23 728t237 691q92 178 196 307h140z" />
    <glyph glyph-name="parenright" unicode=")" horiz-adv-x="630" 
d="M657 930q-4 -180 -48 -401q-75 -374 -232 -674q-109 -209 -199 -314h-135q203 262 342 643q61 170 98 360q65 335 29 632q-20 203 -82 360h139q94 -225 88 -606z" />
    <glyph glyph-name="asterisk" unicode="*" horiz-adv-x="1085" 
d="M930 1192l-328 -57l234 -228l-144 -104l-149 289l-150 -289l-143 104l233 228l-325 57l53 168l295 -156l-51 332h176l-51 -332l294 156z" />
    <glyph glyph-name="plus" unicode="+" horiz-adv-x="942" 
d="M866 397h-336v-336h-118v336h-334v117h334v336h118v-336h336v-117z" />
    <glyph glyph-name="comma" unicode="," horiz-adv-x="475" 
d="M418 242l-230 -531h-86l119 531h197z" />
    <glyph glyph-name="hyphen" unicode="-" horiz-adv-x="839" 
d="M764 397h-686v117h686v-117z" />
    <glyph glyph-name="period" unicode="." horiz-adv-x="546" 
d="M272 -20q-47 0 -83 34t-35 80q0 47 34 82q35 35 84 35t85 -34t36 -82q0 -47 -37 -81t-84 -34z" />
    <glyph glyph-name="slash" unicode="/" horiz-adv-x="1101" 
d="M1335 1536l-1173 -1948h-154l1174 1948h153z" />
    <glyph glyph-name="zero" unicode="0" horiz-adv-x="1146" 
d="M570 -18q-247 0 -324 243q-63 197 -8 477t192 472q172 242 420 242t324 -242q61 -195 5 -478t-190 -471q-172 -243 -419 -243zM809 1262q-179 0 -303 -220q-89 -164 -118 -311q-66 -342 22 -495q59 -109 179 -109t242 131t193 434q38 180 12 330t-112 209q-43 31 -115 31
z" />
    <glyph glyph-name="one" unicode="1" horiz-adv-x="587" 
d="M303 0l242 1247h-201l25 125l352 37l-275 -1409h-143z" />
    <glyph glyph-name="two" unicode="2" horiz-adv-x="1259" 
d="M865 1268q-134 0 -254 -104t-132 -234h-145q32 201 198 343t363 142t309 -134q112 -133 76 -327q-37 -194 -199 -329l-577 -482h635l-29 -143h-981l862 727q111 92 135 224q24 133 -51 225q-76 92 -210 92z" />
    <glyph glyph-name="three" unicode="3" horiz-adv-x="1064" 
d="M555 125q145 0 264 94q117 94 142 226q25 131 -53 227t-211 96q-134 0 -251 -98l-92 88l518 491h-458l26 144h750l-537 -516l70 36q197 -12 307 -143q110 -132 74 -324q-37 -192 -203 -331q-172 -137 -338 -136q-165 1 -274 87t-129 221l149 47q16 -100 89 -154t157 -55z
" />
    <glyph glyph-name="four" unicode="4" horiz-adv-x="1239" 
d="M1022 285l-55 -285h-150l55 285h-786l948 1108h201l-184 -961h176l-29 -147h-176zM1057 1237l-688 -805h532z" />
    <glyph glyph-name="five" unicode="5" horiz-adv-x="1126" 
d="M547 121q150 0 268 94q117 94 141 223q24 130 -50 228q-76 98 -198 98t-225 -66l-141 70l281 625h612l-27 -144h-503l-168 -372q216 67 368 -5q80 -39 129 -96q109 -132 72 -326t-202 -334t-363 -141q-150 0 -256 86q-104 80 -129 222l147 45q18 -92 90 -150t154 -57z
" />
    <glyph glyph-name="six" unicode="6" horiz-adv-x="1048" 
d="M881 114q-164 -136 -359 -136q-194 0 -306 136t-77 316t164 305l672 658h188l-524 -512l45 26q206 -8 320 -133t77 -324q-36 -200 -200 -336zM676 760q-61 0 -130 -27t-120 -67q-116 -94 -140 -224t55 -225q79 -96 211 -96t244 93t136 224q24 130 -51 226q-76 96 -205 96
z" />
    <glyph glyph-name="seven" unicode="7" horiz-adv-x="1009" 
d="M324 0h-160l790 1243h-651l29 143h874z" />
    <glyph glyph-name="eight" unicode="8" horiz-adv-x="1077" 
d="M532 -20q-192 0 -301 114t-71 303q18 101 98 199t205 160q-139 139 -109 299q31 160 162 260t297 100t258 -99q91 -99 61 -261t-223 -299q99 -60 141 -156t24 -198q-34 -188 -193 -305q-157 -117 -349 -117zM786 1274q-98 0 -183 -67t-103 -165t38 -168t157 -70t185 70
t103 168q18 98 -39 166q-60 66 -158 66zM676 709q-123 0 -224 -83t-126 -205t43 -210q69 -88 195 -88t227 88q100 88 124 209q25 121 -45 205q-71 84 -194 84z" />
    <glyph glyph-name="nine" unicode="9" horiz-adv-x="1048" 
d="M797 1415q195 0 307 -136q112 -137 76 -317q-35 -180 -164 -305l-672 -657h-188l526 512l-47 -27q-207 8 -321 133t-76 325q37 200 200 336q164 136 359 136zM645 633q59 1 128 27t120 67q115 94 139 224q24 129 -53 225q-78 96 -211 96t-245 -93q-113 -93 -137 -225
t52 -226q76 -95 207 -95z" />
    <glyph glyph-name="colon" unicode=":" horiz-adv-x="546" 
d="M422 772q-45 0 -76 34q-30 34 -20 82t53 82t90 34t77 -32t20 -81t-54 -84q-45 -35 -90 -35zM270 -20q-48 0 -78 34t-20 81q10 48 53 82t89 34t77 -34t22 -82q-9 -47 -53 -81t-90 -34z" />
    <glyph glyph-name="semicolon" unicode=";" horiz-adv-x="546" 
d="M446 242l-331 -531h-86l221 531h196zM422 772q-45 0 -76 34q-30 34 -20 82t53 82t90 34t77 -32t20 -81t-54 -84q-45 -35 -90 -35z" />
    <glyph glyph-name="less" unicode="&#x3c;" horiz-adv-x="1056" 
d="M965 -78l-873 432v146l873 432v-148l-754 -358l754 -356v-148z" />
    <glyph glyph-name="equal" unicode="=" horiz-adv-x="942" 
d="M784 578h-686v116h686v-116zM784 207h-686v117h686v-117z" />
    <glyph glyph-name="greater" unicode="&#x3e;" horiz-adv-x="1056" 
d="M92 70l754 356l-754 358v148l873 -432v-146l-873 -432v148z" />
    <glyph glyph-name="question" unicode="?" horiz-adv-x="1036" 
d="M796 1417q-95 0 -167 -48t-101 -144h-170q44 160 170 246q126 85 296 85t265 -86q96 -86 66 -251q-18 -94 -115 -172q-35 -29 -83 -62t-89 -63q-92 -72 -108 -150l-70 -356h-174l70 358q31 156 205 256q109 61 145 100t45 89q18 102 -36 150t-149 48zM566 211
q46 0 77 -34t21 -83t-51 -82q-42 -32 -90 -32t-79 34q-30 34 -20 81q10 48 53 82t89 34z" />
    <glyph glyph-name="at" unicode="@" horiz-adv-x="1128" 
d="M703 211q-97 0 -149 74t-33 174t95 167t168 66q113 2 156 -86q25 123 -16 167t-122 44q-168 0 -282 -98q-114 -97 -142 -249q-30 -152 59 -254t239 -103h266l-22 -113h-267q-213 0 -329 128t-74 339q40 211 196 348t371 137q129 0 200 -70t48 -175l-92 -476h-107l17 80
q-23 -45 -74 -73t-106 -27zM746 332q58 0 94 36t46 84q9 48 -13 86q-23 38 -79 38t-96 -39q-82 -82 -32 -166q22 -39 80 -39z" />
    <glyph glyph-name="A" unicode="A" horiz-adv-x="1263" 
d="M1243 0h-156l-75 379h-613l-223 -379h-156l902 1489zM479 512h506l-129 641z" />
    <glyph glyph-name="B" unicode="B" horiz-adv-x="1103" 
d="M774 678h-346l-104 -541h323q133 0 230 77t120 195t-45 193q-68 76 -178 76zM774 1255h-233l-84 -434h274q113 0 191 56q78 57 98 165t-41 160t-205 53zM801 1393q305 0 360 -189q44 -168 -74 -323q-59 -78 -141 -113q114 -32 168 -132t25 -247q-13 -86 -73 -168
q-160 -221 -486 -221h-426l270 1393h377z" />
    <glyph glyph-name="C" unicode="C" horiz-adv-x="1492" 
d="M1061 1411q217 0 367 -123t190 -319h-158q-74 205 -284 272q-72 23 -164 23t-205 -47t-201 -123q-188 -164 -234 -396t82 -402q128 -169 357 -169q156 0 301 82t244 217h157q-117 -199 -315 -322q-207 -125 -416 -124q-290 0 -450 210t-105 503t301 505q246 213 533 213z
" />
    <glyph glyph-name="D" unicode="D" horiz-adv-x="1327" 
d="M551 143q242 0 434 156q201 159 247 398t-90 396t-376 156h-225l-215 -1106h225zM518 0h-364l270 1393h364q146 1 270 -53q252 -109 310 -365q31 -133 1 -281q-61 -302 -304 -497q-111 -89 -255 -143t-292 -54z" />
    <glyph glyph-name="E" unicode="E" horiz-adv-x="1134" 
d="M981 0h-827l270 1393h827l-24 -133h-684l-97 -496h664l-27 -135h-663l-96 -496h684z" />
    <glyph glyph-name="F" unicode="F" horiz-adv-x="1021" 
d="M1227 1260h-684l-97 -496h664l-27 -135h-663l-123 -629h-143l270 1393h827z" />
    <glyph glyph-name="G" unicode="G" horiz-adv-x="1619" 
d="M1071 1419q252 0 415 -141t187 -373h-151q-35 167 -160 269t-305 102q-240 0 -440 -169q-199 -169 -245 -406t89 -405t373 -169q194 0 366 110t270 289h-565l25 125h725l-31 -86q-94 -254 -330 -418t-489 -163q-145 0 -265 55q-247 113 -309 383q-31 128 -2 278t113 283
q170 268 453 381q141 55 276 55z" />
    <glyph glyph-name="H" unicode="H" horiz-adv-x="1226" 
d="M297 0h-143l270 1393h143l-121 -627h633l121 627h143l-270 -1393h-143l121 623h-633z" />
    <glyph glyph-name="I" unicode="I" horiz-adv-x="450" 
d="M297 0h-143l270 1393h143z" />
    <glyph glyph-name="J" unicode="J" horiz-adv-x="747" 
d="M692 344q-41 -201 -198 -295q-129 -76 -279 -69t-199 49l31 157q49 -49 159 -62t214 39t129 181l203 1049h143z" />
    <glyph glyph-name="K" unicode="K" horiz-adv-x="970" 
d="M297 0h-143l270 1393h143l-127 -654l596 654h185l-648 -697l377 -696h-184l-342 653z" />
    <glyph glyph-name="L" unicode="L" horiz-adv-x="835" 
d="M795 0h-641l270 1393h143l-241 -1250h497z" />
    <glyph glyph-name="M" unicode="M" horiz-adv-x="1603" 
d="M1438 0l-25 991l-627 -1073l-211 1073l-407 -991h-148l615 1485l225 -1192l688 1192l35 -1485h-145z" />
    <glyph glyph-name="N" unicode="N" horiz-adv-x="1232" 
d="M496 1026l-199 -1026h-143l288 1481l566 -1112l198 1024h144l-287 -1479z" />
    <glyph glyph-name="O" unicode="O" horiz-adv-x="1615" 
d="M1082 1415q142 0 264 -55q250 -113 311 -381q31 -129 2 -280q-57 -294 -307 -505q-250 -210 -546 -210t-466 209q-78 94 -109 228t-4 279q27 144 111 278q166 264 455 380q147 57 289 57zM1054 1272q-238 0 -438 -170q-202 -170 -246 -404t91 -402t373 -169t437 167
q200 168 245 405t-89 405q-135 168 -373 168z" />
    <glyph glyph-name="P" unicode="P" horiz-adv-x="1083" 
d="M707 551h-304l-106 -551h-143l270 1393h446q186 0 292 -118t69 -302t-190 -303t-334 -119zM756 690q115 0 213 82q96 84 121 206q26 122 -36 200t-190 77h-323l-109 -565h324z" />
    <glyph glyph-name="Q" unicode="Q" horiz-adv-x="1605" 
d="M1052 1268q-238 0 -436 -169t-244 -403t89 -404q135 -169 373 -169t437 169q200 170 245 404q46 234 -90 403t-374 169zM780 -20q-118 0 -241 56q-244 111 -310 382q-31 127 -3 274q28 148 111 280t201 231t257 153t286 55q147 0 267 -55q246 -112 309 -383
q31 -129 2 -277t-112 -279q-137 -214 -357 -335l55 11q35 7 62 13t51 11h209l-23 -117h-565q-81 -20 -199 -20z" />
    <glyph glyph-name="R" unicode="R" horiz-adv-x="1114" 
d="M870 1393q184 0 290 -118t70 -304q-36 -187 -178 -297t-309 -121l322 -553h-193l-301 551h-168l-106 -551h-143l270 1393h446zM754 688q125 0 218 83t118 204q26 121 -36 201t-190 79h-323l-111 -567h324z" />
    <glyph glyph-name="S" unicode="S" horiz-adv-x="1175" 
d="M850 1413q403 0 422 -303h-154q-6 180 -293 180q-201 0 -305 -119q-39 -41 -51 -112q-25 -129 100 -199q63 -37 262 -91t283 -122q115 -96 82 -264q-41 -213 -227 -320q-154 -90 -363 -90q-461 0 -467 353h170q-4 -220 324 -222q236 0 352 129q41 43 61 133t-38 148
q-78 77 -340 143q-406 98 -355 365q37 197 193 294t344 97z" />
    <glyph glyph-name="T" unicode="T" horiz-adv-x="901" 
d="M313 1397h820l-27 -133h-338l-246 -1260h-143l246 1260h-338z" />
    <glyph glyph-name="U" unicode="U" horiz-adv-x="1284" 
d="M668 125q254 0 376 172q43 59 60 143l184 953h144l-181 -932q-43 -225 -211 -353t-400 -126q-232 0 -351 124t-76 355l180 932h144l-185 -953q-32 -158 60 -236t256 -79z" />
    <glyph glyph-name="V" unicode="V" horiz-adv-x="1304" 
d="M637 -84l-346 1477h155l261 -1123l692 1123h155z" />
    <glyph glyph-name="W" unicode="W" horiz-adv-x="1603" 
d="M1237 -113l-221 1213l-692 -1213l-33 1506h147l19 -1012l633 1094l204 -1094l414 1012h145z" />
    <glyph glyph-name="X" unicode="X" horiz-adv-x="1241" 
d="M1022 0l-287 594l-516 -594h-176l625 694l-357 699h178l287 -594l516 594h176l-624 -697l354 -696h-176z" />
    <glyph glyph-name="Y" unicode="Y" horiz-adv-x="1239" 
d="M819 655l-127 -655h-143l127 655l-385 738h184l301 -596l531 596h182z" />
    <glyph glyph-name="Z" unicode="Z" horiz-adv-x="1187" 
d="M338 133h790l-26 -133h-1051l1071 1260h-782l25 133h1042z" />
    <glyph glyph-name="bracketleft" unicode="[" horiz-adv-x="720" 
d="M487 -436h-370l383 1972h370l-20 -100h-236l-344 -1770h236z" />
    <glyph glyph-name="backslash" unicode="\" horiz-adv-x="1101" 
d="M956 -412h-151l-418 1948h154z" />
    <glyph glyph-name="bracketright" unicode="]" horiz-adv-x="720" 
d="M436 -436h-370l18 102h235l345 1770h-236l21 100h370z" />
    <glyph glyph-name="asciicircum" unicode="^" horiz-adv-x="1198" 
d="M1217 702h-158l-207 596l-436 -596h-158l506 689h211z" />
    <glyph glyph-name="underscore" unicode="_" horiz-adv-x="1198" 
d="M1096 -299h-1106l22 119h1106z" />
    <glyph glyph-name="grave" unicode="`" horiz-adv-x="380" 
d="M340 1536h-115l-225 293h156z" />
    <glyph glyph-name="a" unicode="a" 
d="M886 137q-173 -157 -360 -157q-188 0 -285 140t-61 330t190 331q153 141 340 141t285 -144q3 -4 11 -14t10 -16l31 153h143l-176 -901h-144l31 154q-4 -6 -15 -17zM704 778q-134 0 -245 -98t-135 -230t47 -230q72 -98 206 -97q134 -1 245 99t136 230t-47 228
q-73 98 -207 98z" />
    <glyph glyph-name="b" unicode="b" 
d="M765 778q-134 0 -245 -98q-112 -98 -136 -230t48 -230t206 -97q134 -1 246 99t136 230q25 130 -47 228q-74 98 -208 98zM632 -20q-187 0 -286 143l-18 31l-31 -154h-143l299 1536h143l-154 -788l31 30q156 144 343 144q188 0 286 -142t61 -329t-191 -329t-340 -142z" />
    <glyph glyph-name="c" unicode="c" horiz-adv-x="1067" 
d="M718 770q-144 0 -255 -96t-135 -227t48 -225q73 -94 202 -93q86 0 168 46t137 120h161q-119 -213 -350 -291q-167 -58 -319 12q-78 37 -127 103q-104 141 -68 331t197 330q164 140 337 140q174 0 278 -94t116 -248h-156q-22 88 -90 140t-144 52z" />
    <glyph glyph-name="d" unicode="d" 
d="M886 137q-173 -157 -360 -157q-188 0 -285 140t-61 330t190 331q153 141 340 141t285 -144q3 -4 11 -14t10 -16l153 788h144l-299 -1536h-144l31 154q-4 -6 -15 -17zM704 778q-134 0 -245 -98t-135 -230t47 -230q72 -98 206 -97q134 -1 245 99t136 230t-47 228
q-73 98 -207 98z" />
    <glyph glyph-name="e" unicode="e" horiz-adv-x="1116" 
d="M983 518q-4 117 -78 191t-190 73q-174 0 -307 -159q-41 -49 -64 -105h639zM572 129q186 0 309 135h163q-82 -129 -214 -204q-132 -74 -250 -74q-217 1 -327 136q-110 136 -73 331t204 333t357 140q190 0 306 -134t79 -321l-14 -76h-793q-4 -117 74 -191q79 -74 179 -75z
" />
    <glyph glyph-name="f" unicode="f" horiz-adv-x="698" 
d="M786 1403q-74 0 -102 -35t-37 -78l-74 -389h240l-27 -133h-239l-150 -768h-143l149 768h-182l27 133h182l68 348q28 143 106 215t230 72h102l-27 -133h-123z" />
    <glyph glyph-name="g" unicode="g" horiz-adv-x="1179" 
d="M540 -20q-188 0 -286 140t-61 330t189 331q152 140 340 141q187 1 297 -156q7 -10 9 -16l31 151h143l-184 -946q-35 -187 -200 -327q-164 -140 -358 -140t-304 137q-88 111 -82 252h147q2 -80 58 -149q77 -96 209 -96t247 96t139 227l37 197q-4 -4 -8 -10t-10 -10
q-6 -5 -10 -9q-156 -143 -343 -143zM718 778q-132 0 -245 -97t-137 -231t48 -230q73 -96 206 -97q132 -1 244 99t137 230t-47 228q-74 98 -206 98z" />
    <glyph glyph-name="h" unicode="h" horiz-adv-x="1042" 
d="M754 776q-170 0 -259 -104q-88 -104 -124 -295l-74 -377h-143l299 1536h143l-154 -791q128 175 319 175q97 0 150 -27t84 -76q63 -94 33 -254l-108 -563h-144l109 563q18 89 -10 151q-27 62 -121 62z" />
    <glyph glyph-name="i" unicode="i" horiz-adv-x="468" 
d="M307 0h-143l176 901h143zM475 1239q40 0 60 -27q20 -26 14 -62t-37 -65t-71 -29t-60 28q-20 26 -14 63t37 65t71 27z" />
    <glyph glyph-name="j" unicode="j" horiz-adv-x="481" 
d="M285 -172q-25 -123 -82 -197q-106 -138 -246 -129q-61 2 -98 31l26 137q51 -60 131 -28q94 35 123 184l211 1075h144zM486 1239q40 -1 60 -27t15 -63q-6 -37 -37 -66q-32 -29 -72 -29t-61 27q-20 27 -14 64t37 65q32 28 72 29z" />
    <glyph glyph-name="k" unicode="k" horiz-adv-x="862" 
d="M297 0h-143l299 1536h143l-203 -1038l410 405h190l-456 -438l305 -465h-191l-270 432z" />
    <glyph glyph-name="l" unicode="l" horiz-adv-x="450" 
d="M297 0h-143l299 1536h143z" />
    <glyph glyph-name="m" unicode="m" horiz-adv-x="1562" 
d="M1265 782q-62 0 -126 -38q-83 -49 -133 -135q-12 -20 -11 -42l-110 -563h-144l111 563q27 139 -51 197q-29 18 -91 18t-126 -38q-137 -81 -197 -279l-90 -461h-143l176 901h143l-29 -143q129 162 299 164q206 0 252 -172q129 170 303 172q96 0 146 -30t80 -79
q57 -100 26 -250l-110 -563h-144l111 563q27 139 -51 197q-29 18 -91 18z" />
    <glyph glyph-name="n" unicode="n" horiz-adv-x="1042" 
d="M754 776q-162 0 -267 -125q-82 -100 -116 -274l-74 -377h-143l176 901h143l-31 -156q58 76 142 125q84 50 179 50t147 -27t85 -78q63 -94 33 -252l-108 -563h-144l109 563q18 85 -11 149q-30 64 -120 64z" />
    <glyph glyph-name="o" unicode="o" horiz-adv-x="1126" 
d="M561 -14q-195 0 -307 136t-74 331q37 195 204 333q166 138 360 140q194 0 304 -139t74 -334q-38 -195 -202 -331t-359 -136zM715 782q-135 0 -249 -95t-140 -231t50 -232q77 -96 212 -95q134 -1 250 97t142 230t-52 229t-213 97z" />
    <glyph glyph-name="p" unicode="p" 
d="M765 778q-134 0 -245 -98q-112 -98 -136 -230t48 -230t206 -97q134 -1 246 99t136 230q25 130 -47 228q-74 98 -208 98zM632 -20q-187 0 -286 143l-18 31l-131 -666h-144l277 1413h143l-31 -153l31 30q156 144 343 144q188 0 286 -142t61 -329t-191 -329t-340 -142z" />
    <glyph glyph-name="q" unicode="q" 
d="M886 137q-173 -157 -360 -157q-188 0 -285 140t-61 330t190 331q153 141 340 141t285 -144q3 -4 11 -14t10 -16l31 153h143l-277 -1413h-143l131 666q-4 -6 -15 -17zM704 778q-134 0 -245 -98t-135 -230t47 -230q72 -98 206 -97q134 -1 245 99t136 230t-47 228
q-73 98 -207 98z" />
    <glyph glyph-name="r" unicode="r" horiz-adv-x="636" 
d="M660 760q-98 0 -177 -100q-78 -100 -98 -209l-88 -451h-143l176 901h143l-37 -186l13 37q104 168 256 168q49 0 88 -19l-37 -186q-38 45 -96 45z" />
    <glyph glyph-name="s" unicode="s" horiz-adv-x="823" 
d="M584 922q134 0 207 -52q74 -52 77 -192h-153q-8 76 -51 100t-110 25q-67 0 -120 -29t-65 -90q-11 -61 23 -90t80 -44q46 -16 116 -32t135 -49q125 -68 98 -211q-39 -204 -272 -268q-59 -16 -139 -17q-314 0 -306 279h152q11 -160 184 -160q199 0 228 148q14 86 -117 131
q-86 29 -135 40t-110 41q-123 61 -98 195q26 135 134 205t242 70z" />
    <glyph glyph-name="t" unicode="t" horiz-adv-x="673" 
d="M190 768l27 133h225l68 350h143l-67 -350h223l-27 -133h-223l-149 -768h-144l150 768h-226z" />
    <glyph glyph-name="u" unicode="u" horiz-adv-x="1042" 
d="M471 -18q-151 0 -217 100t-35 256l111 563h143l-111 -563q-18 -88 11 -150t121 -63q168 0 258 106t127 293l73 377h144l-176 -901h-144l31 154q-135 -172 -336 -172z" />
    <glyph glyph-name="v" unicode="v" horiz-adv-x="870" 
d="M420 -86l-223 987h155l129 -670l389 670h156z" />
    <glyph glyph-name="w" unicode="w" horiz-adv-x="1482" 
d="M1012 -115l-152 727l-430 -727l-233 1016h159l136 -694l434 741l147 -741l406 694h159z" />
    <glyph glyph-name="x" unicode="x" horiz-adv-x="917" 
d="M684 0l-158 350l-293 -350h-182l404 453l-228 448h183l157 -346l293 346h182l-403 -450l227 -451h-182z" />
    <glyph glyph-name="y" unicode="y" horiz-adv-x="870" 
d="M168 -512h-174l432 659l-229 754h163l170 -604l377 604h160z" />
    <glyph glyph-name="z" unicode="z" horiz-adv-x="931" 
d="M20 0l740 768h-555l26 133h830l-739 -768h616l-27 -133h-891z" />
    <glyph glyph-name="braceleft" unicode="{" horiz-adv-x="778" 
d="M809 1536h51q35 0 53 -2l-20 -102q-168 33 -191 -78l-122 -641q-18 -99 -78 -159t-148 -103q159 -77 133 -213l-90 -461q-23 -113 13 -159t125 -28l-19 -100q-18 -2 -55 -2h-74q-45 0 -83 26t-58 74t4 183l90 462q12 59 -22 97t-78 59l26 139q143 49 170 199l105 541
q12 55 30 106q61 162 238 162z" />
    <glyph glyph-name="bar" unicode="|" horiz-adv-x="593" 
d="M152 -461l378 1946h113l-379 -1946h-112z" />
    <glyph glyph-name="braceright" unicode="}" horiz-adv-x="778" 
d="M567 1536q178 0 174 -162q0 -47 -12 -106l-104 -541q-29 -152 92 -199l-27 -139q-57 -25 -102 -59t-60 -97l-90 -462q-25 -129 -67 -183q-81 -100 -181 -100h-71q-35 0 -53 2l18 100q168 -37 211 187l90 461q20 111 141 178q49 25 74 35q-76 47 -108 104t-15 158l123 641
q10 55 -29 74t-129 4l21 102q18 2 51 2h53z" />
    <glyph glyph-name="asciitilde" unicode="~" horiz-adv-x="1077" 
d="M385 1423q-61 0 -123 -123l-106 70q33 61 96 125t128 64t150 -48q96 -45 158 -45t125 113l109 -68q-74 -111 -154 -153t-157 -10q-35 14 -71 30t-73 30t-82 15z" />
    <glyph glyph-name="uni00A0" unicode="&#xa0;" horiz-adv-x="552" 
 />
    <glyph glyph-name="dieresis" unicode="&#xa8;" horiz-adv-x="1155" 
d="M500 1627q0 -39 -27 -65t-65 -26t-65 27q-26 27 -26 65t26 64q27 27 65 27t65 -27t27 -65zM780 1536q-38 0 -64 27t-26 65t26 64q26 27 64 27t66 -27q26 -27 26 -65q0 -39 -26 -65t-66 -26z" />
    <glyph glyph-name="copyright" unicode="&#xa9;" horiz-adv-x="1529" 
d="M1432 768q0 -133 -54 -251t-143 -206q-90 -88 -212 -138t-259 -50q-274 0 -469 188q-92 88 -145 206t-54 251q0 133 54 250q53 117 145 205q195 188 469 188q137 0 259 -50q245 -100 355 -343q54 -117 54 -250zM1303 767q0 218 -158 369q-158 150 -381 150t-380 -152
t-157 -367q0 -214 157 -367q157 -152 380 -152t381 150t158 369zM760 426q-144 0 -250 101t-106 243t104 244q106 102 242 102t229 -72q68 -47 106 -126h-122q-75 90 -189 90t-185 -71t-71 -166t71 -166t187 -71t185 87h122q-111 -195 -323 -195z" />
    <glyph glyph-name="registered" unicode="&#xae;" horiz-adv-x="1529" 
d="M1432 768q0 -133 -54 -251t-143 -206q-90 -88 -212 -138t-259 -50q-274 0 -469 188q-92 88 -144 206t-53 251q0 266 196 454t470 189q137 0 259 -50q245 -100 355 -343q54 -117 54 -250zM1303 767q0 218 -158 369q-158 150 -381 150t-380 -152t-157 -367q0 -214 157 -367
q157 -152 380 -152t381 150t158 369zM682 725v-279h-94v641h190q86 0 150 -53t65 -129q1 -41 -27 -81t-106 -91l164 -287h-121l-129 279h-92zM899 905q0 47 -37 77t-84 30h-96v-213h96q47 -1 84 29t37 77z" />
    <glyph glyph-name="degree" unicode="&#xb0;" horiz-adv-x="942" 
d="M472 786q-148 0 -244 84t-95 220q0 136 97 221q96 86 240 86t242 -86t97 -219q0 -133 -96 -224q-93 -82 -241 -82zM470 897q196 0 196 193q0 127 -101 174q-37 18 -94 18q-103 0 -149 -56t-46 -138q0 -130 99 -175q37 -16 95 -16z" />
    <glyph glyph-name="acute" unicode="&#xb4;" horiz-adv-x="380" 
d="M360 1829l-204 -293h-115l164 293h155z" />
    <glyph glyph-name="paragraph" unicode="&#xb6;" horiz-adv-x="1064" 
d="M844 0h-88v1253h-129v-1253h-90v426q-190 29 -316 154q-123 127 -123 311t135 317q137 133 328 133h283v-1341z" />
    <glyph glyph-name="cedilla" unicode="&#xb8;" horiz-adv-x="1103" 
d="M595 -92q97 0 148 -90t7 -199t-190 -129t-292 37l51 106q115 -41 222 -29t114 77q18 109 -96 124q-43 6 -90 -2t-88 -14l151 334l115 2l-104 -219q2 2 52 2z" />
    <glyph glyph-name="Agrave" unicode="&#xc0;" horiz-adv-x="1263" 
d="M1008 1536h-115l-168 293h156zM1243 0h-156l-75 379h-613l-223 -379h-156l902 1489zM479 512h506l-129 641z" />
    <glyph glyph-name="Aacute" unicode="&#xc1;" horiz-adv-x="1263" 
d="M1266 1829l-283 -293h-115l222 293h176zM1243 0h-156l-75 379h-613l-223 -379h-156l902 1489zM479 512h506l-129 641z" />
    <glyph glyph-name="Acircumflex" unicode="&#xc2;" horiz-adv-x="1263" 
d="M971 1753l-189 -217h-145l283 293h135l168 -293h-146zM1243 0h-156l-75 379h-613l-223 -379h-156l902 1489zM479 512h506l-129 641z" />
    <glyph glyph-name="Atilde" unicode="&#xc3;" horiz-adv-x="1263" 
d="M837 1790q77 0 111 -27t50 -57t36 -54q20 -26 68 -26t78 41q16 25 30 100h101q-12 -135 -111 -215q-51 -41 -129 -41q-79 0 -111 27t-46 50q-14 22 -40 56q-24 34 -65 33q-99 0 -115 -141h-100q20 137 119 215q47 39 124 39zM1243 0h-156l-75 379h-613l-223 -379h-156
l902 1489zM479 512h506l-129 641z" />
    <glyph glyph-name="Adieresis" unicode="&#xc4;" horiz-adv-x="1263" 
d="M779 1719q41 0 60 -26t13 -63q-6 -38 -37 -66t-71 -28t-60 27t-14 63t37 65q31 28 72 28zM1151 1719q41 0 60 -26t13 -63q-6 -38 -36 -66q-31 -28 -71 -28t-60 27q-21 27 -15 63t37 65q31 28 72 28zM1243 0h-156l-75 379h-613l-223 -379h-156l902 1489zM479 512h506
l-129 641z" />
    <glyph glyph-name="Aring" unicode="&#xc5;" horiz-adv-x="1263" 
d="M924 1505q38 0 68 25q30 26 36 60t-14 58t-57 24t-68 -25t-37 -59t14 -58t58 -25zM1243 0h-156l-75 379h-613l-223 -379h-156l846 1397q-57 10 -100 58t-27 131t86 140q70 58 151 58t131 -56t35 -138q-16 -82 -80 -134q-64 -51 -120 -59zM479 512h506l-129 641z" />
    <glyph glyph-name="AE" unicode="&#xc6;" horiz-adv-x="1675" 
d="M692 0l70 358h-346l-226 -358h-159l923 1393h838l-29 -148l-682 -4l-92 -475l662 4l-29 -147l-661 -5l-93 -475l682 4l-28 -147h-830zM924 1192l-29 -84l-401 -623h292z" />
    <glyph glyph-name="Ccedilla" unicode="&#xc7;" horiz-adv-x="1492" 
d="M803 -92q49 0 84 -25t49 -63q35 -92 -31 -197q-67 -111 -221 -131t-281 35l72 106q111 -41 219 -29t127 77q39 106 -71 124q-46 6 -86 -1t-97 -15l127 197q-225 27 -364 207q-158 207 -103 500t301 505q246 213 533 213q217 0 367 -123t190 -319h-158q-74 207 -284 274
q-64 21 -162 21t-207 -45t-201 -125q-188 -164 -234 -396t82 -402q128 -169 357 -169q156 0 301 82t244 217h157q-117 -199 -313 -320t-399 -126l-49 -74q2 2 51 2z" />
    <glyph glyph-name="Egrave" unicode="&#xc8;" horiz-adv-x="1134" 
d="M1026 1536h-115l-168 293h156zM981 0h-827l270 1393h827l-24 -133h-684l-97 -496h664l-27 -135h-663l-96 -496h684z" />
    <glyph glyph-name="Eacute" unicode="&#xc9;" horiz-adv-x="1134" 
d="M1217 1829l-283 -293h-115l221 293h177zM981 0h-827l270 1393h827l-24 -133h-684l-97 -496h664l-27 -135h-663l-96 -496h684z" />
    <glyph glyph-name="Ecircumflex" unicode="&#xca;" horiz-adv-x="1134" 
d="M907 1753l-188 -217h-146l283 293h135l168 -293h-145zM981 0h-827l270 1393h827l-24 -133h-684l-97 -496h664l-27 -135h-663l-96 -496h684z" />
    <glyph glyph-name="Edieresis" unicode="&#xcb;" horiz-adv-x="1134" 
d="M717 1719q41 0 60 -26t13 -63q-6 -38 -36 -66q-31 -28 -71 -28t-60 27q-21 27 -15 63t37 65q31 28 72 28zM1090 1719q41 0 60 -26t13 -63q-6 -38 -37 -66q-30 -28 -70 -28t-61 27q-20 27 -14 63t37 65q31 28 72 28zM981 0h-827l270 1393h827l-24 -133h-684l-97 -496h664
l-27 -135h-663l-96 -496h684z" />
    <glyph glyph-name="Igrave" unicode="&#xcc;" horiz-adv-x="450" 
d="M600 1536h-115l-168 293h156zM297 0h-143l270 1393h143z" />
    <glyph glyph-name="Iacute" unicode="&#xcd;" horiz-adv-x="450" 
d="M877 1829l-283 -293h-115l221 293h177zM297 0h-143l270 1393h143z" />
    <glyph glyph-name="Icircumflex" unicode="&#xce;" horiz-adv-x="450" 
d="M567 1753l-188 -217h-146l283 293h135l168 -293h-145zM297 0h-143l270 1393h143z" />
    <glyph glyph-name="Idieresis" unicode="&#xcf;" horiz-adv-x="450" 
d="M375 1719q41 0 60 -26t13 -63q-6 -38 -36 -66q-31 -28 -71 -28t-60 27q-21 27 -15 63t37 65q31 28 72 28zM748 1719q41 0 60 -26t13 -63q-6 -38 -37 -66q-30 -28 -70 -28t-61 27q-20 27 -14 63t37 65q31 28 72 28zM297 0h-143l270 1393h143z" />
    <glyph glyph-name="Eth" unicode="&#xd0;" horiz-adv-x="1327" 
d="M518 0h-364l116 604h-137l23 117h137l131 672h364q146 1 270 -53q252 -109 310 -365q31 -133 1 -281q-61 -302 -304 -497q-111 -89 -255 -143t-292 -54zM551 143q242 0 434 156q201 159 247 398t-90 396t-376 156h-225l-105 -528h406l-23 -117h-405l-88 -461h225z" />
    <glyph glyph-name="Ntilde" unicode="&#xd1;" horiz-adv-x="1232" 
d="M824 1790q77 0 111 -27t51 -57q16 -30 36 -54q20 -26 68 -26t71 33q22 33 37 108h100q-12 -135 -110 -215q-51 -41 -129 -41t-111 27t-47 50q-15 22 -39 56t-65 33q-68 0 -99 -71q-12 -27 -16 -70h-100q20 137 118 215q47 39 124 39zM496 1026l-199 -1026h-143l288 1481
l566 -1112l198 1024h144l-287 -1479z" />
    <glyph glyph-name="Ograve" unicode="&#xd2;" horiz-adv-x="1615" 
d="M1163 1536h-114l-168 293h155zM1082 1415q142 0 264 -55q250 -113 311 -381q31 -129 2 -280q-57 -294 -307 -505q-250 -210 -546 -210t-466 209q-78 94 -109 228t-4 279q27 144 111 278q166 264 455 380q147 57 289 57zM1054 1272q-238 0 -438 -170q-202 -170 -246 -404
t91 -402t373 -169t437 167q200 168 245 405t-89 405q-135 168 -373 168z" />
    <glyph glyph-name="Oacute" unicode="&#xd3;" horiz-adv-x="1615" 
d="M1446 1829l-283 -293h-114l221 293h176zM1082 1415q142 0 264 -55q250 -113 311 -381q31 -129 2 -280q-57 -294 -307 -505q-250 -210 -546 -210t-466 209q-78 94 -109 228t-4 279q27 144 111 278q166 264 455 380q147 57 289 57zM1054 1272q-238 0 -438 -170
q-202 -170 -246 -404t91 -402t373 -169t437 167q200 168 245 405t-89 405q-135 168 -373 168z" />
    <glyph glyph-name="Ocircumflex" unicode="&#xd4;" horiz-adv-x="1615" 
d="M1147 1753l-189 -217h-145l283 293h135l168 -293h-146zM1082 1415q142 0 264 -55q250 -113 311 -381q31 -129 2 -280q-57 -294 -307 -505q-250 -210 -546 -210t-466 209q-78 94 -109 228t-4 279q27 144 111 278q166 264 455 380q147 57 289 57zM1054 1272
q-238 0 -438 -170q-202 -170 -246 -404t91 -402t373 -169t437 167q200 168 245 405t-89 405q-135 168 -373 168z" />
    <glyph glyph-name="Otilde" unicode="&#xd5;" horiz-adv-x="1615" 
d="M1013 1790q77 0 111 -27t50 -57q18 -30 37 -54q19 -26 67 -26t78 41q16 25 30 100h101q-12 -135 -111 -215q-51 -41 -129 -41q-79 0 -111 27t-46 50q-14 22 -39 56q-24 34 -66 33q-99 0 -115 -141h-100q20 137 119 215q47 39 124 39zM1082 1415q142 0 264 -55
q250 -113 311 -381q31 -129 2 -280q-57 -294 -307 -505q-250 -210 -546 -210t-466 209q-78 94 -109 228t-4 279q27 144 111 278q166 264 455 380q147 57 289 57zM1054 1272q-238 0 -438 -170q-202 -170 -246 -404t91 -402t373 -169t437 167q200 168 245 405t-89 405
q-135 168 -373 168z" />
    <glyph glyph-name="Odieresis" unicode="&#xd6;" horiz-adv-x="1615" 
d="M955 1719q41 0 60 -26t13 -63q-6 -38 -37 -66t-71 -28t-60 27t-14 63t37 65q31 28 72 28zM1328 1719q42 0 60 -26q19 -26 13 -63q-6 -38 -37 -66t-71 -28t-60 27t-14 63q7 36 37 65q30 28 72 28zM1082 1415q142 0 264 -55q250 -113 311 -381q31 -129 2 -280
q-57 -294 -307 -505q-250 -210 -546 -210t-466 209q-78 94 -109 228t-4 279q27 144 111 278q166 264 455 380q147 57 289 57zM1054 1272q-238 0 -438 -170q-202 -170 -246 -404t91 -402t373 -169t437 167q200 168 245 405t-89 405q-135 168 -373 168z" />
    <glyph glyph-name="multiply" unicode="&#xd7;" horiz-adv-x="942" 
d="M791 217l-82 -82l-238 238l-238 -238l-81 82l235 238l-235 237l81 84l238 -237l238 237l82 -84l-236 -237z" />
    <glyph glyph-name="Oslash" unicode="&#xd8;" horiz-adv-x="1615" 
d="M1042 1272q-224 0 -426 -170q-200 -170 -242 -390t58 -376l963 805q-129 131 -353 131zM848 127q223 0 423 168t245 405q41 207 -58 361l-962 -805q129 -129 352 -129zM804 -16q-142 0 -252 50t-177 120l-109 -91l-63 80l106 90q-51 78 -80 200t-2 267q27 144 111 278
t204 232q251 205 527 205q275 0 447 -172l104 86l66 -80l-105 -86q49 -77 78 -195t0 -269q-56 -291 -307 -504q-117 -99 -261 -155q-145 -56 -287 -56z" />
    <glyph glyph-name="Ugrave" unicode="&#xd9;" horiz-adv-x="1284" 
d="M1020 1536h-115l-168 293h156zM668 125q254 0 376 172q43 59 60 143l184 953h144l-181 -932q-43 -225 -211 -353t-400 -126q-232 0 -351 124t-76 355l180 932h144l-185 -953q-32 -158 60 -236t256 -79z" />
    <glyph glyph-name="Uacute" unicode="&#xda;" horiz-adv-x="1284" 
d="M1290 1829l-282 -293h-115l221 293h176zM668 125q254 0 376 172q43 59 60 143l184 953h144l-181 -932q-43 -225 -211 -353t-400 -126q-232 0 -351 124t-76 355l180 932h144l-185 -953q-32 -158 60 -236t256 -79z" />
    <glyph glyph-name="Ucircumflex" unicode="&#xdb;" horiz-adv-x="1284" 
d="M983 1753l-188 -217h-146l283 293h135l168 -293h-145zM668 125q254 0 376 172q43 59 60 143l184 953h144l-181 -932q-43 -225 -211 -353t-400 -126q-232 0 -351 124t-76 355l180 932h144l-185 -953q-32 -158 60 -236t256 -79z" />
    <glyph glyph-name="Udieresis" unicode="&#xdc;" horiz-adv-x="1284" 
d="M791 1719q41 0 60 -26t13 -64q-6 -37 -37 -65t-71 -28t-60 27t-14 63t37 64q31 29 72 29zM1164 1719q41 0 60 -26t13 -64q-6 -37 -37 -65t-71 -28t-60 27t-14 63t37 64q31 29 72 29zM668 125q254 0 376 172q43 59 60 143l184 953h144l-181 -932q-43 -225 -211 -353
t-400 -126q-232 0 -351 124t-76 355l180 932h144l-185 -953q-32 -158 60 -236t256 -79z" />
    <glyph glyph-name="Yacute" unicode="&#xdd;" horiz-adv-x="1239" 
d="M1274 1829l-283 -293h-114l221 293h176zM819 655l-127 -655h-143l127 655l-385 738h184l301 -596l531 596h182z" />
    <glyph glyph-name="Thorn" unicode="&#xde;" horiz-adv-x="1083" 
d="M715 485q123 0 216 81t118 205t-37 202t-187 78h-323l-111 -566h324zM668 346h-303l-68 -346h-143l270 1393h143l-39 -205h303q184 0 291 -119t70 -302t-186 -302t-338 -119z" />
    <glyph glyph-name="germandbls" unicode="&#xdf;" horiz-adv-x="1130" 
d="M643 137q115 0 221 86q104 86 129 208t-48 198t-191 76h-70l25 126h20q96 0 177 63q82 63 100 154t-39 153q-57 63 -155 63q-245 1 -310 -263q-14 -57 -33 -149l-166 -852h-147l176 903q45 244 153 367q125 143 357 143q156 0 252 -96t65 -250q-19 -94 -83 -165
t-154 -111q114 -45 180 -141t39 -230q-35 -178 -191 -299t-334 -121h-135l21 137h141z" />
    <glyph glyph-name="agrave" unicode="&#xe0;" 
d="M827 1059h-114l-168 293h155zM886 137q-173 -157 -360 -157q-188 0 -285 140t-61 330t190 331q153 141 340 141t285 -144q3 -4 11 -14t10 -16l31 153h143l-176 -901h-144l31 154q-4 -6 -15 -17zM704 778q-134 0 -245 -98t-135 -230t47 -230q72 -98 206 -97q134 -1 245 99
t136 230t-47 228q-73 98 -207 98z" />
    <glyph glyph-name="aacute" unicode="&#xe1;" 
d="M1044 1395l-280 -293h-115l219 293h176zM886 137q-173 -157 -360 -157q-188 0 -285 140t-61 330t190 331q153 141 340 141t285 -144q3 -4 11 -14t10 -16l31 153h143l-176 -901h-144l31 154q-4 -6 -15 -17zM704 778q-134 0 -245 -98t-135 -230t47 -230q72 -98 206 -97
q134 -1 245 99t136 230t-47 228q-73 98 -207 98z" />
    <glyph glyph-name="acircumflex" unicode="&#xe2;" 
d="M791 1276l-191 -217h-145l282 293h135l168 -293h-145zM886 137q-173 -157 -360 -157q-188 0 -285 140t-61 330t190 331q153 141 340 141t285 -144q3 -4 11 -14t10 -16l31 153h143l-176 -901h-144l31 154q-4 -6 -15 -17zM704 778q-134 0 -245 -98t-135 -230t47 -230
q72 -98 206 -97q134 -1 245 99t136 230t-47 228q-73 98 -207 98z" />
    <glyph glyph-name="atilde" unicode="&#xe3;" 
d="M665 1315q77 0 111 -27q34 -26 50 -56t36 -56t68 -25q48 0 78 41q16 25 30 100h101q-12 -135 -111 -215q-51 -41 -129 -41t-111 27t-50 55q-18 28 -38 57q-20 28 -63 27q-98 0 -115 -141h-100q20 137 119 215q47 39 124 39zM886 137q-173 -157 -360 -157q-188 0 -285 140
t-61 330t190 331q153 141 340 141t285 -144q3 -4 11 -14t10 -16l31 153h143l-176 -901h-144l31 154q-4 -6 -15 -17zM704 778q-134 0 -245 -98t-135 -230t47 -230q72 -98 206 -97q134 -1 245 99t136 230t-47 228q-73 98 -207 98z" />
    <glyph glyph-name="adieresis" unicode="&#xe4;" 
d="M579 1241q40 0 60 -27q20 -28 14 -64t-37 -64q-30 -28 -70 -28t-61 27q-20 27 -14 63t37 64t71 29zM952 1241q40 0 60 -27q20 -28 14 -64t-37 -64t-71 -28t-60 28q-20 26 -14 62t37 64t71 29zM886 137q-173 -157 -360 -157q-188 0 -285 140t-61 330t190 331
q153 141 340 141t285 -144q3 -4 11 -14t10 -16l31 153h143l-176 -901h-144l31 154q-4 -6 -15 -17zM704 778q-134 0 -245 -98t-135 -230t47 -230q72 -98 206 -97q134 -1 245 99t136 230t-47 228q-73 98 -207 98z" />
    <glyph glyph-name="aring" unicode="&#xe5;" 
d="M724 1026q-80 0 -131 56q-50 56 -35 137q15 82 87 140t153 58t130 -55t34 -138q-14 -82 -86 -140t-152 -58zM776 1305q-36 0 -67 -25q-31 -24 -37 -58t16 -59t56 -25q36 0 67 26q31 24 37 59t-16 59q-20 24 -56 23zM886 137q-173 -157 -360 -157q-188 0 -285 140t-61 330
t190 331q153 141 340 141t285 -144q3 -4 11 -14t10 -16l31 153h143l-176 -901h-144l31 154q-4 -6 -15 -17zM704 778q-134 0 -245 -98t-135 -230t47 -230q72 -98 206 -97q134 -1 245 99t136 230t-47 228q-73 98 -207 98z" />
    <glyph glyph-name="ae" unicode="&#xe6;" horiz-adv-x="1775" 
d="M384 -20q-121 0 -196 77q-70 80 -43 213q18 98 86 172t162 111h455l10 51q27 137 -110 178q-108 33 -228 -22q-74 -35 -117 -105l-120 56q67 111 179 161q214 94 412 11q90 -37 121 -129q81 80 185 126t203 46t181 -38t132 -95q117 -135 80 -322l-15 -76h-792
q-1 -117 75 -191t176 -75q188 0 310 135h164q-82 -129 -214 -204t-251 -74q-242 0 -348 166q-156 -119 -369 -160q-68 -12 -128 -12zM1634 528q-6 117 -78 186q-72 68 -190 68t-220 -70q-101 -70 -151 -184h639zM454 117q88 0 194 34t192 93q-27 78 -15 192l2 2h-403
q-115 -53 -133 -149q-17 -96 29 -134t134 -38z" />
    <glyph glyph-name="ccedilla" unicode="&#xe7;" horiz-adv-x="1067" 
d="M718 770q-144 0 -255 -96t-135 -227t48 -225q73 -94 202 -93q86 0 168 46t137 120h161q-121 -217 -350 -293q-41 -14 -98 -20l-51 -76q2 2 52 2q96 0 132 -90q33 -90 -33 -200t-217 -129t-282 38l71 106q116 -43 220 -31t126 79q39 106 -71 124q-47 6 -86 -1t-97 -15
l125 195q-70 10 -110 32q-78 37 -127 103q-104 141 -68 331t197 330q164 140 337 140q174 0 278 -94t116 -248h-156q-22 88 -90 140t-144 52z" />
    <glyph glyph-name="egrave" unicode="&#xe8;" horiz-adv-x="1126" 
d="M848 1059h-115l-168 293h156zM983 518q-4 117 -78 191t-190 73q-174 0 -307 -159q-41 -49 -64 -105h639zM572 129q186 0 309 135h163q-82 -129 -214 -204q-132 -74 -250 -74q-217 1 -327 136q-110 136 -73 331t204 333t357 140q190 0 306 -134t79 -321l-14 -76h-793
q-4 -117 74 -191q79 -74 179 -75z" />
    <glyph glyph-name="eacute" unicode="&#xe9;" horiz-adv-x="1126" 
d="M1106 1395l-281 -293h-114l219 293h176zM983 518q-4 117 -78 191t-190 73q-174 0 -307 -159q-41 -49 -64 -105h639zM572 129q186 0 309 135h163q-82 -129 -214 -204q-132 -74 -250 -74q-217 1 -327 136q-110 136 -73 331t204 333t357 140q190 0 306 -134t79 -321l-14 -76
h-793q-4 -117 74 -191q79 -74 179 -75z" />
    <glyph glyph-name="ecircumflex" unicode="&#xea;" horiz-adv-x="1126" 
d="M811 1276l-190 -217h-146l283 293h135l168 -293h-146zM983 518q-4 117 -78 191t-190 73q-174 0 -307 -159q-41 -49 -64 -105h639zM572 129q186 0 309 135h163q-82 -129 -214 -204q-132 -74 -250 -74q-217 1 -327 136q-110 136 -73 331t204 333t357 140q190 0 306 -134
t79 -321l-14 -76h-793q-4 -117 74 -191q79 -74 179 -75z" />
    <glyph glyph-name="edieresis" unicode="&#xeb;" horiz-adv-x="1126" 
d="M620 1241q40 0 60 -27q20 -28 14 -64t-37 -64t-71 -28t-60 27t-14 63t37 64t71 29zM993 1241q40 0 60 -27q20 -28 14 -64t-37 -64t-71 -28t-60 28q-20 26 -14 62t37 64t71 29zM983 518q-4 117 -78 191t-190 73q-174 0 -307 -159q-41 -49 -64 -105h639zM572 129
q186 0 309 135h163q-82 -129 -214 -204q-132 -74 -250 -74q-217 1 -327 136q-110 136 -73 331t204 333t357 140q190 0 306 -134t79 -321l-14 -76h-793q-4 -117 74 -191q79 -74 179 -75z" />
    <glyph glyph-name="igrave" unicode="&#xec;" horiz-adv-x="468" 
d="M500 1059h-115l-168 293h156zM307 0h-143l176 901h143z" />
    <glyph glyph-name="iacute" unicode="&#xed;" horiz-adv-x="468" 
d="M813 1395l-281 -293h-114l219 293h176zM307 0h-143l176 901h143z" />
    <glyph glyph-name="icircumflex" unicode="&#xee;" horiz-adv-x="468" 
d="M483 1276l-190 -217h-146l283 293h135l168 -293h-145zM307 0h-143l176 901h143z" />
    <glyph glyph-name="idieresis" unicode="&#xef;" horiz-adv-x="468" 
d="M292 1241q40 0 60 -27q20 -28 14 -64t-36 -64q-31 -28 -71 -28t-60 28q-21 26 -15 62t37 64t71 29zM665 1241q40 0 60 -27q20 -28 14 -64t-37 -64q-30 -28 -70 -28t-61 27q-20 27 -14 63t37 64t71 29zM307 0h-143l176 901h143z" />
    <glyph glyph-name="eth" unicode="&#xf0;" 
d="M704 778q-134 0 -245 -98t-135 -230t47 -230q72 -98 206 -97q134 -1 245 99t136 230t-47 228q-73 98 -207 98zM886 137q-173 -157 -360 -157q-188 0 -285 140t-61 330t190 331q153 141 340 141t285 -144q3 -4 11 -14t10 -16l71 370h-409l22 117h410l59 301h144l-60 -301
h133l-22 -117h-133l-217 -1118h-144l31 154q-4 -6 -15 -17z" />
    <glyph glyph-name="ntilde" unicode="&#xf1;" horiz-adv-x="1042" 
d="M634 1315q76 0 110 -27q34 -26 52 -56t36 -56q19 -26 67 -25q48 0 78 41q16 25 31 100h100q-12 -135 -111 -215q-51 -41 -129 -41t-112 28t-49 54t-37 56q-22 29 -64 28q-68 0 -98 -72q-12 -27 -16 -69h-101q20 137 119 215q47 39 124 39zM754 776q-162 0 -267 -125
q-82 -100 -116 -274l-74 -377h-143l176 901h143l-31 -156q58 76 142 125q84 50 179 50t147 -27t85 -78q63 -94 33 -252l-108 -563h-144l109 563q18 85 -11 149q-30 64 -120 64z" />
    <glyph glyph-name="ograve" unicode="&#xf2;" horiz-adv-x="1126" 
d="M846 1059h-115l-168 293h156zM561 -14q-195 0 -307 136t-74 331q37 195 204 333q166 138 360 140q194 0 304 -139t74 -334q-38 -195 -202 -331t-359 -136zM715 782q-135 0 -249 -95t-140 -231t50 -232q77 -96 212 -95q134 -1 250 97t142 230t-52 229t-213 97z" />
    <glyph glyph-name="oacute" unicode="&#xf3;" horiz-adv-x="1126" 
d="M1126 1395l-280 -293h-115l219 293h176zM561 -14q-195 0 -307 136t-74 331q37 195 204 333q166 138 360 140q194 0 304 -139t74 -334q-38 -195 -202 -331t-359 -136zM715 782q-135 0 -249 -95t-140 -231t50 -232q77 -96 212 -95q134 -1 250 97t142 230t-52 229t-213 97z
" />
    <glyph glyph-name="ocircumflex" unicode="&#xf4;" horiz-adv-x="1126" 
d="M811 1276l-190 -217h-146l283 293h135l168 -293h-146zM561 -14q-195 0 -307 136t-74 331q37 195 204 333q166 138 360 140q194 0 304 -139t74 -334q-38 -195 -202 -331t-359 -136zM715 782q-135 0 -249 -95t-140 -231t50 -232q77 -96 212 -95q134 -1 250 97t142 230
t-52 229t-213 97z" />
    <glyph glyph-name="otilde" unicode="&#xf5;" horiz-adv-x="1126" 
d="M675 1315q77 0 111 -27q34 -26 50 -56q18 -30 37 -56t67 -25q48 0 78 41q16 25 31 100h100q-12 -135 -111 -215q-51 -41 -129 -41q-79 0 -111 27t-46 50t-38 57t-67 32q-98 0 -115 -141h-100q20 137 119 215q47 39 124 39zM561 -14q-195 0 -307 136t-74 331
q37 195 204 333q166 138 360 140q194 0 304 -139t74 -334q-38 -195 -202 -331t-359 -136zM715 782q-135 0 -249 -95t-140 -231t50 -232q77 -96 212 -95q134 -1 250 97t142 230t-52 229t-213 97z" />
    <glyph glyph-name="odieresis" unicode="&#xf6;" horiz-adv-x="1126" 
d="M620 1241q40 0 60 -27q20 -28 14 -64t-37 -64t-71 -28t-60 27t-14 63t37 64t71 29zM993 1241q40 0 60 -27q20 -28 14 -64t-37 -64t-71 -28t-60 28q-20 26 -14 62t37 64t71 29zM561 -14q-195 0 -307 136t-74 331q37 195 204 333q166 138 360 140q194 0 304 -139t74 -334
q-38 -195 -202 -331t-359 -136zM715 782q-135 0 -249 -95t-140 -231t50 -232q77 -96 212 -95q134 -1 250 97t142 230t-52 229t-213 97z" />
    <glyph glyph-name="divide" unicode="&#xf7;" horiz-adv-x="839" 
d="M549 780q0 -47 -34 -80q-34 -32 -81 -32t-80 32t-32 80q0 47 32 81q33 34 80 34t81 -34t34 -81zM764 397h-686v117h686v-117zM549 117q0 -47 -34 -80t-81 -33t-80 33t-32 80q0 47 32 81q33 34 80 34t81 -34t34 -81z" />
    <glyph glyph-name="oslash" unicode="&#xf8;" horiz-adv-x="1126" 
d="M702 782q-122 0 -236 -95t-138 -217t20 -206l545 457q-69 61 -191 61zM604 129q120 0 235 97q116 97 140 229q20 102 -23 186l-542 -455q70 -57 190 -57zM576 -14q-180 0 -285 98l-127 -109l-66 80l127 107q-78 126 -43 306t202 318t346 140q179 0 286 -103l121 103
l63 -80l-121 -103q74 -125 40 -305q-35 -180 -199 -316t-344 -136z" />
    <glyph glyph-name="ugrave" unicode="&#xf9;" horiz-adv-x="1042" 
d="M805 1059h-115l-168 293h156zM471 -18q-151 0 -217 100t-35 256l111 563h143l-111 -563q-18 -86 11 -150t121 -63q168 0 258 106t127 293l73 377h144l-176 -901h-144l31 154q-135 -172 -336 -172z" />
    <glyph glyph-name="uacute" unicode="&#xfa;" horiz-adv-x="1042" 
d="M1100 1395l-281 -293h-114l219 293h176zM471 -18q-151 0 -217 100t-35 256l111 563h143l-111 -563q-18 -86 11 -150t121 -63q168 0 258 106t127 293l73 377h144l-176 -901h-144l31 154q-135 -172 -336 -172z" />
    <glyph glyph-name="ucircumflex" unicode="&#xfb;" horiz-adv-x="1042" 
d="M770 1276l-190 -217h-146l283 293h135l168 -293h-146zM471 -18q-151 0 -217 100t-35 256l111 563h143l-111 -563q-18 -86 11 -150t121 -63q168 0 258 106t127 293l73 377h144l-176 -901h-144l31 154q-135 -172 -336 -172z" />
    <glyph glyph-name="udieresis" unicode="&#xfc;" horiz-adv-x="1042" 
d="M579 1241q40 0 60 -27q20 -28 14 -64t-37 -64q-30 -28 -70 -28t-61 27q-20 27 -14 63t37 64t71 29zM952 1241q40 0 60 -27q20 -28 14 -64t-37 -64t-71 -28t-60 28q-20 26 -14 62t37 64t71 29zM471 -18q-151 0 -217 100t-35 256l111 563h143l-111 -563q-18 -86 11 -150
t121 -63q168 0 258 106t127 293l73 377h144l-176 -901h-144l31 154q-135 -172 -336 -172z" />
    <glyph glyph-name="yacute" unicode="&#xfd;" horiz-adv-x="870" 
d="M1024 1395l-281 -293h-114l219 293h176zM168 -512h-174l432 659l-229 754h163l170 -604l377 604h160z" />
    <glyph glyph-name="thorn" unicode="&#xfe;" 
d="M765 778q-134 0 -245 -98q-112 -98 -136 -230t48 -230t206 -97q134 -1 246 99t136 230q25 130 -47 228q-74 98 -208 98zM635 -20q-184 0 -289 143l-18 31l-131 -666h-144l400 2048h143l-154 -788l31 30q156 144 342 144q185 0 285 -142t63 -329t-191 -329t-337 -142z" />
    <glyph glyph-name="ydieresis" unicode="&#xff;" horiz-adv-x="870" 
d="M493 1241q40 0 60 -27q20 -28 14 -64t-37 -64q-30 -28 -70 -28t-61 27q-20 27 -14 63t37 64t71 29zM866 1241q40 0 60 -27q20 -28 14 -64t-37 -64t-71 -28t-60 28q-20 26 -14 62t37 64t71 29zM168 -512h-174l432 659l-229 754h163l170 -604l377 604h160z" />
    <glyph glyph-name="dotlessi" unicode="&#x131;" horiz-adv-x="468" 
d="M307 0h-143l176 901h143z" />
    <glyph glyph-name="OE" unicode="&#x152;" horiz-adv-x="2043" 
d="M870 0q-147 0 -268 52q-251 108 -311 366q-31 134 -1 282q61 301 305 496t546 197h1048l-24 -133h-684l-97 -496h664l-27 -135h-663l-96 -496h684l-27 -133h-1049zM895 143h225l215 1106h-225q-244 1 -440 -157t-243 -397q-46 -239 90 -395t378 -157z" />
    <glyph glyph-name="oe" unicode="&#x153;" horiz-adv-x="1923" 
d="M574 -14q-210 0 -320 136q-111 136 -74 331t204 333t359 140q121 0 215 -58t142 -161q84 102 201 160q117 59 224 59t189 -38t131 -95q115 -133 78 -322l-14 -76h-793q-2 -117 75 -191t178 -75q188 0 310 135h164q-84 -131 -216 -205q-132 -73 -261 -73q-128 0 -224 58
t-141 161q-91 -107 -203 -163t-224 -56zM1784 528q-6 115 -79 185q-73 69 -190 69t-221 -70t-149 -184h639zM715 782q-135 0 -249 -95t-140 -231t50 -232q77 -96 212 -95q134 -1 250 97t142 230t-52 229t-213 97z" />
    <glyph glyph-name="circumflex" unicode="&#x2c6;" horiz-adv-x="626" 
d="M313 1753l-147 -217h-146l226 293h135l225 -293h-145z" />
    <glyph glyph-name="caron" unicode="&#x2c7;" horiz-adv-x="2170" 
 />
    <glyph glyph-name="ring" unicode="&#x2da;" horiz-adv-x="546" 
d="M72 1587q0 82 60 139q60 58 140 58t140 -56t61 -140q0 -83 -59 -139q-58 -56 -140 -56t-142 56t-60 138zM184 1588q0 -34 26 -58t64 -25q38 0 62 25q24 24 24 58t-25 59q-27 25 -63 25t-62 -25t-26 -59z" />
    <glyph glyph-name="tilde" unicode="&#x2dc;" horiz-adv-x="858" 
d="M627 1749q77 0 109 -26q32 -27 50 -57t38 -56t67 -25q48 0 78 41q16 25 30 100h101q-12 -135 -111 -215q-51 -41 -129 -41t-110 27t-48 50q-14 23 -38 57t-66 32q-66 0 -96 -71q-16 -31 -19 -70h-100q20 137 119 215q47 39 125 39z" />
    <glyph glyph-name="endash" unicode="&#x2013;" horiz-adv-x="798" 
d="M825 369h-706l22 118h707z" />
    <glyph glyph-name="emdash" unicode="&#x2014;" horiz-adv-x="1411" 
d="M1438 369h-1319l22 118h1319z" />
    <glyph glyph-name="quoteleft" unicode="&#x2018;" horiz-adv-x="417" 
d="M246 1006l334 530h86l-224 -530h-196z" />
    <glyph glyph-name="quoteright" unicode="&#x2019;" horiz-adv-x="417" 
d="M666 1536l-334 -530h-86l223 530h197z" />
    <glyph glyph-name="quotedblleft" unicode="&#x201c;" horiz-adv-x="739" 
d="M246 1006l334 530h86l-224 -530h-196zM567 1006l334 530h86l-223 -530h-197z" />
    <glyph glyph-name="quotedblright" unicode="&#x201d;" horiz-adv-x="739" 
d="M987 1536l-334 -530h-86l224 530h196zM666 1536l-334 -530h-86l223 530h197z" />
    <glyph glyph-name="bullet" unicode="&#x2022;" horiz-adv-x="614" 
d="M541 700q0 -96 -69 -164t-165 -69q-96 0 -165 69q-68 68 -68 164t68 165q69 69 165 69t165 -69t69 -165z" />
    <glyph glyph-name="ellipsis" unicode="&#x2026;" horiz-adv-x="1366" 
d="M1092 -20q-47 0 -83 34t-36 80q0 47 35 82t84 35t85 -34q35 -34 35 -82t-36 -82q-37 -33 -84 -33zM682 -20q-47 0 -83 34t-36 80q0 47 35 82t84 35t85 -34t36 -82q0 -47 -37 -81t-84 -34zM272 -20q-47 0 -83 34t-35 80q0 47 34 82q35 35 84 35t85 -34t36 -82
q0 -47 -37 -81t-84 -34z" />
    <glyph glyph-name="fraction" unicode="&#x2044;" horiz-adv-x="909" 
d="M1087 1391l-858 -1391h-137l856 1391h139z" />
    <glyph glyph-name="trademark" unicode="&#x2122;" horiz-adv-x="1595" 
d="M1546 692h-131l-104 588l-172 -588h-123l-174 588l-103 -588h-131l137 701h156l176 -572l176 572h156zM592 1294h-215v-602h-115v602h-213v99h543v-99z" />
    <glyph glyph-name="minus" unicode="&#x2212;" horiz-adv-x="737" 
d="M739 395h-583l22 117h584z" />
    <glyph glyph-name="apple" unicode="&#xf8ff;" horiz-adv-x="1896" 
d="M1722 774q0 -160 -60 -301q-123 -288 -413 -413q-141 -60 -301 -60t-301 60q-288 123 -413 413q-60 141 -60 301t60 301q123 288 413 413q141 60 301 60t301 -60q288 -123 413 -413q60 -141 60 -301zM1651 774q1 146 -55 274t-151 223t-223 150t-274 55t-273 -54
q-260 -113 -374 -374q-55 -128 -55 -274t55 -273q111 -259 374 -374q128 -55 273 -55q146 0 274 55q261 112 373 374q56 128 56 273zM1386 1042q0 -14 -10 -24l-243 -244l243 -244q10 -10 10 -24t-10 -24t-24 -11q-14 0 -25 10l-270 269q-10 10 -10 24t10 25l270 268
q8 10 27 10h4l12 -4q16 -17 16 -31zM948 1079q35 0 35 -37v-536q0 -35 -35 -35t-35 35v536q0 37 35 37zM813 809q37 0 37 -35t-37 -35h-133q-35 0 -35 35t35 35h133zM510 1042q0 37 35 37t37 -37v-536q0 -35 -37 -35q-14 0 -25 9q-10 9 -10 26v536z" />
    </font>
</defs>
</svg>
