<?xml version="1.0" standalone="no"?>
<!DOCTYPE svg PUBLIC "-//W3C//DTD SVG 1.1//EN" "http://www.w3.org/Graphics/SVG/1.1/DTD/svg11.dtd" >
<svg xmlns="http://www.w3.org/2000/svg">
<metadata>
Created by FontPrep 20130207 at Thu Sep 22 21:59:15 2016
 By Ben Racher
copyright missing
</metadata>
<defs>
<font id="211ac8f8a3bc529cc41961980dffd6dd" horiz-adv-x='1024' >
  <font-face 
    font-family="LeagueSpartan-Bold"
    font-weight="700"
    font-stretch="normal"
    units-per-em="2048"
    panose-1="0 0 8 0 0 0 0 0 0 0"
    ascent="1536"
    descent="-512"
    x-height="1051"
    cap-height="1690"
    bbox="-342 -719 2961.01 2431"
    underline-thickness="102"
    underline-position="-102"
    unicode-range="U+0020-FB04"
  />
<missing-glyph horiz-adv-x="700" 
 />
    <glyph glyph-name=".notdef" horiz-adv-x="700" 
 />
    <glyph glyph-name=".null" horiz-adv-x="0" 
 />
    <glyph glyph-name="nonmarkingreturn" horiz-adv-x="681" 
 />
    <glyph glyph-name="space" unicode=" " horiz-adv-x="559" 
 />
    <glyph glyph-name="exclam" unicode="!" horiz-adv-x="714" 
d="M357 438q97 0 166 -68t69 -166q0 -97 -69 -166t-166 -69t-166 69t-69 166t69 166q69 68 166 68zM225 553l-49 1208h363l-50 -1208h-264z" />
    <glyph glyph-name="quotedbl" unicode="&#x22;" horiz-adv-x="1050" 
d="M752 1720q70 0 122 -47t54 -106v-8q0 -88 -97 -461l-30 -125h-137q-86 492 -86 586v8q0 59 52 106t122 47zM297 1720q70 0 123 -47t53 -106v-8q0 -80 -96 -461l-31 -125h-137q-86 492 -86 586v8q0 59 52 106t122 47z" />
    <glyph glyph-name="numbersign" unicode="#" horiz-adv-x="1705" 
d="M889 696l78 299h-222l-77 -299h221zM602 449l-117 -449h-254l117 449h-209l66 247h209l78 299h-220l66 248h219l117 447h254l-117 -447h221l117 447h254l-117 -447h209l-65 -248h-209l-78 -299h219l-66 -247h-219l-116 -449h-254l116 449h-221z" />
    <glyph glyph-name="dollar" unicode="$" horiz-adv-x="1376" 
d="M850 1972v-289q106 -14 206 -51t146 -67l47 -29l-149 -295q-64 43 -161 77t-182 34t-134 -38t-50 -108q0 -88 195 -173q127 -55 134 -58q7 -2 11 -4q158 -68 271 -184t112 -263q0 -225 -122 -350t-324 -160v-297h-221v283q-199 12 -343 82t-196 113l-22 20l186 311
q26 -20 66 -51t146 -82t189 -51q233 0 234 160q0 71 -67 115q-67 45 -165 91t-135 64q-147 74 -229 184t-82 236q0 182 122 314t296 171v295h221z" />
    <glyph glyph-name="percent" unicode="%" horiz-adv-x="2009" 
d="M1321 373q0 -82 54 -136q54 -55 133 -55t132 54t54 137q0 82 -52 134t-135 52q-82 0 -134 -52t-52 -134zM1057 373q0 176 126 290q127 113 327 113t326 -114t126 -289q0 -176 -129 -290t-322 -114t-323 114t-131 290zM311 1317q1 -82 53 -134q52 -53 134 -53t134 52
t52 135q0 82 -53 136t-132 54t-133 -54t-55 -136zM1620 1690l-983 -1690h-242l983 1690h242zM47 1317q0 176 131 290q132 113 324 113t321 -114t129 -289q0 -176 -126 -290t-326 -114t-327 114q-126 114 -126 290z" />
    <glyph glyph-name="ampersand" unicode="&#x26;" horiz-adv-x="1705" 
d="M496 462q0 -56 57 -92t125 -36t132 24t97 48l33 24l-268 264q-25 -8 -62 -31q-114 -70 -114 -201zM840 1448q-74 0 -111 -47t-37 -105q0 -98 92 -194l31 -29q188 102 189 207q0 168 -164 168zM59 428q0 170 134 289q103 93 278 188q-170 213 -170 375q0 201 140 321
q141 119 389 119t380 -133t131 -307q0 -183 -215 -342q-49 -37 -84 -55l-34 -19l225 -233q74 33 248 213l237 -234q-115 -131 -239 -231l364 -379h-485l-168 174q-78 -55 -115 -79q-37 -25 -109 -61q-126 -63 -319 -65q-283 0 -452 146q-59 51 -97 135q-38 86 -39 178z" />
    <glyph glyph-name="quotesingle" unicode="'" horiz-adv-x="595" 
d="M297 1720q70 0 123 -47t53 -106v-8q0 -80 -96 -461l-31 -125h-137q-86 492 -86 586v8q0 59 52 106t122 47z" />
    <glyph glyph-name="parenleft" unicode="(" horiz-adv-x="825" 
d="M113 612q0 202 40 398q40 198 97 332q118 278 209 399l41 51l235 -100q-39 -45 -94 -158q-55 -112 -94 -227t-70 -305t-31 -389t27 -377t88 -359t119 -270l27 -39l-236 -100q-14 18 -39 51t-86 145t-108 237t-86 317t-39 394z" />
    <glyph glyph-name="parenright" unicode=")" horiz-adv-x="825" 
d="M379 613q0 200 -30 387t-95 372t-135 279l-29 41l236 100q51 -57 126 -190q75 -134 126 -263t93 -327t42 -401q0 -202 -37 -392t-90 -320q-110 -269 -195 -382l-37 -49l-235 100q32 45 90 167q170 366 170 878z" />
    <glyph glyph-name="asterisk" unicode="*" horiz-adv-x="999" 
d="M823 1593l54 -163l-234 -84l135 -203l-135 -92l-143 186l-144 -186l-135 92l135 203l-233 84l53 163l234 -71l2 239h176l2 -239z" />
    <glyph glyph-name="plus" unicode="+" horiz-adv-x="1296" 
d="M805 324h-313v368h-369v314h369v368h313v-368h369v-314h-369v-368z" />
    <glyph glyph-name="comma" unicode="," horiz-adv-x="714" 
d="M357 438q97 0 166 -68t69 -167q0 -303 -344 -588l-105 86q44 38 93 125q49 86 63 162q-78 18 -127 76t-49 148q0 89 68 158q69 68 166 68z" />
    <glyph glyph-name="hyphen" unicode="-" horiz-adv-x="905" 
d="M123 750h659v-314h-659v314z" />
    <glyph glyph-name="period" unicode="." horiz-adv-x="714" 
d="M357 438q97 0 166 -68t69 -166q0 -97 -69 -166t-166 -69t-166 69t-69 166t69 166q69 68 166 68z" />
    <glyph glyph-name="slash" unicode="/" horiz-adv-x="1251" 
d="M1204 1761l-844 -2007h-313l844 2007h313z" />
    <glyph glyph-name="zero" unicode="0" horiz-adv-x="1488" 
d="M446 837q0 -261 78 -395t220 -135q142 0 221 134q77 135 77 397t-78 403t-218 141t-220 -142t-80 -403zM57 844q0 418 199 647q200 229 490 229t488 -229t198 -647q0 -228 -56 -400q-100 -311 -369 -425q-119 -50 -261 -50q-285 0 -480 202q-98 101 -154 273t-55 400z
" />
    <glyph glyph-name="one" unicode="1" horiz-adv-x="845" 
d="M723 1690v-1690h-385v1178l-279 -181v381l482 312h182z" />
    <glyph glyph-name="two" unicode="2" horiz-adv-x="1542" 
d="M762 1720q147 0 271 -42t192 -104q67 -62 109 -148t54 -154q12 -70 11 -164q1 -94 -61 -214q-62 -122 -149 -217q-177 -193 -325 -296l-61 -43h627v-338h-1317v96q134 111 294 262q159 150 273 274q115 124 209 265t94 229q0 35 -7 70q-40 199 -235 199q-81 0 -155 -81
t-109 -161l-35 -80l-321 156q18 62 80 159q61 98 126 162t177 117t258 53z" />
    <glyph glyph-name="three" unicode="3" horiz-adv-x="1361" 
d="M676 1720q242 0 398 -138t157 -346q0 -208 -150 -325q215 -131 215 -380t-177 -405t-449 -157q-145 0 -264 43q-119 44 -186 104q-127 114 -171 226l-14 43l356 174q-1 -31 21 -83t49 -86t81 -62t144 -27q90 0 158 59t68 166q0 106 -72 176q-70 70 -172 70l-74 -12v252
h84q80 0 141 61t61 147t-62 138q-62 53 -134 53q-72 1 -120 -21q-71 -31 -117 -114q-17 -31 -21 -51l-6 -23l-303 148q4 14 12 40t49 89t96 112q56 49 162 89t240 40z" />
    <glyph glyph-name="four" unicode="4" horiz-adv-x="1363" 
d="M780 1176h-4l-301 -482h305v482zM1141 694h196v-338h-196v-356h-361v356h-831v115l811 1219h381v-996z" />
    <glyph glyph-name="five" unicode="5" horiz-adv-x="1312" 
d="M652 -31q-260 -1 -410 107t-205 260l305 147q57 -193 297 -192q104 -1 173 69t69 176t-67 176q-118 122 -372 122q-168 0 -288 -54l141 910h862v-338h-532l-37 -236l47 2q255 0 433 -121q93 -63 145 -184t53 -289q0 -242 -177 -398t-437 -157z" />
    <glyph glyph-name="six" unicode="6" horiz-adv-x="1411" 
d="M449 544q-1 -112 71 -185t185 -73t187 74q74 72 73 184q0 112 -75 186t-183 75q-108 -1 -183 -75t-75 -186zM817 1135q84 0 176 -38q214 -88 305 -296q52 -117 52 -259t-54 -256q-98 -205 -346 -282q-109 -35 -227 -35q-285 0 -479 166t-195 408q0 205 57 337t209 337
l398 473h475l-498 -580q43 25 127 25z" />
    <glyph glyph-name="seven" unicode="7" horiz-adv-x="1409" 
d="M1460 1690v-113l-893 -1577h-454l778 1352h-727v338h1296z" />
    <glyph glyph-name="eight" unicode="8" horiz-adv-x="1406" 
d="M489 516q-1 -94 59 -154t153 -61q93 0 155 60q62 61 62 155t-62 154t-154 61q-92 -1 -152 -61t-61 -154zM891 1238q0 83 -52 137q-52 55 -134 55q-83 0 -137 -54t-54 -137q0 -82 55 -135t137 -53t133 52q52 52 52 135zM1255 1294q0 -256 -217 -383q135 -61 216 -176
t81 -280q0 -207 -191 -346t-442 -139q-250 0 -440 138t-190 347q0 322 295 456q-223 127 -224 383q0 180 171 303t391 123t385 -122t165 -304z" />
    <glyph glyph-name="nine" unicode="9" horiz-adv-x="1411" 
d="M963 1146q0 112 -72 184q-73 72 -185 73q-112 0 -186 -73q-74 -72 -74 -184t75 -187t183 -75t184 76q75 74 75 186zM594 555q-180 0 -349 146q-81 71 -132 188t-51 259t54 256q96 202 345 282q109 35 227 34q286 0 480 -166t194 -407q0 -205 -57 -337t-209 -337
l-398 -473h-475l498 580q-43 -25 -127 -25z" />
    <glyph glyph-name="colon" unicode=":" horiz-adv-x="714" 
d="M357 438q97 0 166 -68t69 -166q0 -97 -69 -166t-166 -69t-166 69t-69 166t69 166q69 68 166 68zM357 1135q97 0 166 -69t69 -166t-69 -166q-69 -68 -166 -68t-166 68t-69 166q0 97 69 166t166 69z" />
    <glyph glyph-name="semicolon" unicode=";" horiz-adv-x="714" 
d="M357 438q97 0 166 -68t69 -167q0 -303 -344 -588l-105 86l33 33q31 34 70 106t53 148q-78 18 -127 76t-49 148q0 89 68 158q69 68 166 68zM357 1135q97 0 166 -69t69 -166t-69 -166q-69 -68 -166 -68t-166 68t-69 166q0 97 69 166t166 69z" />
    <glyph glyph-name="less" unicode="&#x3c;" horiz-adv-x="1355" 
d="M123 973l1120 454v-290l-733 -287l733 -283v-291l-1120 455v242z" />
    <glyph glyph-name="equal" unicode="=" horiz-adv-x="1296" 
d="M123 760h1051v-314h-1051v314zM123 1251h1051v-313h-1051v313z" />
    <glyph glyph-name="greater" unicode="&#x3e;" horiz-adv-x="1355" 
d="M113 567l733 283l-733 287v290l1120 -454v-242l-1120 -455v291z" />
    <glyph glyph-name="question" unicode="?" horiz-adv-x="1220" 
d="M352 204q0 98 69 166t166 68t166 -68t69 -166q0 -97 -70 -166q-68 -69 -165 -69t-166 69t-69 166zM592 1720q238 0 410 -139t172 -350q0 -260 -347 -408q-47 -20 -59 -56t-12 -99v-115h-338v223q0 55 4 87t27 70t61 62q38 25 92 53q55 28 82 44q72 42 72 150
q0 62 -48 110q-48 47 -133 47q-85 -1 -146 -65t-81 -146l-301 145q-1 41 49 121t106 133t158 93t232 40z" />
    <glyph glyph-name="at" unicode="@" horiz-adv-x="1886" 
d="M795 829q0 -71 46 -117t118 -46q71 0 117 47t46 117t-47 119q-47 48 -115 48t-117 -48q-48 -48 -48 -120zM1366 791q0 -32 30 -59t86 -27q116 0 115 200q0 239 -179 393t-444 154q-264 0 -446 -177t-182 -427t182 -419t441 -169q121 0 216 35t130 70l37 34l237 -157
q-8 -10 -22 -28q-15 -18 -69 -66q-113 -98 -296 -149q-111 -30 -233 -30q-250 0 -460 110q-210 109 -336 311t-126 456t126 456t336 310t460 108q367 0 619 -229t253 -586q0 -223 -123 -336t-295 -113t-282 95l-19 -27q-100 -110 -263 -110t-273 118t-109 294q0 175 110 295
q109 120 271 120t264 -98v76h244v-428z" />
    <glyph glyph-name="A" unicode="A" horiz-adv-x="1605" 
d="M993 676l-188 491h-4l-189 -491h381zM981 1690l682 -1690h-414l-125 338h-643l-125 -338h-413l682 1690h356z" />
    <glyph glyph-name="B" unicode="B" horiz-adv-x="1363" 
d="M508 297h121q283 0 282 188q0 113 -70 162q-71 49 -212 49h-121v-399zM508 1028h31q129 0 192 45t64 148q0 172 -256 172h-31v-365zM123 1690h524q238 0 379 -102t141 -328q0 -254 -211 -363q360 -63 361 -426q1 -213 -147 -342t-406 -129h-641v1690z" />
    <glyph glyph-name="C" unicode="C" horiz-adv-x="1542" 
d="M1022 348q88 0 171 27t122 51l39 27l164 -328q-133 -100 -357 -139q-96 -16 -198 -17q-236 0 -447 116q-211 117 -340 319t-129 438q0 178 76 342q149 322 495 467q168 69 338 69t309 -39q138 -39 195 -77l58 -39l-164 -328q-44 37 -144 71q-223 75 -428 -8
q-206 -83 -283 -281q-34 -85 -34 -173q1 -194 145 -346t412 -152z" />
    <glyph glyph-name="D" unicode="D" horiz-adv-x="1511" 
d="M508 344h59q211 0 345 142t136 358t-134 358q-134 143 -347 144h-59v-1002zM123 1690h489q352 0 602 -241t250 -605t-249 -604t-603 -240h-489v1690z" />
    <glyph glyph-name="E" unicode="E" horiz-adv-x="1187" 
d="M1090 1690v-338h-582v-336h557v-338h-557v-340h582v-338h-967v1690h967z" />
    <glyph glyph-name="F" unicode="F" horiz-adv-x="1161" 
d="M1100 1690v-338h-592v-336h547v-338h-547v-678h-385v1690h977z" />
    <glyph glyph-name="G" unicode="G" horiz-adv-x="1697" 
d="M1651 946v-366q-66 -301 -287 -456t-494 -155q-342 0 -582 256t-241 622q0 365 236 619t587 254q412 0 652 -288l-252 -277q-135 217 -377 217q-178 0 -304 -154t-126 -372q0 -217 126 -370t304 -152q147 0 257 89t110 236h-390v297h781z" />
    <glyph glyph-name="H" unicode="H" horiz-adv-x="1560" 
d="M508 678v-678h-385v1690h385v-674h545v674h385v-1690h-385v678h-545z" />
    <glyph glyph-name="I" unicode="I" horiz-adv-x="630" 
d="M508 1690v-1690h-385v1690h385z" />
    <glyph glyph-name="J" unicode="J" horiz-adv-x="960" 
d="M858 1690v-1213q0 -248 -136 -378t-390 -130q-137 0 -238 54t-139 92l-18 16l122 322q121 -115 215 -115t146 58q53 58 53 179v1115h385z" />
    <glyph glyph-name="K" unicode="K" horiz-adv-x="1611" 
d="M508 0h-385v1690h385v-691l579 691h467l-680 -801l787 -889h-531l-622 717v-717z" />
    <glyph glyph-name="L" unicode="L" horiz-adv-x="1157" 
d="M508 1690v-1352h582v-338h-967v1690h385z" />
    <glyph glyph-name="M" unicode="M" horiz-adv-x="1937" 
d="M1520 0l-80 1001h-10l-347 -991h-229l-346 991h-10l-80 -1001h-385l151 1690h410l375 -975l374 975h410l152 -1690h-385z" />
    <glyph glyph-name="N" unicode="N" horiz-adv-x="1691" 
d="M508 1049v-1049h-385v1690h385l672 -1049h4v1049h385v-1690h-385l-672 1049h-4z" />
    <glyph glyph-name="O" unicode="O" horiz-adv-x="1796" 
d="M463 846q0 -293 184 -428q102 -76 252 -76q215 0 325 147t110 355t-112 357t-322 149t-324 -148t-113 -356zM894 -31q-366 0 -606 251t-241 622q0 370 250 624t603 254t601 -253t248 -623t-244 -622q-245 -253 -611 -253z" />
    <glyph glyph-name="P" unicode="P" horiz-adv-x="1363" 
d="M508 934h108q129 0 212 52t83 172t-83 172t-212 52h-108v-448zM123 1690h616q258 0 418 -134t160 -387q0 -254 -162 -398t-416 -144h-231v-627h-385v1690z" />
    <glyph glyph-name="Q" unicode="Q" horiz-adv-x="1775" 
d="M890 1333q-210 0 -318 -141t-109 -345q0 -204 98 -346q98 -143 320 -143q223 0 327 140t104 347q0 208 -106 348t-316 140zM47 846q0 370 246 622t597 252t595 -253t244 -621q0 -300 -162 -530t-426 -310v-8q12 0 108 -20t164 -19q68 0 131 28t88 54l25 29l121 -260
q-10 -26 -50 -73q-38 -46 -78 -77q-40 -32 -107 -56t-142 -24q-125 0 -305 80t-312 80q-72 0 -134 -24t-89 -48l-26 -22l-93 139q12 16 53 59q127 133 218 133v9q-299 57 -483 295q-183 238 -183 565z" />
    <glyph glyph-name="R" unicode="R" horiz-adv-x="1466" 
d="M508 940h45q186 0 252 53q67 53 67 168q0 207 -229 219q-37 2 -90 2h-45v-442zM123 1690h604q243 0 397 -130t154 -372q0 -186 -93 -312t-253 -178l581 -698h-489l-516 668v-668h-385v1690z" />
    <glyph glyph-name="S" unicode="S" horiz-adv-x="1376" 
d="M745 1720q137 0 269 -40t194 -78l62 -41l-156 -308q-67 45 -166 81q-98 36 -185 36t-139 -41t-52 -109t108 -129q74 -43 241 -114q167 -72 283 -192t115 -268q0 -410 -397 -518q-111 -30 -231 -30q-232 0 -393 75t-224 126l-27 23l193 323q26 -20 68 -52t152 -85t193 -53
q244 0 244 166q0 72 -79 123q-57 39 -161 88t-141 67q-154 76 -238 190t-83 244q0 227 167 372q168 144 383 144z" />
    <glyph glyph-name="T" unicode="T" horiz-adv-x="1220" 
d="M16 1352v338h1188v-338h-401v-1352h-385v1352h-402z" />
    <glyph glyph-name="U" unicode="U" horiz-adv-x="1523" 
d="M1421 1690v-1090q0 -311 -168 -471q-167 -160 -491 -160t-492 160t-168 471v1090h385v-977q0 -205 65 -285t210 -80t210 80t64 285v977h385z" />
    <glyph glyph-name="V" unicode="V" horiz-adv-x="1605" 
d="M651 0l-708 1690h434l426 -1110l426 1110h434l-709 -1690h-303z" />
    <glyph glyph-name="W" unicode="W" horiz-adv-x="2295" 
d="M1419 0l-270 948l-270 -948h-428l-482 1690h428l289 -1160h10l308 1160h290l308 -1160h10l289 1160h426l-482 -1690h-426z" />
    <glyph glyph-name="X" unicode="X" horiz-adv-x="1634" 
d="M1704 0h-498l-399 575l-399 -575h-478l639 909l-532 781h459l311 -461l311 461h479l-553 -781z" />
    <glyph glyph-name="Y" unicode="Y" horiz-adv-x="1507" 
d="M946 0h-385v758l-622 932h462l353 -541l352 541h463l-623 -932v-758z" />
    <glyph glyph-name="Z" unicode="Z" horiz-adv-x="1574" 
d="M1487 338v-338h-1454l835 1352h-716v338h1390l-837 -1352h782z" />
    <glyph glyph-name="bracketleft" unicode="[" horiz-adv-x="905" 
d="M123 1761h659v-239h-346v-1815h346v-239h-659v2293z" />
    <glyph glyph-name="backslash" unicode="\" horiz-adv-x="1251" 
d="M891 0l-844 1761h313l844 -1761h-313z" />
    <glyph glyph-name="bracketright" unicode="]" horiz-adv-x="905" 
d="M123 -293h346v1815h-346v239h659v-2293h-659v239z" />
    <glyph glyph-name="asciicircum" unicode="^" horiz-adv-x="1015" 
d="M696 1239l-188 223l-189 -223h-329l424 481h188l424 -481h-330z" />
    <glyph glyph-name="underscore" unicode="_" horiz-adv-x="1050" 
d="M0 -31h1051v-174h-1051v174z" />
    <glyph glyph-name="grave" unicode="`" horiz-adv-x="794" 
d="M283 1720l415 -360l-114 -158l-488 283z" />
    <glyph glyph-name="a" unicode="a" 
d="M432 524q0 -110 68 -178t176 -68t177 70t69 178t-71 176q-71 70 -174 70t-174 -70t-71 -178zM47 524q-1 234 147 396t366 162t353 -132v101h363v-1051h-358v119h-5q-135 -150 -353 -150t-366 161t-147 394z" />
    <glyph glyph-name="b" unicode="b" 
d="M967 524q0 108 -71 178t-174 70t-174 -70t-71 -177t69 -177q70 -70 178 -70t176 69q68 68 67 177zM1352 524q0 -233 -148 -394t-366 -161t-353 150h-4v-119h-358v1761h362v-811q135 131 353 131t366 -162t148 -395z" />
    <glyph glyph-name="c" unicode="c" horiz-adv-x="1005" 
d="M686 784q-106 0 -180 -76t-74 -183t74 -183t172 -76t162 37l18 12l123 -252q-49 -35 -148 -64q-100 -30 -204 -30q-231 0 -407 163q-175 163 -175 391t175 393t407 165q104 -1 192 -25t125 -48l35 -25l-123 -248q-66 49 -172 49z" />
    <glyph glyph-name="d" unicode="d" 
d="M432 524q0 -110 68 -178t176 -68t177 70t69 178t-71 176q-71 70 -174 70t-174 -70t-71 -178zM47 524q-1 234 147 396t366 162t353 -132v811h363v-1761h-358v119h-5q-135 -150 -353 -150t-366 161t-147 394z" />
    <glyph glyph-name="e" unicode="e" horiz-adv-x="1234" 
d="M631 846q-85 0 -139 -47t-58 -123h400q-12 82 -64 126t-139 44zM424 475q0 -111 72 -164t158 -53t136 24q52 24 117 93l262 -131q-164 -274 -544 -275q-238 0 -408 163t-170 392q0 230 170 394t414 164q245 0 401 -145q156 -144 156 -413q0 -37 -2 -49h-762z" />
    <glyph glyph-name="f" unicode="f" horiz-adv-x="768" 
d="M184 1051v223q2 236 111 377t301 141q82 0 157 -24t107 -48l35 -22l-127 -256q-49 28 -113 28q-65 0 -87 -46t-21 -160v-213h241v-277h-241v-774h-363v774h-151v277h151z" />
    <glyph glyph-name="g" unicode="g" 
d="M432 524q0 -110 68 -178t176 -68t177 70t69 178t-71 176q-71 70 -174 70t-174 -70t-71 -178zM657 -248q93 0 175 60t81 186v78q-95 -106 -333 -106t-385 160q-147 161 -148 394q-1 234 147 396t363 162t350 -126h6v95h363v-1080q0 -256 -170 -395t-449 -139
q-450 0 -581 305l297 145q82 -135 284 -135z" />
    <glyph glyph-name="h" unicode="h" horiz-adv-x="1353" 
d="M123 0v1761h362v-821h4q141 141 305 141t299 -84q71 -43 115 -121t43 -184v-692h-362v594q0 82 -52 143q-51 61 -135 61t-150 -62q-66 -64 -67 -142v-594h-362z" />
    <glyph glyph-name="i" unicode="i" horiz-adv-x="618" 
d="M123 1051h362v-1051h-362v1051zM309 1700q87 0 151 -64t64 -151t-63 -151t-151 -64t-152 63t-64 151t64 152t151 64z" />
    <glyph glyph-name="j" unicode="j" horiz-adv-x="608" 
d="M123 -92v1143h362v-1213q0 -153 -79 -269q-41 -60 -119 -96t-150 -36q-189 0 -259 38q-11 5 -34 15t-26 12l112 293q47 -29 93 -31q100 0 100 144zM309 1700q87 0 151 -64t64 -151t-63 -151t-151 -64t-152 63t-64 151t64 152t151 64z" />
    <glyph glyph-name="k" unicode="k" horiz-adv-x="1323" 
d="M485 0h-362v1761h362v-1077l367 367h471l-500 -502l549 -549h-467l-420 420v-420z" />
    <glyph glyph-name="l" unicode="l" horiz-adv-x="608" 
d="M123 0v1761h362v-1761h-362z" />
    <glyph glyph-name="m" unicode="m" horiz-adv-x="2017" 
d="M123 0v1051h362v-111h4q141 141 302 141q115 0 215 -47t151 -145q160 193 338 193t299 -95q121 -94 121 -295v-692h-363v594q0 84 -46 140t-132 56t-128 -48t-46 -115v-627h-362v594q0 84 -46 140t-134 56t-131 -52q-42 -52 -42 -124v-614h-362z" />
    <glyph glyph-name="n" unicode="n" horiz-adv-x="1353" 
d="M123 0v1051h362v-111h4q141 141 305 141t299 -84q71 -43 115 -121t43 -184v-692h-362v594q0 82 -52 143q-51 61 -135 61t-150 -62q-66 -64 -67 -142v-594h-362z" />
    <glyph glyph-name="o" unicode="o" horiz-adv-x="1353" 
d="M432 524q0 -110 68 -178t176 -68t177 70t69 178t-71 176q-71 70 -174 70t-174 -70t-71 -178zM47 524q0 244 182 401q183 157 449 157t447 -158t181 -400t-176 -398q-178 -156 -456 -157t-452 155q-175 156 -175 400z" />
    <glyph glyph-name="p" unicode="p" 
d="M967 526q0 110 -68 178t-176 68t-177 -70t-69 -178t71 -176q71 -70 174 -70t174 70q71 69 71 178zM1352 526q0 -233 -148 -395t-366 -162t-353 131v-632h-362v1583h358v-119h4q135 150 353 150t366 -162q148 -161 148 -394z" />
    <glyph glyph-name="q" unicode="q" 
d="M432 526q0 -108 71 -178t174 -70t174 70t71 177t-69 177t-177 70t-176 -68t-68 -178zM47 526q-1 232 147 394t366 162t353 -150h5v119h358v-1583h-363v632q-135 -131 -353 -131t-366 162t-147 395z" />
    <glyph glyph-name="r" unicode="r" horiz-adv-x="1019" 
d="M123 0v1051h362v-152h4q9 19 47 57t72 62q88 62 203 63q59 0 117 -16t84 -33l28 -16l-151 -307q-68 57 -189 57q-66 0 -112 -29t-74 -84q-27 -55 -29 -100v-553h-362z" />
    <glyph glyph-name="s" unicode="s" horiz-adv-x="1007" 
d="M580 1081q90 0 178 -20t131 -41l43 -21l-119 -237q-123 66 -233 65q-61 0 -87 -13t-26 -50t39 -55l19 -9q7 -4 23 -10t38 -14q21 -8 88 -25q68 -17 173 -95t103 -228q0 -358 -497 -359q-113 0 -214 35t-147 70l-45 37l148 247q45 -39 127 -80t133 -40q113 0 112 75
q0 35 -28 55q-29 19 -98 44q-176 64 -263 160q-57 65 -57 171q0 160 124 249t335 89z" />
    <glyph glyph-name="t" unicode="t" horiz-adv-x="808" 
d="M629 295q46 0 90 33l90 -293q-117 -66 -243 -66q-228 0 -311 132q-69 109 -71 270v403h-151v277h151v391h363v-391h221v-277h-221v-334q0 -145 82 -145z" />
    <glyph glyph-name="u" unicode="u" horiz-adv-x="1343" 
d="M465 1051v-500q0 -155 47 -221t160 -66q114 0 160 66t47 221v500h362v-588q0 -262 -136 -378t-433 -116t-433 116t-137 378v588h363z" />
    <glyph glyph-name="v" unicode="v" horiz-adv-x="1290" 
d="M389 1051l256 -572l256 572h430l-563 -1051h-246l-563 1051h430z" />
    <glyph glyph-name="w" unicode="w" horiz-adv-x="2019" 
d="M768 0h-246l-563 1051h418l256 -568l252 568h250l251 -568l256 568h418l-563 -1051h-246l-241 543z" />
    <glyph glyph-name="x" unicode="x" horiz-adv-x="1339" 
d="M1339 0h-438l-231 297l-232 -297h-438l449 549l-386 502h424l183 -244l182 244h424l-385 -502z" />
    <glyph glyph-name="y" unicode="y" horiz-adv-x="1296" 
d="M920 1051h417l-825 -1583h-418l363 696l-498 887h418l293 -539z" />
    <glyph glyph-name="z" unicode="z" horiz-adv-x="1148" 
d="M1098 276v-276h-1088l520 774h-434v277h1043l-521 -775h480z" />
    <glyph glyph-name="braceleft" unicode="{" horiz-adv-x="913" 
d="M123 518v193q143 0 143 133v547q0 143 64 247q77 125 262 123h199v-262h-82q-55 0 -93 -39t-36 -100v-526q0 -154 -125 -220q125 -66 125 -219v-526q0 -61 36 -100t93 -39h82v-262h-199q-189 0 -262 122q-62 101 -64 248v547q0 133 -143 133z" />
    <glyph glyph-name="bar" unicode="|" horiz-adv-x="559" 
d="M123 0v1761h313v-1761h-313z" />
    <glyph glyph-name="braceright" unicode="}" horiz-adv-x="913" 
d="M791 711v-193q-143 0 -144 -133v-547q0 -144 -63 -248q-76 -124 -262 -122h-199v262h82q55 0 92 39t37 100v526q0 154 125 219q-125 66 -125 220v526q0 61 -37 100t-92 39h-82v262h199q188 0 262 -123q63 -103 63 -247v-547q1 -133 144 -133z" />
    <glyph glyph-name="asciitilde" unicode="~" horiz-adv-x="1421" 
d="M484 795q-52 0 -95 -40t-59 -79l-17 -41l-190 166q88 176 236 250q109 55 251 11q61 -20 90 -36t107 -67t130 -51t95 39q43 40 60 81l16 39l190 -166q-88 -176 -236 -250q-62 -31 -126 -30q-137 0 -301 108q-99 66 -151 66z" />
    <glyph glyph-name="exclamdown" unicode="&#xa1;" horiz-adv-x="714" 
d="M176 -532l49 1208h264l50 -1208h-363zM592 1025q0 -97 -69 -165t-166 -69q-97 1 -166 69t-69 165t69 166t166 69t166 -69t69 -166z" />
    <glyph glyph-name="cent" unicode="&#xa2;" horiz-adv-x="1005" 
d="M508 -264v248q-195 40 -328 192t-133 339t114 333t285 203v252h222v-224q92 -5 170 -29t110 -46l33 -21l-123 -248q-68 49 -173 49t-179 -76t-74 -183t74 -183t172 -76t162 37l18 12l123 -252q-88 -66 -252 -88v-239h-221z" />
    <glyph glyph-name="sterling" unicode="&#xa3;" horiz-adv-x="1533" 
d="M113 793h209q-106 168 -107 350q0 252 151 416t425 163q135 0 241 -40t164 -97q121 -120 143 -213l13 -39l-324 -157l-5 25q-3 15 -22 56q-38 87 -110 128q-45 26 -100 26q-91 0 -143 -74t-52 -184t18 -165q18 -54 26 -74q7 -20 29 -65q22 -46 25 -56h355v-201h-281
q6 -43 6 -111t-43 -129l-14 -20q2 0 117 -34t185 -34t105 37t43 74l9 37l280 -140q-7 -42 -35 -99q-29 -58 -65 -98t-110 -73q-72 -33 -186 -33q-114 -1 -321 59t-269 60t-88 -22q-24 -22 -30 -43l-4 -23h-235q0 61 34 143q35 82 107 152t158 70q63 90 8 227h-307v201z" />
    <glyph glyph-name="yen" unicode="&#xa5;" horiz-adv-x="1564" 
d="M154 225v273h436v123h-436v272h346l-533 797h463l352 -541l353 541h462l-532 -797h344v-272h-434v-123h434v-273h-434v-225h-385v225h-436z" />
    <glyph glyph-name="brokenbar" unicode="&#xa6;" horiz-adv-x="559" 
d="M123 0v680h313v-680h-313zM123 1081v680h313v-680h-313z" />
    <glyph glyph-name="section" unicode="&#xa7;" horiz-adv-x="1310" 
d="M612 774l-49 23q-172 -49 -180 -172q2 -47 49 -93t120 -84q73 -39 101 -50q29 -11 35 -15l47 -23q174 45 183 172q-2 46 -50 92t-115 82q-68 36 -102 50q-33 14 -39 18zM979 223q182 -137 182 -335q0 -98 -27 -166q-116 -285 -530 -285q-146 0 -252 40t-160 98
q-116 124 -135 212l-10 41l328 70q21 -62 54 -92q72 -66 161 -66q168 0 168 113q0 61 -90 114q-71 43 -244 124q-174 81 -276 195q-101 114 -101 279q6 117 78 215t197 154q-94 68 -138 152t-45 206q0 180 134 304t395 124q178 0 297 -78t175 -216q13 -32 21 -72l-327 -70
q0 10 -12 40t-28 47t-50 31t-86 15q-52 0 -86 -32q-34 -31 -34 -83t73 -100q73 -47 257 -132t284 -199q101 -114 101 -279q-5 -117 -77 -215t-197 -154z" />
    <glyph glyph-name="dieresis" unicode="&#xa8;" horiz-adv-x="1148" 
d="M817 1620q78 0 133 -55q56 -55 56 -133t-56 -134t-133 -55q-78 0 -133 55q-55 56 -55 134t55 133t133 55zM332 1620q78 0 133 -55t55 -133t-55 -134t-133 -55q-78 0 -133 55q-55 56 -55 134t54 133q56 55 134 55z" />
    <glyph glyph-name="copyright" unicode="&#xa9;" horiz-adv-x="1845" 
d="M961 422q-176 0 -312 125q-135 125 -135 300t135 303t312 128q78 0 160 -21t108 -51l-88 -182l-19 8q-63 25 -132 25q-70 -1 -128 -61t-59 -147q0 -87 58 -147q59 -60 141 -61q82 0 137 33l90 -185l-33 -18q-30 -17 -98 -33t-137 -16zM281 845q0 -265 188 -453
q187 -188 453 -189q266 0 454 188q188 187 188 453t-188 454t-453 188t-453 -188t-189 -453zM47 845q0 361 257 618q256 257 618 257t619 -257t257 -618t-257 -619t-618 -257q-361 0 -619 257q-257 258 -257 619z" />
    <glyph glyph-name="ordfeminine" unicode="&#xaa;" horiz-adv-x="1048" 
d="M535 1528q-63 0 -107 -43t-45 -110q0 -67 42 -109t109 -43q68 0 110 43q42 44 42 110t-44 109t-107 43zM461 1032q-135 0 -227 100t-91 243q0 145 91 245q92 100 226 100t222 -82v62h223v-649h-221v73h-2q-86 -92 -221 -92z" />
    <glyph glyph-name="guillemotleft" unicode="&#xab;" horiz-adv-x="1280" 
d="M979 57l-399 512l399 512l190 -149l-282 -363l282 -362zM467 57l-399 512l399 512l190 -149l-282 -363l282 -362z" />
    <glyph glyph-name="registered" unicode="&#xae;" horiz-adv-x="1011" 
d="M461 1286h12q76 0 76 56t-76 57h-12v-113zM365 1475h149q61 0 100 -33t39 -92q0 -92 -86 -123l150 -176h-127l-129 168v-168h-96v424zM506 1597q-140 0 -238 -99t-98 -237q0 -139 98 -237t238 -98t237 97q99 97 99 237t-98 238q-98 99 -238 99zM47 1261q0 189 134 324
t325 135q190 0 324 -135t134 -324t-134 -323t-324 -135q-190 0 -325 134q-134 135 -134 324z" />
    <glyph glyph-name="macron" unicode="&#xaf;" horiz-adv-x="1122" 
d="M143 1544h836v-246h-836v246z" />
    <glyph glyph-name="degree" unicode="&#xb0;" horiz-adv-x="761" 
d="M293 1581q1 -39 25 -67t63 -28t65 28t25 67q0 39 -26 66q-25 27 -63 27t-64 -27q-25 -27 -25 -66zM143 1581q0 91 69 151t169 60t169 -59q68 -59 68 -151t-66 -152t-171 -60q-104 0 -171 60t-67 151z" />
    <glyph glyph-name="plusminus" unicode="&#xb1;" horiz-adv-x="1296" 
d="M123 313h1051v-313h-1051v313zM805 426h-313v317h-369v314h369v317h313v-317h369v-314h-369v-317z" />
    <glyph glyph-name="twosuperior" unicode="&#xb2;" horiz-adv-x="546" 
d="M311 1593q-33 -1 -61 -31t-41 -63l-14 -31l-125 62q5 22 30 60t50 64q24 26 68 46t108 20t120 -24q121 -52 121 -207q0 -69 -58 -145t-116 -119l-57 -43h244v-131h-514v36q218 187 303 313q37 54 37 89q-1 104 -95 104z" />
    <glyph glyph-name="threesuperior" unicode="&#xb3;" horiz-adv-x="518" 
d="M264 1720q92 0 152 -53t59 -132q0 -79 -57 -124q82 -49 82 -145t-68 -156t-176 -59q-108 0 -160 50t-78 109l138 66q0 -34 30 -67q30 -31 74 -31q43 0 69 22t25 64q0 42 -26 68t-68 26l-27 -4v96h31q30 0 54 24t24 56t-25 53t-59 21t-56 -20q-24 -20 -30 -40l-6 -20
l-115 55q19 58 51 84q70 57 162 57z" />
    <glyph glyph-name="acute" unicode="&#xb4;" horiz-adv-x="1159" 
d="M279 1360l415 360l187 -235l-488 -283z" />
    <glyph glyph-name="paragraph" unicode="&#xb6;" horiz-adv-x="1449" 
d="M1116 0v1477h-125v-1477h-211v627h-196q-240 -1 -388 159t-148 382t146 372q148 150 390 150h743v-1690h-211z" />
    <glyph glyph-name="periodcentered" unicode="&#xb7;" horiz-adv-x="714" 
d="M357 786q97 0 166 -68t69 -166q0 -97 -69 -166t-166 -69t-166 69t-69 166t69 166q69 68 166 68z" />
    <glyph glyph-name="cedilla" unicode="&#xb8;" horiz-adv-x="913" 
d="M770 -343q0 -103 -77 -181t-234 -78q-82 0 -161 43t-118 84l-37 43l148 110q30 -37 78 -66q49 -30 96 -30t72 24t25 62t-40 63q-38 23 -100 23t-92 -18l-21 16l99 301l143 -45l-45 -137q96 0 180 -55t84 -159z" />
    <glyph glyph-name="onesuperior" unicode="&#xb9;" horiz-adv-x="286" 
d="M268 1690v-639h-145v444l-105 -68v146l181 117h69z" />
    <glyph glyph-name="ordmasculine" unicode="&#xba;" horiz-adv-x="1067" 
d="M383 1374q0 -68 42 -110t109 -41q68 0 110 43q42 44 42 110t-44 109t-107 43t-107 -43t-45 -111zM143 1374q0 150 114 248t279 98q164 0 276 -98t112 -248t-110 -246t-282 -96t-280 96q-109 96 -109 246z" />
    <glyph glyph-name="guillemotright" unicode="&#xbb;" horiz-adv-x="1280" 
d="M623 207l282 362l-282 363l190 149l399 -512l-399 -512zM301 1081l399 -512l-399 -512l-190 150l282 362l-282 363z" />
    <glyph glyph-name="onequarter" unicode="&#xbc;" horiz-adv-x="1794" 
d="M1401 684h-2l-174 -281h176v281zM1612 403h112v-196h-112v-207h-211v207h-483v67l473 709h221v-580zM1432 1690l-983 -1690h-242l983 1690h242zM508 1690v-983h-223v686l-162 -107v223l278 181h107z" />
    <glyph glyph-name="onehalf" unicode="&#xbd;" horiz-adv-x="1935" 
d="M1460 801q-53 0 -96 -46t-61 -91l-21 -48l-184 89q12 33 46 90t70 94q98 98 262 98q95 0 176 -35q80 -35 116 -92q62 -100 63 -213q0 -63 -35 -133t-107 -149t-165 -146l-35 -24h360v-195h-755v55q63 50 161 143q99 92 165 164t119 153q54 81 54 121t-6 69t-40 63t-87 33
zM1432 1690l-983 -1690h-242l983 1690h242zM508 1690v-983h-223v686l-162 -107v223l278 181h107z" />
    <glyph glyph-name="threequarters" unicode="&#xbe;" horiz-adv-x="2000" 
d="M1608 684h-2l-174 -281h176v281zM1819 403h112v-196h-112v-207h-211v207h-484v67l473 709h222v-580zM1638 1690l-983 -1690h-241l983 1690h241zM438 1696q138 0 226 -78t88 -197t-84 -184q123 -76 123 -216q1 -140 -101 -230t-256 -91q-84 0 -152 25t-104 59
q-77 72 -96 129l-8 25l202 98q0 -12 12 -44t27 -51q37 -50 107 -50q71 0 110 34t39 94t-40 99t-99 39l-41 -6v143h47q45 0 80 35t35 83t-36 79t-86 31t-86 -30t-46 -58l-8 -31l-172 84q7 28 32 68q25 41 57 69t93 50t137 22z" />
    <glyph glyph-name="questiondown" unicode="&#xbf;" horiz-adv-x="1220" 
d="M629 -563q-238 0 -410 139t-172 350q0 260 346 408q57 24 69 90q3 23 3 65v115h338v-223q-1 -84 -17 -133q-16 -50 -64 -80t-104 -58t-82 -44t-49 -52t-23 -100q0 -62 49 -109q48 -47 133 -47t146 65q60 65 80 146l302 -145q0 -39 -50 -120q-50 -80 -105 -134
q-57 -54 -159 -93q-102 -40 -231 -40zM634 719q-97 1 -166 69t-69 165t69 166t166 69t166 -69q68 -69 68 -166t-68 -166q-69 -68 -166 -68z" />
    <glyph glyph-name="Agrave" unicode="&#xc0;" horiz-adv-x="1605" 
d="M993 676l-188 491h-4l-189 -491h381zM981 1690l682 -1690h-414l-125 338h-643l-125 -338h-413l682 1690h356zM506 2359l416 -360l-115 -158l-488 283z" />
    <glyph glyph-name="Aacute" unicode="&#xc1;" horiz-adv-x="1605" 
d="M993 676l-188 491h-4l-189 -491h381zM981 1690l682 -1690h-414l-125 338h-643l-125 -338h-413l682 1690h356zM682 1999l416 360l186 -235l-487 -283z" />
    <glyph glyph-name="Acircumflex" unicode="&#xc2;" horiz-adv-x="1605" 
d="M993 676l-188 491h-4l-189 -491h381zM981 1690l682 -1690h-414l-125 338h-643l-125 -338h-413l682 1690h356zM350 2028l453 331l452 -331l-139 -187l-313 230l-314 -230z" />
    <glyph glyph-name="Atilde" unicode="&#xc3;" horiz-adv-x="1605" 
d="M993 676l-188 491h-4l-189 -491h381zM981 1690l682 -1690h-414l-125 338h-643l-125 -338h-413l682 1690h356zM629 1993q-29 0 -53 -24t-31 -48l-8 -23h-207q16 111 83 230q28 47 80 85t118 38t175 -41l35 -15q82 -39 156 -38q29 -1 53 23t31 48l8 23h207
q-16 -111 -83 -230q-28 -47 -80 -85t-119 -38t-175 41l-35 15q-82 39 -155 39z" />
    <glyph glyph-name="Adieresis" unicode="&#xc4;" horiz-adv-x="1605" 
d="M993 676l-188 491h-4l-189 -491h381zM981 1690l682 -1690h-414l-125 338h-643l-125 -338h-413l682 1690h356zM1044 2259q78 0 134 -55t55 -133q0 -77 -55 -133q-56 -56 -134 -56t-133 55t-55 133t55 134q55 55 133 55zM559 2259q78 0 133 -55q56 -55 56 -133
q0 -77 -56 -133t-133 -56q-78 0 -133 55t-55 133t55 134q55 55 133 55z" />
    <glyph glyph-name="Aring" unicode="&#xc5;" horiz-adv-x="1605" 
d="M993 676l-188 491h-4l-189 -491h381zM981 1690l682 -1690h-414l-125 338h-643l-125 -338h-413l682 1690h356zM678 2138q0 -53 35 -91t89 -38t90 38t36 92t-37 91t-88 37t-88 -38t-37 -91zM473 2139q0 128 95 210q96 82 236 82t234 -82t94 -210t-92 -210t-238 -82t-238 82
q-91 82 -91 210z" />
    <glyph glyph-name="AE" unicode="&#xc6;" horiz-adv-x="2007" 
d="M942 676v618h-4l-256 -618h260zM1909 1690v-338h-582v-336h557v-338h-557v-340h582v-338h-967v338h-395l-144 -338h-413l772 1690h1147z" />
    <glyph glyph-name="Ccedilla" unicode="&#xc7;" horiz-adv-x="1542" 
d="M47 842q0 178 76 342q149 322 495 467q168 69 338 69t309 -39q138 -39 195 -77l58 -39l-164 -328q-44 37 -144 71q-223 75 -428 -8q-206 -83 -283 -281q-34 -85 -34 -173q1 -194 145 -346t412 -152q88 0 171 27t122 51l39 27l164 -328q-133 -100 -334 -134t-344 -14
l-35 -106q96 0 180 -55t84 -159q0 -103 -77 -181t-234 -78q-82 0 -161 43t-118 84l-37 43l148 110q30 -37 78 -66q49 -30 96 -30t72 24q24 24 24 62t-39 63q-39 23 -101 23t-91 -18l-21 16l84 258q-279 86 -462 316t-183 516z" />
    <glyph glyph-name="Egrave" unicode="&#xc8;" horiz-adv-x="1187" 
d="M1090 1690v-338h-582v-336h557v-338h-557v-340h582v-338h-967v1690h967zM297 2359l416 -360l-115 -158l-487 283z" />
    <glyph glyph-name="Eacute" unicode="&#xc9;" horiz-adv-x="1187" 
d="M1090 1690v-338h-582v-336h557v-338h-557v-340h582v-338h-967v1690h967zM352 1999l416 360l186 -235l-487 -283z" />
    <glyph glyph-name="Ecircumflex" unicode="&#xca;" horiz-adv-x="1187" 
d="M1090 1690v-338h-582v-336h557v-338h-557v-340h582v-338h-967v1690h967zM141 2028l453 331l453 -331l-140 -187l-313 230l-313 -230z" />
    <glyph glyph-name="Edieresis" unicode="&#xcb;" horiz-adv-x="1187" 
d="M1090 1690v-338h-582v-336h557v-338h-557v-340h582v-338h-967v1690h967zM836 2259q78 0 133 -55t55 -133q0 -77 -55 -133t-133 -56t-134 55q-55 55 -55 133t55 134q56 55 134 55zM350 2259q78 0 133 -55t55 -133q0 -77 -54 -133q-56 -56 -134 -56t-133 55t-55 133t55 134
q55 55 133 55z" />
    <glyph glyph-name="Igrave" unicode="&#xcc;" horiz-adv-x="630" 
d="M508 1690v-1690h-385v1690h385zM18 2359l416 -360l-115 -158l-487 283z" />
    <glyph glyph-name="Iacute" unicode="&#xcd;" horiz-adv-x="630" 
d="M508 1690v-1690h-385v1690h385zM115 1999l415 360l187 -235l-488 -283z" />
    <glyph glyph-name="Icircumflex" unicode="&#xce;" horiz-adv-x="630" 
d="M508 1690v-1690h-385v1690h385zM-137 2028l452 331l453 -331l-139 -187l-314 230l-313 -230z" />
    <glyph glyph-name="Idieresis" unicode="&#xcf;" horiz-adv-x="630" 
d="M508 1690v-1690h-385v1690h385zM559 2259q78 0 133 -55q56 -55 56 -133q0 -77 -56 -133t-133 -56q-78 0 -133 55t-55 133t55 134q55 55 133 55zM74 2259q78 0 133 -55t55 -133q0 -77 -55 -133t-133 -56t-133 55t-55 133t54 134q56 55 134 55z" />
    <glyph glyph-name="Eth" unicode="&#xd0;" horiz-adv-x="1589" 
d="M586 1346v-345h223v-313h-223v-344h59q213 0 347 144t133 357q-1 214 -135 357t-345 144h-59zM33 688v313h168v689h489q354 0 603 -241t248 -605t-250 -604t-601 -240h-489v688h-168z" />
    <glyph glyph-name="Ntilde" unicode="&#xd1;" horiz-adv-x="1691" 
d="M508 1049v-1049h-385v1690h385l672 -1049h4v1049h385v-1690h-385l-672 1049h-4zM672 1993q-28 0 -52 -24t-32 -48l-8 -23h-207q16 111 83 230q28 47 80 85t120 38t171 -41l37 -15q82 -39 156 -38q28 -1 52 23t32 48l8 23h207q-16 -111 -83 -230q-28 -47 -80 -85t-121 -38
t-171 41l-37 15q-82 39 -155 39z" />
    <glyph glyph-name="Ograve" unicode="&#xd2;" horiz-adv-x="1796" 
d="M463 846q0 -293 184 -428q102 -76 252 -76q215 0 325 147t110 355t-112 357t-322 149t-324 -148t-113 -356zM894 -31q-366 0 -606 251t-241 622q0 370 250 624t603 254t601 -253t248 -623t-244 -622q-245 -253 -611 -253zM600 2359l416 -360l-115 -158l-487 283z" />
    <glyph glyph-name="Oacute" unicode="&#xd3;" horiz-adv-x="1796" 
d="M463 846q0 -293 184 -428q102 -76 252 -76q215 0 325 147t110 355t-112 357t-322 149t-324 -148t-113 -356zM894 -31q-366 0 -606 251t-241 622q0 370 250 624t603 254t601 -253t248 -623t-244 -622q-245 -253 -611 -253zM696 1999l416 360l186 -235l-487 -283z" />
    <glyph glyph-name="Ocircumflex" unicode="&#xd4;" horiz-adv-x="1796" 
d="M463 846q0 -293 184 -428q102 -76 252 -76q215 0 325 147t110 355t-112 357t-322 149t-324 -148t-113 -356zM894 -31q-366 0 -606 251t-241 622q0 370 250 624t603 254t601 -253t248 -623t-244 -622q-245 -253 -611 -253zM444 2028l453 331l453 -331l-140 -187l-313 230
l-313 -230z" />
    <glyph glyph-name="Otilde" unicode="&#xd5;" horiz-adv-x="1796" 
d="M463 846q0 -293 184 -428q102 -76 252 -76q215 0 325 147t110 355t-112 357t-322 149t-324 -148t-113 -356zM894 -31q-366 0 -606 251t-241 622q0 370 250 624t603 254t601 -253t248 -623t-244 -622q-245 -253 -611 -253zM723 1993q-29 0 -53 -24t-31 -48l-8 -23h-207
q16 111 83 230q28 47 80 85t119 38t175 -41l34 -15q82 -39 156 -38q29 -1 53 23t31 48l8 23h207q-16 -111 -83 -230q-28 -47 -80 -85t-117 -38t-177 41l-34 15q-82 39 -156 39z" />
    <glyph glyph-name="Odieresis" unicode="&#xd6;" horiz-adv-x="1796" 
d="M463 846q0 -293 184 -428q102 -76 252 -76q215 0 325 147t110 355t-112 357t-322 149t-324 -148t-113 -356zM894 -31q-366 0 -606 251t-241 622q0 370 250 624t603 254t601 -253t248 -623t-244 -622q-245 -253 -611 -253zM1141 2259q78 0 133 -55t55 -133q0 -77 -55 -133
t-133 -56t-133 55q-56 55 -56 133t56 134q56 55 133 55zM655 2259q78 0 133 -55q56 -55 56 -133q0 -77 -56 -133t-133 -56q-78 0 -133 55t-55 133t55 134q55 55 133 55z" />
    <glyph glyph-name="multiply" unicode="&#xd7;" horiz-adv-x="1296" 
d="M1182 537l-219 -222l-314 314l-313 -314l-221 224l311 311l-311 313l221 219l311 -311l314 311l221 -221l-314 -313z" />
    <glyph glyph-name="Oslash" unicode="&#xd8;" horiz-adv-x="1796" 
d="M1333 846q0 137 -51 252l-571 -719q80 -37 188 -37q215 0 325 147q109 148 109 357zM463 846q0 -143 47 -256l571 721q-82 39 -182 39q-209 0 -323 -148t-113 -356zM47 858q0 354 250 608t602 254q223 0 420 -112l111 139l229 -176l-119 -150q209 -246 209 -575
q0 -371 -244 -624t-606 -253q-236 0 -428 109l-104 -133l-230 176l113 141q-203 242 -203 596z" />
    <glyph glyph-name="Ugrave" unicode="&#xd9;" horiz-adv-x="1523" 
d="M1036 1690h385v-1090q0 -311 -168 -471q-167 -160 -491 -160t-492 160t-168 471v1090h385v-977q0 -205 65 -285t210 -80t210 80t64 285v977zM465 2359l416 -360l-115 -158l-487 283z" />
    <glyph glyph-name="Uacute" unicode="&#xda;" horiz-adv-x="1523" 
d="M1036 1690h385v-1090q0 -311 -168 -471q-167 -160 -491 -160t-492 160t-168 471v1090h385v-977q0 -205 65 -285t210 -80t210 80t64 285v977zM520 1999l416 360l186 -235l-487 -283z" />
    <glyph glyph-name="Ucircumflex" unicode="&#xdb;" horiz-adv-x="1523" 
d="M1036 1690h385v-1090q0 -311 -168 -471q-167 -160 -491 -160t-492 160t-168 471v1090h385v-977q0 -205 65 -285t210 -80t210 80t64 285v977zM309 2028l453 331l452 -331l-139 -187l-313 230l-313 -230z" />
    <glyph glyph-name="Udieresis" unicode="&#xdc;" horiz-adv-x="1523" 
d="M1036 1690h385v-1090q0 -311 -168 -471q-167 -160 -491 -160t-492 160t-168 471v1090h385v-977q0 -205 65 -285t210 -80t210 80t64 285v977zM1004 2259q78 0 133 -55t55 -133q0 -77 -55 -133t-133 -56t-134 55q-55 55 -55 133t55 134q56 55 134 55zM518 2259
q78 0 133 -55t55 -133q0 -77 -54 -133q-56 -56 -134 -56t-133 55t-55 133t55 134q55 55 133 55z" />
    <glyph glyph-name="Yacute" unicode="&#xdd;" horiz-adv-x="1507" 
d="M946 0h-385v758l-622 932h462l353 -541l352 541h463l-623 -932v-758zM514 1999l416 360l186 -235l-487 -283z" />
    <glyph glyph-name="Thorn" unicode="&#xde;" horiz-adv-x="1363" 
d="M508 621h108q285 0 285 224t-285 224h-108v-448zM508 1690v-314h231q258 0 418 -133t160 -387t-162 -398t-416 -145h-231v-313h-385v1690h385z" />
    <glyph glyph-name="germandbls" unicode="&#xdf;" horiz-adv-x="1343" 
d="M668 -31v332q106 0 175 67q69 66 69 178t-66 182q-64 70 -178 69v276q92 -1 156 61t65 155q0 93 -49 145t-122 53q-73 0 -122 -50t-49 -134v-1303h-363v666h-135v276h135v332q0 226 154 372t364 146q236 -4 382 -146t146 -366t-204 -338q270 -125 270 -420
q0 -242 -177 -398t-451 -155z" />
    <glyph glyph-name="agrave" unicode="&#xe0;" 
d="M432 524q0 -110 68 -178t176 -68t177 70t69 178t-71 176q-71 70 -174 70t-174 -70t-71 -178zM47 524q-1 234 147 396t366 162t353 -132v101h363v-1051h-358v119h-5q-135 -150 -353 -150t-366 161t-147 394zM401 1720l416 -360l-115 -158l-487 283z" />
    <glyph glyph-name="aacute" unicode="&#xe1;" 
d="M432 524q0 -110 68 -178t176 -68t177 70t69 178t-71 176q-71 70 -174 70t-174 -70t-71 -178zM47 524q-1 234 147 396t366 162t353 -132v101h363v-1051h-358v119h-5q-135 -150 -353 -150t-366 161t-147 394zM580 1360l415 360l187 -235l-488 -283z" />
    <glyph glyph-name="acircumflex" unicode="&#xe2;" 
d="M432 524q0 -110 68 -178t176 -68t177 70t69 178t-71 176q-71 70 -174 70t-174 -70t-71 -178zM47 524q-1 234 147 396t366 162t353 -132v101h363v-1051h-358v119h-5q-135 -150 -353 -150t-366 161t-147 394zM246 1389l452 331l453 -331l-139 -187l-314 230l-313 -230z" />
    <glyph glyph-name="atilde" unicode="&#xe3;" 
d="M432 524q0 -110 68 -178t176 -68t177 70t69 178t-71 176q-71 70 -174 70t-174 -70t-71 -178zM47 524q-1 234 147 396t366 162t353 -132v101h363v-1051h-358v119h-5q-135 -150 -353 -150t-366 161t-147 394zM524 1354q-28 0 -52 -24t-32 -48l-8 -22h-207q7 46 31 114
q24 66 52 114t80 86t121 38t171 -41l37 -15q149 -71 208 -15q24 24 31 48l9 23h206q-7 -47 -31 -114q-24 -68 -52 -116t-79 -85t-101 -37q-92 1 -191 40l-37 15q-82 39 -156 39z" />
    <glyph glyph-name="adieresis" unicode="&#xe4;" 
d="M432 524q0 -110 68 -178t176 -68t177 70t69 178t-71 176q-71 70 -174 70t-174 -70t-71 -178zM47 524q-1 234 147 396t366 162t353 -132v101h363v-1051h-358v119h-5q-135 -150 -353 -150t-366 161t-147 394zM942 1620q78 0 133 -55t55 -133t-55 -134t-133 -55
q-78 0 -133 55q-55 56 -55 134t55 133t133 55zM457 1620q78 0 133 -55t55 -133t-55 -134t-133 -55q-78 0 -133 55q-56 56 -56 134t56 133t133 55z" />
    <glyph glyph-name="aring" unicode="&#xe5;" 
d="M432 524q0 -110 68 -178t176 -68t177 70t69 178t-71 176q-71 70 -174 70t-174 -70t-71 -178zM47 524q-1 234 147 396t366 162t353 -132v101h363v-1051h-358v119h-5q-135 -150 -353 -150t-366 161t-147 394zM573 1499q0 -53 35 -91t89 -38t90 38t36 92t-37 91t-88 37
t-88 -38t-37 -91zM369 1500q0 128 95 210t235 82q141 0 235 -82t94 -210t-92 -210t-238 -82t-238 82q-91 82 -91 210z" />
    <glyph glyph-name="ae" unicode="&#xe6;" horiz-adv-x="1931" 
d="M408 309q0 -55 45 -89t115 -34t123 38q52 38 52 85t-51 81t-124 34q-72 0 -116 -30t-44 -85zM1327 846q-85 0 -139 -47t-58 -123h400q-12 82 -64 126t-139 44zM1340 1081q232 0 388 -144t156 -413q0 -37 -2 -49h-762q0 -111 72 -164t158 -53t137 24t117 93l262 -131
q-164 -274 -545 -275q-264 0 -436 193q-20 -27 -63 -64q-145 -126 -381 -128q-173 -1 -283 84q-110 86 -111 228q0 142 100 238t291 96t305 -79v75q0 80 -71 130q-115 80 -313 35q-71 -15 -101 -32l-29 -14l-114 248q42 36 161 69q119 34 238 33q268 0 434 -131
q160 131 392 131z" />
    <glyph glyph-name="ccedilla" unicode="&#xe7;" horiz-adv-x="1005" 
d="M47 522q0 229 175 394t407 165q104 -1 192 -25t125 -48l35 -25l-123 -248q-68 49 -173 49t-179 -76t-74 -183t74 -183t172 -76t162 37l18 12l123 -252q-49 -35 -148 -64q-101 -30 -165 -30t-76 2l-33 -100q96 0 180 -55t84 -159q0 -103 -77 -181t-234 -78q-82 0 -161 43
t-118 84l-36 43l147 110q28 -35 78 -66q49 -30 96 -30t72 24q24 24 24 62t-39 63q-39 23 -101 23t-91 -18l-21 16l80 248q-170 56 -282 200t-113 322z" />
    <glyph glyph-name="egrave" unicode="&#xe8;" horiz-adv-x="1234" 
d="M631 846q-85 0 -139 -47t-58 -123h400q-12 82 -64 126t-139 44zM424 475q0 -111 72 -164t158 -53t136 24q52 24 117 93l262 -131q-164 -274 -544 -275q-238 0 -408 163t-170 392q0 230 170 394t414 164q245 0 401 -145q156 -144 156 -413q0 -37 -2 -49h-762zM319 1720
l416 -360l-114 -158l-488 283z" />
    <glyph glyph-name="eacute" unicode="&#xe9;" horiz-adv-x="1234" 
d="M631 846q-85 0 -139 -47t-58 -123h400q-12 82 -64 126t-139 44zM424 475q0 -111 72 -164t158 -53t136 24q52 24 117 93l262 -131q-164 -274 -544 -275q-238 0 -408 163t-170 392q0 230 170 394t414 164q245 0 401 -145q156 -144 156 -413q0 -37 -2 -49h-762zM498 1360
l415 360l187 -235l-488 -283z" />
    <glyph glyph-name="ecircumflex" unicode="&#xea;" horiz-adv-x="1234" 
d="M631 846q-85 0 -139 -47t-58 -123h400q-12 82 -64 126t-139 44zM424 475q0 -111 72 -164t158 -53t136 24q52 24 117 93l262 -131q-164 -274 -544 -275q-238 0 -408 163t-170 392q0 230 170 394t414 164q245 0 401 -145q156 -144 156 -413q0 -37 -2 -49h-762zM164 1389
l452 331l453 -331l-139 -187l-314 230l-313 -230z" />
    <glyph glyph-name="edieresis" unicode="&#xeb;" horiz-adv-x="1234" 
d="M631 846q-85 0 -139 -47t-58 -123h400q-12 82 -64 126t-139 44zM424 475q0 -111 72 -164t158 -53t136 24q52 24 117 93l262 -131q-164 -274 -544 -275q-238 0 -408 163t-170 392q0 230 170 394t414 164q245 0 401 -145q156 -144 156 -413q0 -37 -2 -49h-762zM860 1620
q78 0 133 -55t55 -133t-54 -134q-56 -56 -134 -55q-78 0 -133 55q-55 56 -55 134t55 133t133 55zM375 1620q78 0 133 -55t55 -133t-55 -134t-133 -55q-78 0 -133 55q-56 56 -56 134t56 133t133 55z" />
    <glyph glyph-name="igrave" unicode="&#xec;" horiz-adv-x="608" 
d="M123 1051h362v-1051h-362v1051zM8 1720l416 -360l-115 -158l-487 283z" />
    <glyph glyph-name="iacute" unicode="&#xed;" horiz-adv-x="608" 
d="M123 1051h362v-1051h-362v1051zM184 1360l416 360l186 -235l-487 -283z" />
    <glyph glyph-name="icircumflex" unicode="&#xee;" horiz-adv-x="608" 
d="M123 1051h362v-1051h-362v1051zM-147 1389l452 331l453 -331l-140 -187l-313 230l-313 -230z" />
    <glyph glyph-name="idieresis" unicode="&#xef;" horiz-adv-x="608" 
d="M123 1051h362v-1051h-362v1051zM547 1620q78 0 133 -55t55 -133t-55 -134t-133 -55q-78 0 -133 55q-56 56 -56 134t56 133t133 55zM61 1620q77 0 133 -55t56 -133t-55 -134t-133 -55q-78 0 -134 55q-55 56 -55 134t55 133t133 55z" />
    <glyph glyph-name="eth" unicode="&#xf0;" horiz-adv-x="1400" 
d="M469 524q0 -110 68 -178t176 -68t177 70t68 176v11q-4 104 -74 171q-71 66 -172 66t-172 -70t-71 -178zM84 524q0 162 86 294t206 198t240 66t181 -33q-90 129 -240 235l-170 -168l-158 158l127 127q-115 55 -200 78l-27 6l86 307q174 -39 385 -147l150 147l155 -160
l-106 -106q545 -383 544 -1002q0 -242 -177 -398q-176 -156 -454 -157t-453 155t-175 400z" />
    <glyph glyph-name="ntilde" unicode="&#xf1;" horiz-adv-x="1353" 
d="M485 0h-362v1051h362v-111h4q141 141 305 141t299 -84q71 -43 115 -121t43 -184v-692h-362v594q0 82 -52 143q-51 61 -135 61t-150 -62q-66 -64 -67 -142v-594zM502 1354q-28 0 -52 -24t-32 -48l-8 -22h-207q7 46 31 114q24 66 52 114t80 86t118 38t175 -41l35 -15
q82 -39 156 -38q28 0 52 24t32 47l8 23h207q-16 -111 -83 -230q-28 -47 -80 -85t-121 -37t-173 40l-35 15q-82 39 -155 39z" />
    <glyph glyph-name="ograve" unicode="&#xf2;" horiz-adv-x="1353" 
d="M432 524q0 -110 68 -178t176 -68t177 70t69 178t-71 176q-71 70 -174 70t-174 -70t-71 -178zM47 524q0 244 182 401q183 157 449 157t447 -158t181 -400t-176 -398q-178 -156 -456 -157t-452 155q-175 156 -175 400zM379 1720l416 -360l-115 -158l-487 283z" />
    <glyph glyph-name="oacute" unicode="&#xf3;" horiz-adv-x="1353" 
d="M432 524q0 -110 68 -178t176 -68t177 70t69 178t-71 176q-71 70 -174 70t-174 -70t-71 -178zM47 524q0 244 182 401q183 157 449 157t447 -158t181 -400t-176 -398q-178 -156 -456 -157t-452 155q-175 156 -175 400zM475 1360l416 360l186 -235l-487 -283z" />
    <glyph glyph-name="ocircumflex" unicode="&#xf4;" horiz-adv-x="1353" 
d="M432 524q0 -110 68 -178t176 -68t177 70t69 178t-71 176q-71 70 -174 70t-174 -70t-71 -178zM47 524q0 244 182 401q183 157 449 157t447 -158t181 -400t-176 -398q-178 -156 -456 -157t-452 155q-175 156 -175 400zM223 1389l453 331l452 -331l-139 -187l-313 230
l-314 -230z" />
    <glyph glyph-name="otilde" unicode="&#xf5;" horiz-adv-x="1353" 
d="M432 524q0 -110 68 -178t176 -68t177 70t69 178t-71 176q-71 70 -174 70t-174 -70t-71 -178zM47 524q0 244 182 401q183 157 449 157t447 -158t181 -400t-176 -398q-178 -156 -456 -157t-452 155q-175 156 -175 400zM502 1354q-28 0 -52 -24t-32 -48l-8 -22h-207
q7 46 31 114q24 66 52 114t80 86t118 38t175 -41l35 -15q82 -39 156 -38q28 0 52 24t32 47l8 23h207q-16 -111 -83 -230q-28 -47 -80 -85t-121 -37t-173 40l-35 15q-82 39 -155 39z" />
    <glyph glyph-name="odieresis" unicode="&#xf6;" horiz-adv-x="1353" 
d="M432 524q0 -110 68 -178t176 -68t177 70t69 178t-71 176q-71 70 -174 70t-174 -70t-71 -178zM47 524q0 244 182 401q183 157 449 157t447 -158t181 -400t-176 -398q-178 -156 -456 -157t-452 155q-175 156 -175 400zM920 1620q78 0 133 -55t55 -133t-55 -134t-133 -55
q-78 0 -134 55q-55 56 -55 134t55 133q56 55 134 55zM434 1620q78 0 133 -55t55 -133t-54 -134q-56 -56 -134 -55q-78 0 -133 55q-55 56 -55 134t55 133t133 55z" />
    <glyph glyph-name="divide" unicode="&#xf7;" horiz-adv-x="1296" 
d="M647 555q70 0 118 -48t48 -118t-49 -118t-118 -48t-117 48t-48 117t48 118t118 49zM123 1006h1051v-314h-1051v314zM481 1308q0 69 48 118t118 49q70 1 118 -49t48 -118t-49 -117q-49 -48 -118 -48t-117 48t-48 117z" />
    <glyph glyph-name="oslash" unicode="&#xf8;" horiz-adv-x="1353" 
d="M691 279q93 -1 162 69t69 176q0 47 -17 92l-368 -299q61 -38 154 -38zM432 524q0 -53 14 -94l371 299q-63 43 -153 43t-161 -70t-71 -178zM1307 524q1 -242 -177 -398t-441 -157q-263 0 -429 125l-182 -147l-92 110l170 138q-109 141 -109 329q0 244 182 401
q181 157 435 157t428 -130l184 150l92 -111l-174 -141q113 -139 113 -326z" />
    <glyph glyph-name="ugrave" unicode="&#xf9;" horiz-adv-x="1343" 
d="M102 1051h363v-500q0 -155 47 -221t160 -66q114 0 160 66t47 221v500h362v-588q0 -262 -136 -378t-433 -116t-433 116t-137 378v588zM375 1720l416 -360l-115 -158l-488 283z" />
    <glyph glyph-name="uacute" unicode="&#xfa;" horiz-adv-x="1343" 
d="M102 1051h363v-500q0 -155 47 -221t160 -66q114 0 160 66t47 221v500h362v-588q0 -262 -136 -378t-433 -116t-433 116t-137 378v588zM551 1360l416 360l186 -235l-487 -283z" />
    <glyph glyph-name="ucircumflex" unicode="&#xfb;" horiz-adv-x="1343" 
d="M102 1051h363v-500q0 -155 47 -221t160 -66q114 0 160 66t47 221v500h362v-588q0 -262 -136 -378t-433 -116t-433 116t-137 378v588zM219 1389l453 331l452 -331l-139 -187l-313 230l-314 -230z" />
    <glyph glyph-name="udieresis" unicode="&#xfc;" horiz-adv-x="1343" 
d="M102 1051h363v-500q0 -155 47 -221t160 -66q114 0 160 66t47 221v500h362v-588q0 -262 -136 -378t-433 -116t-433 116t-137 378v588zM913 1620q77 0 133 -55t56 -133t-55 -134t-133 -55q-78 0 -134 55q-55 56 -55 134t55 133t133 55zM428 1620q78 0 133 -55t55 -133
t-55 -134t-133 -55q-78 0 -133 55q-55 56 -55 134t55 133t133 55z" />
    <glyph glyph-name="yacute" unicode="&#xfd;" horiz-adv-x="1296" 
d="M920 1051h417l-825 -1583h-418l363 696l-498 887h418l293 -539zM449 1360l415 360l187 -235l-488 -283z" />
    <glyph glyph-name="thorn" unicode="&#xfe;" 
d="M967 524q0 108 -71 178t-174 70t-174 -70t-71 -177t69 -177q70 -70 178 -70t176 69q68 68 67 177zM1352 524q0 -233 -148 -394t-366 -161t-353 150h-4v-651h-358v2293h362v-811q135 131 353 131t366 -162t148 -395z" />
    <glyph glyph-name="ydieresis" unicode="&#xff;" horiz-adv-x="1296" 
d="M920 1051h417l-825 -1583h-418l363 696l-498 887h418l293 -539zM891 1620q78 0 133 -55t55 -133t-55 -134t-133 -55q-78 0 -133 55q-56 56 -56 134t56 133t133 55zM406 1620q78 0 133 -55t55 -133t-55 -134t-133 -55q-78 0 -134 55q-55 56 -55 134t55 133q56 55 134 55z
" />
    <glyph glyph-name="Amacron" unicode="&#x100;" horiz-adv-x="1605" 
d="M993 676l-188 491h-4l-189 -491h381zM981 1690l682 -1690h-414l-125 338h-643l-125 -338h-413l682 1690h356zM385 2183h836v-246h-836v246z" />
    <glyph glyph-name="amacron" unicode="&#x101;" 
d="M432 524q0 -110 68 -178t176 -68t177 70t69 178t-71 176q-71 70 -174 70t-174 -70t-71 -178zM47 524q-1 234 147 396t366 162t353 -132v101h363v-1051h-358v119h-5q-135 -150 -353 -150t-366 161t-147 394zM281 1544h835v-246h-835v246z" />
    <glyph glyph-name="Abreve" unicode="&#x102;" horiz-adv-x="1605" 
d="M993 676l-188 491h-4l-189 -491h381zM981 1690l682 -1690h-414l-125 338h-643l-125 -338h-413l682 1690h356zM803 2148q138 0 194 137q18 40 21 74l258 -63q-18 -166 -148 -268t-326 -102t-325 102t-147 268l258 63q0 -20 17 -65t39 -73q22 -29 64 -51t95 -22z" />
    <glyph glyph-name="abreve" unicode="&#x103;" 
d="M432 524q0 -110 68 -178t176 -68t177 70t69 178t-71 176q-71 70 -174 70t-174 -70t-71 -178zM47 524q-1 234 147 396t366 162t353 -132v101h363v-1051h-358v119h-5q-135 -150 -353 -150t-366 161t-147 394zM698 1509q54 0 96 22q42 23 64 53q47 67 51 116l4 20l258 -63
q-18 -166 -147 -268q-129 -103 -326 -103q-198 0 -326 102t-147 269l258 63q-1 -21 17 -66q18 -44 40 -72t64 -50t94 -23z" />
    <glyph glyph-name="Aogonek" unicode="&#x104;" horiz-adv-x="1605" 
d="M993 676l-188 491h-4l-189 -491h381zM1124 -321q0 124 164 321h-39l-125 338h-643l-125 -338h-413l682 1690h356l682 -1690h-207q-42 -48 -82 -136q-39 -88 -39 -138t24 -72q25 -22 53 -21q28 0 49 13t55 49l147 -111q-59 -88 -179 -131q-48 -16 -102 -16q-96 0 -177 59
t-81 183z" />
    <glyph glyph-name="aogonek" unicode="&#x105;" 
d="M432 524q0 -110 68 -178t176 -68t177 70t69 178t-71 176q-71 70 -174 70t-174 -70t-71 -178zM1040 -367q51 0 105 62l147 -111q-59 -88 -179 -131q-48 -16 -101 -16q-96 0 -177 59t-81 186t164 318v119h-5q-135 -150 -353 -150t-365 161t-148 394q-1 234 147 396t366 162
t353 -132v101h363v-1051h-191q-39 -45 -80 -134q-73 -160 -17 -211q24 -22 52 -22z" />
    <glyph glyph-name="Cacute" unicode="&#x106;" horiz-adv-x="1542" 
d="M1022 348q88 0 191 35t141 70l164 -328l-58 -39q-57 -39 -195 -78t-302 -39q-236 0 -447 116q-211 117 -340 319t-129 438q0 178 76 342q149 322 495 467q168 70 345 69q324 0 532 -139q14 -10 23 -16l-164 -328l-39 27q-39 26 -122 52t-197 26t-224 -46
q-196 -80 -273 -277q-34 -85 -34 -173q1 -194 145 -346t412 -152zM555 1999l416 360l186 -235l-487 -283z" />
    <glyph glyph-name="cacute" unicode="&#x107;" horiz-adv-x="1005" 
d="M686 784q-106 0 -180 -76t-74 -183t74 -183t172 -76t162 37l18 12l123 -252q-49 -35 -148 -64q-100 -30 -204 -30q-231 0 -407 163q-175 163 -175 391t175 393t407 165q104 -1 192 -25t125 -48l35 -25l-123 -248q-66 49 -172 49zM391 1360l416 360l186 -235l-487 -283z
" />
    <glyph glyph-name="Ccaron" unicode="&#x10c;" horiz-adv-x="1542" 
d="M1022 348q88 0 191 35t141 70l164 -328l-58 -39q-57 -39 -195 -78t-302 -39q-236 0 -447 116q-211 117 -340 319t-129 438q0 178 76 342q149 322 495 467q168 70 345 69q324 0 532 -139q14 -10 23 -16l-164 -328l-39 27q-39 26 -122 52t-197 26t-224 -46
q-196 -80 -273 -277q-34 -85 -34 -173q1 -194 145 -346t412 -152zM590 2359l313 -229l314 229l139 -186l-453 -332l-452 332z" />
    <glyph glyph-name="ccaron" unicode="&#x10d;" horiz-adv-x="1005" 
d="M686 784q-106 0 -180 -76t-74 -183t74 -183t172 -76t162 37l18 12l123 -252q-49 -35 -148 -64q-100 -30 -204 -30q-231 0 -407 163q-175 163 -175 391t175 393t407 165q104 -1 192 -25t125 -48l35 -25l-123 -248q-66 49 -172 49zM213 1720l313 -229l314 229l139 -186
l-453 -332l-452 332z" />
    <glyph glyph-name="Dcaron" unicode="&#x10e;" horiz-adv-x="1511" 
d="M508 344h59q211 0 345 142t136 358t-134 358q-134 143 -347 144h-59v-1002zM123 1690h489q352 0 602 -241t250 -605t-249 -604t-603 -240h-489v1690zM424 2359l313 -229l314 229l139 -186l-453 -332l-452 332z" />
    <glyph glyph-name="dcaron" unicode="&#x10f;" 
d="M432 524q0 -110 68 -178t176 -68t177 70t69 178t-71 176q-71 70 -174 70t-174 -70t-71 -178zM1368 1512q0 68 53 122t129 54t129 -54t54 -131q0 -233 -267 -452l-82 63q96 92 121 225q-59 13 -98 59t-39 114zM47 524q-1 234 147 396t366 162t353 -132v811h363v-1761h-358
v119h-5q-135 -150 -353 -150t-366 161t-147 394z" />
    <glyph glyph-name="Dcroat" unicode="&#x110;" horiz-adv-x="1589" 
d="M586 1001h223v-313h-223v-344h59q211 0 345 142t135 358t-133 358q-134 143 -347 144h-59v-345zM201 1001v689h489q352 0 602 -241t250 -605t-249 -604t-603 -240h-489v688h-168v313h168z" />
    <glyph glyph-name="dcroat" unicode="&#x111;" 
d="M432 524q0 -110 68 -178t176 -68t177 70t69 178t-71 176q-71 70 -174 70t-174 -70t-71 -178zM657 1520h256v241h363v-241h123v-234h-123v-1286h-358v119h-5q-135 -150 -353 -150t-365 161t-148 394q-1 234 147 396t366 162t353 -132v336h-256v234z" />
    <glyph glyph-name="Emacron" unicode="&#x112;" horiz-adv-x="1187" 
d="M1090 1690v-338h-582v-336h557v-338h-557v-340h582v-338h-967v1690h967zM176 2183h836v-246h-836v246z" />
    <glyph glyph-name="emacron" unicode="&#x113;" horiz-adv-x="1234" 
d="M631 846q-85 0 -139 -47t-58 -123h400q-12 82 -64 126t-139 44zM424 475q0 -111 72 -164t158 -53t136 24q52 24 117 93l262 -131q-164 -274 -544 -275q-238 0 -408 163t-170 392q0 230 170 394t414 164q245 0 401 -145q156 -144 156 -413q0 -37 -2 -49h-762zM199 1544
h835v-246h-835v246z" />
    <glyph glyph-name="Edotaccent" unicode="&#x116;" horiz-adv-x="1187" 
d="M1090 1690v-338h-582v-336h557v-338h-557v-340h582v-338h-967v1690h967zM594 2259q78 0 133 -55t55 -133q0 -77 -55 -133t-133 -56t-133 55t-55 133t55 134q55 55 133 55z" />
    <glyph glyph-name="edotaccent" unicode="&#x117;" horiz-adv-x="1234" 
d="M631 846q-85 0 -139 -47t-58 -123h400q-12 82 -64 126t-139 44zM424 475q0 -111 72 -164t158 -53t136 24q52 24 117 93l262 -131q-164 -274 -544 -275q-238 0 -408 163t-170 392q0 230 170 394t414 164q245 0 401 -145q156 -144 156 -413q0 -37 -2 -49h-762zM616 1620
q78 0 134 -55t55 -133q0 -78 -55 -134q-56 -56 -134 -55q-78 0 -133 55q-55 56 -55 134t55 133t133 55z" />
    <glyph glyph-name="Eogonek" unicode="&#x118;" horiz-adv-x="1187" 
d="M846 -367q50 0 104 62l148 -111q-58 -87 -179 -131q-48 -16 -102 -16q-96 0 -177 59t-81 183t164 321h-600v1690h967v-338h-582v-336h557v-338h-557v-340h582v-338h-199q-42 -48 -82 -136q-39 -88 -39 -138t24 -72t52 -21z" />
    <glyph glyph-name="eogonek" unicode="&#x119;" horiz-adv-x="1234" 
d="M631 846q-85 0 -139 -47t-58 -123h400q-12 82 -64 126t-139 44zM812 -367q50 0 103 62l148 -111q-59 -89 -179 -131q-48 -16 -102 -16q-96 0 -177 59t-81 179t140 296l-39 -2q-238 0 -408 163t-170 392q0 230 170 394t414 164q245 0 401 -145q156 -144 156 -413
q0 -37 -2 -49h-762q0 -111 72 -164t158 -53t136 24q52 24 117 93l262 -131q-111 -182 -313 -244q-42 -48 -82 -136q-39 -88 -39 -138t24 -72q25 -22 53 -21z" />
    <glyph glyph-name="Ecaron" unicode="&#x11a;" horiz-adv-x="1187" 
d="M1090 1690v-338h-582v-336h557v-338h-557v-340h582v-338h-967v1690h967zM281 2359l313 -229l313 229l140 -186l-453 -332l-453 332z" />
    <glyph glyph-name="ecaron" unicode="&#x11b;" horiz-adv-x="1234" 
d="M631 846q-85 0 -139 -47t-58 -123h400q-12 82 -64 126t-139 44zM424 475q0 -111 72 -164t158 -53t136 24q52 24 117 93l262 -131q-164 -274 -544 -275q-238 0 -408 163t-170 392q0 230 170 394t414 164q245 0 401 -145q156 -144 156 -413q0 -37 -2 -49h-762zM303 1720
l313 -229l314 229l139 -186l-453 -332l-452 332z" />
    <glyph glyph-name="Gcommaaccent" unicode="&#x122;" horiz-adv-x="1697" 
d="M847 -82q75 0 129 -53t54 -131q0 -233 -266 -453l-82 64l25 26q25 27 55 83q31 56 41 116q-59 14 -98 59t-39 113t53 122t128 54zM1651 946v-366q-66 -301 -287 -456t-494 -155q-342 0 -582 256t-241 622q0 365 236 619t587 254q412 0 652 -288l-252 -277
q-135 217 -377 217q-178 0 -304 -154t-126 -372q0 -217 126 -370t304 -152q147 0 257 89t110 236h-390v297h781z" />
    <glyph glyph-name="gcommaaccent" unicode="&#x123;" 
d="M432 524q0 -110 68 -178t176 -68t177 70t69 178t-71 176q-71 70 -174 70t-174 -70t-71 -178zM657 -248q93 0 175 60t81 186v78q-95 -106 -333 -106t-385 160q-147 161 -148 394q-1 234 147 396t363 162t350 -126h6v95h363v-1080q0 -256 -170 -395t-449 -139
q-450 0 -581 305l297 145q82 -135 284 -135zM881 1419q1 -68 -53 -122t-130 -54t-129 54t-53 130q0 233 266 453l82 -63q-96 -92 -121 -226q59 -14 99 -59t39 -113z" />
    <glyph glyph-name="Imacron" unicode="&#x12a;" horiz-adv-x="630" 
d="M508 1690v-1690h-385v1690h385zM-102 2183h835v-246h-835v246z" />
    <glyph glyph-name="imacron" unicode="&#x12b;" horiz-adv-x="608" 
d="M123 1051h362v-1051h-362v1051zM-113 1544h836v-246h-836v246z" />
    <glyph glyph-name="Iogonek" unicode="&#x12e;" horiz-adv-x="630" 
d="M508 1690v-1690h-109q-39 -45 -80 -134q-73 -160 -17 -211q24 -22 52 -22q28 -1 55 15q26 16 37 33l13 14l147 -111q-59 -88 -179 -131q-48 -16 -101 -16q-96 0 -178 59q-80 59 -80 183t163 321h-108v1690h385z" />
    <glyph glyph-name="iogonek" unicode="&#x12f;" horiz-adv-x="608" 
d="M59 -318q0 127 164 318h-100v1051h362v-1051h-94l-31 -41q-30 -39 -60 -111t-30 -122t24 -72t52 -21q63 0 105 62l147 -111l-29 -37q-29 -37 -99 -73t-159 -37q-90 0 -171 59t-81 186zM309 1700q87 0 151 -64t64 -151t-63 -151t-151 -64t-152 63t-64 151t64 152t151 64z
" />
    <glyph glyph-name="dotlessi" unicode="&#x131;" horiz-adv-x="550" 
d="M94 0v1051h363v-1051h-363z" />
    <glyph glyph-name="Kcommaaccent" unicode="&#x136;" horiz-adv-x="1611" 
d="M805 -82q76 0 129 -53t53 -131q0 -233 -266 -453l-82 64l25 26q25 27 55 83q31 56 41 116q-59 14 -98 59t-39 113t53 122t129 54zM508 0h-385v1690h385v-691l579 691h467l-680 -801l787 -889h-531l-622 717v-717z" />
    <glyph glyph-name="kcommaaccent" unicode="&#x137;" horiz-adv-x="1323" 
d="M661 -82q75 0 129 -53t54 -131q0 -233 -266 -453l-82 64q96 92 120 225q-59 14 -98 59t-39 113t53 122t129 54zM485 0h-362v1761h362v-1077l367 367h471l-500 -502l549 -549h-467l-420 420v-420z" />
    <glyph glyph-name="Lacute" unicode="&#x139;" horiz-adv-x="1157" 
d="M508 1690v-1352h582v-338h-967v1690h385zM279 1999l415 360l187 -235l-488 -283z" />
    <glyph glyph-name="lacute" unicode="&#x13a;" horiz-adv-x="608" 
d="M123 1761h362v-1761h-362v1761zM123 2071l416 360l186 -236l-487 -282z" />
    <glyph glyph-name="Lcommaaccent" unicode="&#x13b;" horiz-adv-x="1157" 
d="M395 -258q0 68 53 122t128 54q76 0 130 -53t54 -131q0 -233 -266 -453l-82 64l24 26q25 27 56 83t40 116q-59 14 -98 59t-39 113zM508 1690v-1352h582v-338h-967v1690h385z" />
    <glyph glyph-name="lcommaaccent" unicode="&#x13c;" horiz-adv-x="608" 
d="M302 -82q75 0 129 -53t54 -131q0 -233 -266 -453l-82 64q96 92 121 225q-59 14 -98 59t-39 113t53 122t128 54zM123 0v1761h362v-1761h-362z" />
    <glyph glyph-name="Lcaron" unicode="&#x13d;" horiz-adv-x="1157" 
d="M674 1512q0 68 53 122t128 54t129 -54t54 -131q0 -233 -266 -452l-82 63l25 27q25 27 55 83q31 56 41 115q-59 13 -98 59t-39 114zM508 1690v-1352h582v-338h-967v1690h385z" />
    <glyph glyph-name="lcaron" unicode="&#x13e;" horiz-adv-x="608" 
d="M760 1688q76 0 129 -54t53 -131q0 -233 -266 -452l-82 63q96 92 121 225q-59 13 -99 59t-38 114q0 68 53 122t129 54zM123 0v1761h362v-1761h-362z" />
    <glyph glyph-name="Lslash" unicode="&#x141;" horiz-adv-x="1163" 
d="M197 1690h385v-441l215 170v-313l-215 -170v-598h581v-338h-966v633l-156 -121v313l156 121v744z" />
    <glyph glyph-name="lslash" unicode="&#x142;" horiz-adv-x="755" 
d="M197 0v635l-156 -123v313l156 123v813h362v-528l156 123v-314l-156 -122v-920h-362z" />
    <glyph glyph-name="Nacute" unicode="&#x143;" horiz-adv-x="1691" 
d="M508 1049v-1049h-385v1690h385l672 -1049h4v1049h385v-1690h-385l-672 1049h-4zM545 1999l416 360l186 -235l-488 -283z" />
    <glyph glyph-name="nacute" unicode="&#x144;" horiz-adv-x="1353" 
d="M485 0h-362v1051h362v-111h4q141 141 305 141t299 -84q71 -43 115 -121t43 -184v-692h-362v594q0 82 -52 143q-51 61 -135 61t-150 -62q-66 -64 -67 -142v-594zM555 1360l416 360l186 -235l-487 -283z" />
    <glyph glyph-name="Ncommaaccent" unicode="&#x145;" horiz-adv-x="1691" 
d="M846 -82q76 0 129 -53t53 -131q0 -233 -266 -453l-82 64l25 26q25 27 55 83q31 56 41 116q-59 14 -99 59q-38 45 -38 113t53 122t129 54zM508 1049v-1049h-385v1690h385l672 -1049h4v1049h385v-1690h-385l-672 1049h-4z" />
    <glyph glyph-name="ncommaaccent" unicode="&#x146;" horiz-adv-x="1353" 
d="M675 -82q75 0 129 -53t54 -131q0 -233 -266 -453l-82 64q96 92 121 225q-59 14 -99 59q-38 45 -38 113t53 122t128 54zM123 0v1051h362v-111h4q141 141 305 141t299 -84q71 -43 115 -121t43 -184v-692h-362v594q0 82 -52 143q-51 61 -135 61t-150 -62q-66 -64 -67 -142
v-594h-362z" />
    <glyph glyph-name="Ncaron" unicode="&#x147;" horiz-adv-x="1691" 
d="M508 1049v-1049h-385v1690h385l672 -1049h4v1049h385v-1690h-385l-672 1049h-4zM532 2359l314 -229l313 229l139 -186l-452 -332l-453 332z" />
    <glyph glyph-name="ncaron" unicode="&#x148;" horiz-adv-x="1353" 
d="M485 0h-362v1051h362v-111h4q141 141 305 141t299 -84q71 -43 115 -121t43 -184v-692h-362v594q0 82 -52 143q-51 61 -135 61t-150 -62q-66 -64 -67 -142v-594zM362 1720l314 -229l313 229l139 -186l-452 -332l-453 332z" />
    <glyph glyph-name="Omacron" unicode="&#x14c;" horiz-adv-x="1796" 
d="M463 846q0 -293 184 -428q102 -76 252 -76q215 0 325 147t110 355t-112 357t-322 149t-324 -148t-113 -356zM894 -31q-366 0 -606 251t-241 622q0 370 250 624t603 254t601 -253t248 -623t-244 -622q-245 -253 -611 -253zM479 2183h836v-246h-836v246z" />
    <glyph glyph-name="omacron" unicode="&#x14d;" horiz-adv-x="1353" 
d="M432 524q0 -110 68 -178t176 -68t177 70t69 178t-71 176q-71 70 -174 70t-174 -70t-71 -178zM47 524q0 244 182 401q183 157 449 157t447 -158t181 -400t-176 -398q-178 -156 -456 -157t-452 155q-175 156 -175 400zM258 1544h836v-246h-836v246z" />
    <glyph glyph-name="Ohungarumlaut" unicode="&#x150;" horiz-adv-x="1796" 
d="M463 846q0 -293 184 -428q102 -76 252 -76q215 0 325 147t110 355t-112 357t-322 149t-324 -148t-113 -356zM894 -31q-366 0 -606 251t-241 622q0 370 250 624t603 254t601 -253t248 -623t-244 -622q-245 -253 -611 -253zM905 1999l355 401l167 -213l-407 -346zM473 1999
l354 401l168 -213l-407 -346z" />
    <glyph glyph-name="ohungarumlaut" unicode="&#x151;" horiz-adv-x="1353" 
d="M432 524q0 -110 68 -178t176 -68t177 70t69 178t-71 176q-71 70 -174 70t-174 -70t-71 -178zM47 524q0 244 182 401q183 157 449 157t447 -158t181 -400t-176 -398q-178 -156 -456 -157t-452 155q-175 156 -175 400zM684 1360l354 401l168 -213l-407 -346zM252 1360
l354 401l168 -213l-407 -346z" />
    <glyph glyph-name="OE" unicode="&#x152;" horiz-adv-x="2068" 
d="M1004 1346h-60q-213 0 -347 -144t-134 -357t134 -357t347 -144h60v1002zM1389 1352v-336h557v-338h-557v-340h581v-338h-1071q-354 0 -603 240t-249 604t249 606q249 240 603 240h1071v-338h-581z" />
    <glyph glyph-name="oe" unicode="&#x153;" horiz-adv-x="2091" 
d="M426 524q0 -110 68 -178t176 -68t177 70t69 178t-72 176q-70 70 -173 70t-174 -70t-71 -178zM1487 846q-85 0 -139 -47t-58 -123h400q-12 82 -64 126t-139 44zM47 524q0 244 176 401t445 156q144 0 243 -55q100 -55 138 -96l16 -17l18 18q102 93 253 132q71 18 145 18
q251 0 407 -144t156 -413q0 -37 -2 -49h-762q0 -111 72 -164t158 -53t136 24q52 24 117 93l262 -131q-164 -274 -544 -275q-109 0 -212 42t-153 83l-49 41q-163 -163 -399 -166q-281 0 -451 155q-170 156 -170 400z" />
    <glyph glyph-name="Racute" unicode="&#x154;" horiz-adv-x="1466" 
d="M508 940h45q186 0 252 53q67 53 67 168q0 207 -229 219q-37 2 -90 2h-45v-442zM123 1690h604q243 0 397 -130t154 -372q0 -186 -93 -312t-253 -178l581 -698h-489l-516 668v-668h-385v1690zM432 1999l416 360l186 -235l-487 -283z" />
    <glyph glyph-name="racute" unicode="&#x155;" horiz-adv-x="1019" 
d="M485 0h-362v1051h362v-152h4l15 19q32 48 86 88q104 76 230 75q126 0 220 -65l-151 -307l-21 14q-20 15 -67 29t-107 14t-106 -29t-74 -84q-27 -55 -29 -100v-553zM307 1360l416 360l186 -235l-487 -283z" />
    <glyph glyph-name="Rcommaaccent" unicode="&#x156;" horiz-adv-x="1466" 
d="M732 -82q75 0 129 -53t54 -131q0 -233 -266 -453l-82 64l25 26q25 27 55 83q31 56 41 116q-59 14 -98 59t-39 113t53 122t128 54zM508 940h45q186 0 252 53q67 53 67 168q0 207 -229 219q-37 2 -90 2h-45v-442zM123 1690h604q243 0 397 -130t154 -372q0 -186 -93 -312
t-253 -178l581 -698h-489l-516 668v-668h-385v1690z" />
    <glyph glyph-name="rcommaaccent" unicode="&#x157;" horiz-adv-x="1019" 
d="M305 -82q76 0 129 -53t53 -131q0 -233 -266 -453l-82 64q96 92 121 225q-59 14 -98 59t-39 113t53 122t129 54zM123 0v1051h362v-152h4q9 19 47 57t72 62q88 62 203 63q59 0 117 -16t84 -33l28 -16l-151 -307q-68 57 -189 57q-66 0 -112 -29t-74 -84q-27 -55 -29 -100
v-553h-362z" />
    <glyph glyph-name="Rcaron" unicode="&#x158;" horiz-adv-x="1466" 
d="M508 940h45q186 0 252 53q67 53 67 168q0 207 -229 219q-37 2 -90 2h-45v-442zM123 1690h604q243 0 397 -130t154 -372q0 -186 -93 -312t-253 -178l581 -698h-489l-516 668v-668h-385v1690zM350 2359l314 -229l313 229l139 -186l-452 -332l-453 332z" />
    <glyph glyph-name="rcaron" unicode="&#x159;" horiz-adv-x="1019" 
d="M485 0h-362v1051h362v-152h4l15 19q32 48 86 88q104 76 230 75q126 0 220 -65l-151 -307l-21 14q-20 15 -67 29t-107 14t-106 -29t-74 -84q-27 -55 -29 -100v-553zM197 1720l313 -229l313 229l140 -186l-453 -332l-453 332z" />
    <glyph glyph-name="Sacute" unicode="&#x15a;" horiz-adv-x="1376" 
d="M745 1720q137 0 269 -40t194 -78l62 -41l-156 -308q-67 45 -166 81q-98 36 -185 36t-139 -41t-52 -109t108 -129q74 -43 241 -114q167 -72 283 -192t115 -268q0 -410 -397 -518q-111 -30 -231 -30q-232 0 -393 75t-224 126l-27 23l193 323q26 -20 68 -52t152 -85t193 -53
q244 0 244 166q0 72 -79 123q-57 39 -161 88t-141 67q-154 76 -238 190t-83 244q0 227 167 372q168 144 383 144zM387 1999l416 360l186 -235l-487 -283z" />
    <glyph glyph-name="sacute" unicode="&#x15b;" horiz-adv-x="1007" 
d="M580 1081q90 0 178 -20t131 -41l43 -21l-119 -237q-123 66 -233 65q-61 0 -87 -13t-26 -50t39 -55l19 -9q7 -4 23 -10t38 -14q21 -8 88 -25q68 -17 173 -95t103 -228q0 -358 -497 -359q-113 0 -214 35t-147 70l-45 37l148 247q45 -39 127 -80t133 -40q113 0 112 75
q0 35 -28 55q-29 19 -98 44q-176 64 -263 160q-57 65 -57 171q0 160 124 249t335 89zM285 1360l415 360l187 -235l-488 -283z" />
    <glyph glyph-name="Scaron" unicode="&#x160;" horiz-adv-x="1376" 
d="M745 1720q137 0 269 -40t194 -78l62 -41l-156 -308q-67 45 -166 81q-98 36 -185 36t-139 -41t-52 -109t108 -129q74 -43 241 -114q167 -72 283 -192t115 -268q0 -410 -397 -518q-111 -30 -231 -30q-232 0 -393 75t-224 126l-27 23l193 323q26 -20 68 -52t152 -85t193 -53
q244 0 244 166q0 72 -79 123q-57 39 -161 88t-141 67q-154 76 -238 190t-83 244q0 227 167 372q168 144 383 144zM375 2359l313 -229l313 229l140 -186l-453 -332l-452 332z" />
    <glyph glyph-name="scaron" unicode="&#x161;" horiz-adv-x="1007" 
d="M580 1081q90 0 178 -20t131 -41l43 -21l-119 -237q-123 66 -233 65q-61 0 -87 -13t-26 -50t39 -55l19 -9q7 -4 23 -10t38 -14q21 -8 88 -25q68 -17 173 -95t103 -228q0 -358 -497 -359q-113 0 -214 35t-147 70l-45 37l148 247q45 -39 127 -80t133 -40q113 0 112 75
q0 35 -28 55q-29 19 -98 44q-176 64 -263 160q-57 65 -57 171q0 160 124 249t335 89zM190 1720l314 -229l313 229l139 -186l-452 -332l-453 332z" />
    <glyph glyph-name="Tcaron" unicode="&#x164;" horiz-adv-x="1220" 
d="M16 1352v338h1188v-338h-401v-1352h-385v1352h-402zM297 2359l313 -229l314 229l139 -186l-453 -332l-452 332z" />
    <glyph glyph-name="tcaron" unicode="&#x165;" horiz-adv-x="892" 
d="M629 295q46 0 90 33l90 -293q-117 -66 -243 -66q-228 0 -311 132q-69 109 -71 270v403h-151v277h151v391h363v-391h221v-277h-221v-334q0 -145 82 -145zM795 1512q0 68 53 122t129 54t129 -54t53 -131q0 -233 -266 -452l-82 63q96 92 121 225q-59 13 -98 59t-39 114z" />
    <glyph glyph-name="Umacron" unicode="&#x16a;" horiz-adv-x="1523" 
d="M1036 1690h385v-1090q0 -311 -168 -471q-167 -160 -491 -160t-492 160t-168 471v1090h385v-977q0 -205 65 -285t210 -80t210 80t64 285v977zM344 2183h836v-246h-836v246z" />
    <glyph glyph-name="umacron" unicode="&#x16b;" horiz-adv-x="1343" 
d="M102 1051h363v-500q0 -155 47 -221t160 -66q114 0 160 66t47 221v500h362v-588q0 -262 -136 -378t-433 -116t-433 116t-137 378v588zM254 1544h836v-246h-836v246z" />
    <glyph glyph-name="Uring" unicode="&#x16e;" horiz-adv-x="1523" 
d="M1421 1690v-1090q0 -311 -168 -471q-167 -160 -491 -160t-492 160t-168 471v1090h385v-977q0 -205 65 -285t210 -80t210 80t64 285v977h385zM637 2138q0 -53 35 -91t89 -38t90 38t36 92t-37 91t-88 37t-88 -38t-37 -91zM432 2139q0 128 95 210t235 82t235 -82t95 -210
t-92 -210t-239 -82q-146 0 -238 82q-91 82 -91 210z" />
    <glyph glyph-name="uring" unicode="&#x16f;" horiz-adv-x="1343" 
d="M465 1051v-500q0 -155 47 -221t160 -66q114 0 160 66t47 221v500h362v-588q0 -262 -136 -378t-433 -116t-433 116t-137 378v588h363zM547 1499q0 -53 35 -91t89 -38t90 38t36 92t-37 91t-88 37t-88 -38t-37 -91zM342 1500q0 128 95 210t235 82t235 -82q94 -82 94 -210
t-92 -210t-238 -82t-238 82q-91 82 -91 210z" />
    <glyph glyph-name="Uhungarumlaut" unicode="&#x170;" horiz-adv-x="1523" 
d="M1036 1690h385v-1090q0 -311 -168 -471q-167 -160 -491 -160t-492 160t-168 471v1090h385v-977q0 -205 65 -285t210 -80t210 80t64 285v977zM770 1999l354 401l168 -213l-407 -346zM338 1999l354 401l168 -213l-407 -346z" />
    <glyph glyph-name="uhungarumlaut" unicode="&#x171;" horiz-adv-x="1343" 
d="M102 1051h363v-500q0 -155 47 -221t160 -66q114 0 160 66t47 221v500h362v-588q0 -262 -136 -378t-433 -116t-433 116t-137 378v588zM680 1360l354 401l168 -213l-407 -346zM248 1360l354 401l168 -213l-408 -346z" />
    <glyph glyph-name="Uogonek" unicode="&#x172;" horiz-adv-x="1523" 
d="M830 -367q51 0 104 62l147 -111q-59 -89 -179 -131q-48 -16 -101 -16q-96 0 -177 59t-81 179t141 298q-582 37 -582 627v1090h385v-977q0 -205 65 -285t210 -80t210 80t64 285v977h385v-1090q0 -288 -144 -446t-423 -181q-100 -135 -100 -260q0 -37 24 -59t52 -21z" />
    <glyph glyph-name="uogonek" unicode="&#x173;" horiz-adv-x="1343" 
d="M453 -321q0 124 141 292q-256 14 -374 131t-118 361v588h363v-500q0 -155 47 -221t160 -66q114 0 160 66t47 221v500h362v-588q0 -242 -115 -359t-364 -133q-98 -139 -98 -258q0 -37 24 -59t52 -21q28 -1 54 15t37 33l13 14l147 -111q-59 -88 -179 -131q-48 -16 -101 -16
q-96 0 -177 59t-81 183z" />
    <glyph glyph-name="Ydieresis" unicode="&#x178;" horiz-adv-x="1507" 
d="M946 0h-385v758l-622 932h462l353 -541l352 541h463l-623 -932v-758zM995 2259q78 0 133 -55q56 -55 56 -133q0 -77 -56 -133t-133 -56q-78 0 -133 55t-55 133t55 134q55 55 133 55zM510 2259q78 0 133 -55t55 -133q0 -77 -55 -133t-133 -56t-133 55t-55 133t55 134
q55 55 133 55z" />
    <glyph glyph-name="Zacute" unicode="&#x179;" horiz-adv-x="1574" 
d="M1487 338v-338h-1454l835 1352h-716v338h1390l-837 -1352h782zM485 1999l416 360l186 -235l-487 -283z" />
    <glyph glyph-name="zacute" unicode="&#x17a;" horiz-adv-x="1148" 
d="M1098 276v-276h-1088l520 774h-434v277h1043l-521 -775h480zM389 1360l416 360l186 -235l-487 -283z" />
    <glyph glyph-name="Zdotaccent" unicode="&#x17b;" horiz-adv-x="1574" 
d="M1487 338v-338h-1454l835 1352h-716v338h1390l-837 -1352h782zM786 2259q78 0 134 -55t55 -133q0 -77 -55 -133q-56 -56 -134 -56t-133 55t-55 133t55 134q55 55 133 55z" />
    <glyph glyph-name="zdotaccent" unicode="&#x17c;" horiz-adv-x="1148" 
d="M1098 276v-276h-1088l520 774h-434v277h1043l-521 -775h480zM573 1620q77 0 133 -55t56 -133t-55 -134t-133 -55q-78 0 -134 55q-55 56 -55 134t55 133t133 55z" />
    <glyph glyph-name="Zcaron" unicode="&#x17d;" horiz-adv-x="1574" 
d="M1487 338v-338h-1454l835 1352h-716v338h1390l-837 -1352h782zM473 2359l313 -229l314 229l139 -186l-453 -332l-452 332z" />
    <glyph glyph-name="zcaron" unicode="&#x17e;" horiz-adv-x="1148" 
d="M1098 276v-276h-1088l520 774h-434v277h1043l-521 -775h480zM262 1720l313 -229l314 229l139 -186l-453 -332l-452 332z" />
    <glyph glyph-name="Scommaaccent" unicode="&#x218;" horiz-adv-x="1376" 
d="M687 -82q75 0 129 -53t54 -131q0 -233 -266 -453l-82 64l25 26q25 27 55 83q31 56 41 116q-59 14 -98 59t-39 113t53 122t128 54zM745 1720q137 0 269 -40t194 -78l62 -41l-156 -308q-67 45 -166 81q-98 36 -185 36t-139 -41t-52 -109t108 -129q74 -43 241 -114
q167 -72 283 -192t115 -268q0 -410 -397 -518q-111 -30 -231 -30q-232 0 -393 75t-224 126l-27 23l193 323q26 -20 68 -52t152 -85t193 -53q244 0 244 166q0 72 -79 123q-57 39 -161 88t-141 67q-154 76 -238 190t-83 244q0 227 167 372q168 144 383 144z" />
    <glyph glyph-name="scommaaccent" unicode="&#x219;" horiz-adv-x="1007" 
d="M503 -82q75 0 129 -53t54 -131q0 -233 -266 -453l-82 64l24 26q25 27 56 83t41 116q-59 14 -99 59q-38 45 -38 113t53 122t128 54zM580 1081q90 0 178 -20t131 -41l43 -21l-119 -237q-123 66 -233 65q-61 0 -87 -13t-26 -50t39 -55l19 -9q7 -4 23 -10t38 -14
q21 -8 88 -25q68 -17 173 -95t103 -228q0 -358 -497 -359q-113 0 -214 35t-147 70l-45 37l148 247q45 -39 127 -80t133 -40q113 0 112 75q0 35 -28 55q-29 19 -98 44q-176 64 -263 160q-57 65 -57 171q0 160 124 249t335 89z" />
    <glyph glyph-name="uni021A" unicode="&#x21a;" horiz-adv-x="1220" 
d="M609 -82q75 0 129 -53t55 -131q0 -233 -267 -453l-82 64l25 26q25 27 55 83q31 56 41 116q-59 14 -98 59t-39 113t53 122t128 54zM16 1352v338h1188v-338h-401v-1352h-385v1352h-402z" />
    <glyph glyph-name="uni021B" unicode="&#x21b;" horiz-adv-x="808" 
d="M403 -82q76 0 129 -53t54 -131q0 -233 -267 -453l-81 64q96 92 120 225q-59 14 -98 59t-39 113t53 122t129 54zM629 295q46 0 90 33l90 -293q-117 -66 -243 -66q-228 0 -311 132q-69 109 -71 270v403h-151v277h151v391h363v-391h221v-277h-221v-334q0 -145 82 -145z" />
    <glyph glyph-name="circumflex" unicode="&#x2c6;" horiz-adv-x="1191" 
d="M143 1389l453 331l453 -331l-140 -187l-313 230l-313 -230z" />
    <glyph glyph-name="caron" unicode="&#x2c7;" horiz-adv-x="1191" 
d="M283 1720l313 -229l313 229l140 -186l-453 -332l-453 332z" />
    <glyph glyph-name="breve" unicode="&#x2d8;" horiz-adv-x="1232" 
d="M616 1509q54 0 96 22q42 23 64 53q47 67 51 116l4 20l259 -63q-18 -166 -148 -268q-130 -103 -326 -103q-198 0 -326 102t-147 269l258 63q-1 -21 17 -66q18 -44 40 -72t64 -50t94 -23z" />
    <glyph glyph-name="dotaccent" unicode="&#x2d9;" horiz-adv-x="663" 
d="M332 1620q78 0 133 -55t55 -133t-55 -134t-133 -55q-78 0 -133 55q-55 56 -55 134t54 133q56 55 134 55z" />
    <glyph glyph-name="ring" unicode="&#x2da;" horiz-adv-x="946" 
d="M348 1499q0 -53 35 -91t89 -38t90 38t36 92t-37 91t-88 37t-88 -38t-37 -91zM143 1500q-1 128 95 210t236 82t234 -82t95 -210q0 -128 -92 -210q-93 -82 -239 -82t-238 82q-91 82 -91 210z" />
    <glyph glyph-name="ogonek" unicode="&#x2db;" horiz-adv-x="825" 
d="M143 -324q0 72 54 166q53 94 106 154l53 57l119 -53q-42 -48 -82 -136q-39 -88 -39 -138t24 -72t52 -21q28 0 50 13q21 13 55 49l147 -111q-59 -89 -179 -131q-48 -16 -102 -16q-96 0 -177 59t-81 180z" />
    <glyph glyph-name="tilde" unicode="&#x2dc;" horiz-adv-x="1232" 
d="M442 1354q-28 0 -52 -24t-32 -48l-8 -22h-207q6 40 31 111q24 69 52 117t80 86t121 38t171 -41l37 -15q82 -39 156 -38q29 0 53 24t30 47l9 23h207q-6 -42 -31 -112t-53 -118t-79 -85t-101 -37q-92 1 -191 40l-37 15q-82 39 -156 39z" />
    <glyph glyph-name="hungarumlaut" unicode="&#x2dd;" horiz-adv-x="1241" 
d="M629 1360l354 401l168 -213l-408 -346zM197 1360l354 401l168 -213l-408 -346z" />
    <glyph glyph-name="endash" unicode="&#x2013;" horiz-adv-x="1105" 
d="M0 750h1106v-314h-1106v314z" />
    <glyph glyph-name="emdash" unicode="&#x2014;" horiz-adv-x="2211" 
d="M0 750h2212v-314h-2212v314z" />
    <glyph glyph-name="quoteleft" unicode="&#x2018;" horiz-adv-x="595" 
d="M261 975q-89 0 -151 63t-63 152q0 270 311 530l97 -75q-44 -44 -87 -119q-42 -74 -55 -144q70 -16 115 -69t45 -133t-61 -143q-62 -62 -151 -62z" />
    <glyph glyph-name="quoteright" unicode="&#x2019;" horiz-adv-x="595" 
d="M334 1720q88 0 151 -63t64 -152q0 -270 -311 -530l-97 76q46 46 87 119q42 74 55 143q-70 16 -115 69t-45 133t61 143q62 62 150 62z" />
    <glyph glyph-name="quotesinglbase" unicode="&#x201a;" horiz-adv-x="595" 
d="M334 438q88 0 151 -63t64 -152q0 -270 -311 -530l-97 76q46 46 87 119q42 73 55 143q-70 16 -115 69t-45 133t61 143q62 62 150 62z" />
    <glyph glyph-name="quotedblleft" unicode="&#x201c;" horiz-adv-x="1116" 
d="M780 975q-88 0 -149 62t-62 153q0 276 310 530l96 -75q-44 -44 -87 -119q-42 -74 -57 -144q72 -16 117 -69t45 -132t-62 -143q-63 -63 -151 -63zM261 975q-89 0 -151 63t-63 152q0 270 311 530l97 -75q-44 -44 -87 -119q-42 -74 -55 -144q70 -16 115 -69t45 -133
t-61 -143q-62 -62 -151 -62z" />
    <glyph glyph-name="quotedblright" unicode="&#x201d;" horiz-adv-x="1116" 
d="M854 1720q88 0 152 -63t63 -152q0 -270 -311 -530l-96 76q43 43 86 118t55 144q-70 16 -115 69t-45 133q-1 81 61 143t150 62zM336 1720q88 0 149 -62t62 -153q0 -276 -309 -530l-97 76q46 46 87 119q42 74 57 143q-72 16 -117 69t-45 132t62 143q63 63 151 63z" />
    <glyph glyph-name="quotedblbase" unicode="&#x201e;" horiz-adv-x="1116" 
d="M854 438q88 0 152 -63t63 -152q0 -270 -311 -530l-96 76q43 43 86 117q43 75 55 145q-70 16 -115 69t-45 133q-1 81 61 143t150 62zM336 438q88 0 149 -62t62 -153q0 -276 -309 -530l-97 76q46 46 87 119q42 73 57 143q-72 16 -117 69t-45 132t62 143q63 63 151 63z" />
    <glyph glyph-name="dagger" unicode="&#x2020;" horiz-adv-x="1110" 
d="M143 1331h254v430h314v-430h256v-278h-256v-1053h-314v1053h-254v278z" />
    <glyph glyph-name="daggerdbl" unicode="&#x2021;" horiz-adv-x="1110" 
d="M143 750h254v262h-254v278h254v471h314v-471h256v-278h-256v-262h256v-279h-256v-471h-314v471h-254v279z" />
    <glyph glyph-name="bullet" unicode="&#x2022;" horiz-adv-x="1466" 
d="M332 730q0 167 116 285t284 118q167 0 285 -118t118 -285t-118 -284q-118 -116 -285 -116q-168 0 -284 116t-116 284z" />
    <glyph glyph-name="ellipsis" unicode="&#x2026;" horiz-adv-x="2144" 
d="M1552 204q0 98 69 166t166 68t166 -68t69 -166q0 -97 -70 -166q-68 -69 -165 -69t-166 69t-69 166zM1072 438q97 0 166 -68t69 -166q0 -97 -69 -166t-166 -69t-166 69q-68 69 -68 166t68 166q69 68 166 68zM357 438q97 0 166 -68t69 -166q0 -97 -69 -166t-166 -69
t-166 69t-69 166t69 166q69 68 166 68z" />
    <glyph glyph-name="perthousand" unicode="&#x2030;" horiz-adv-x="3008" 
d="M2320 373q0 -82 54 -136q54 -55 134 -55q79 0 132 54t53 137q0 82 -52 134t-134 52q-83 0 -135 -52t-52 -134zM1321 373q0 -82 54 -136q54 -55 133 -55t132 54t54 137q0 82 -52 134t-135 52q-82 0 -134 -52t-52 -134zM2056 373q0 176 126 290q126 113 327 113t327 -114
t125 -289q0 -176 -129 -290q-130 -114 -322 -114t-323 114t-131 290zM1057 373q0 176 126 290q127 113 327 113t326 -114t126 -289q0 -176 -129 -290t-322 -114t-323 114t-131 290zM311 1317q1 -82 53 -134q52 -53 134 -53t134 52t52 135q0 82 -53 136t-132 54t-133 -54
t-55 -136zM1620 1690l-983 -1690h-242l983 1690h242zM47 1317q0 176 131 290q132 113 324 113t321 -114t129 -289q0 -176 -126 -290t-326 -114t-327 114q-126 114 -126 290z" />
    <glyph glyph-name="guilsinglleft" unicode="&#x2039;" horiz-adv-x="768" 
d="M467 57l-399 512l399 512l190 -149l-282 -363l282 -362z" />
    <glyph glyph-name="guilsinglright" unicode="&#x203a;" horiz-adv-x="768" 
d="M111 207l282 362l-282 363l190 149l399 -512l-399 -512z" />
    <glyph glyph-name="fraction" unicode="&#x2044;" horiz-adv-x="540" 
d="M883 1690l-983 -1690h-242l983 1690h242z" />
    <glyph glyph-name="Euro" unicode="&#x20ac;" horiz-adv-x="1701" 
d="M47 561v221h148q-2 18 -2 60t2 63h-148v221h197q98 260 339 427t525 167q164 0 302 -39t196 -77l57 -39l-168 -336q-41 35 -143 70q-101 35 -189 34q-307 0 -463 -207h623v-221h-711q-4 -21 -4 -49t4 -74h711v-221h-621q154 -205 461 -205q88 0 171 27t122 51l39 27
l168 -336q-203 -153 -555 -156q-286 0 -526 166t-338 426h-197z" />
    <glyph glyph-name="trademark" unicode="&#x2122;" horiz-adv-x="1052" 
d="M893 1161l-25 314h-2l-108 -310h-72l-108 310h-3l-26 -314h-121l47 529h129l117 -304l117 304h129l49 -529h-123zM410 1690v-107h-125v-422h-125v422h-125v107h375z" />
    <glyph glyph-name="minus" unicode="&#x2212;" horiz-adv-x="1296" 
d="M123 1006h1051v-314h-1051v314z" />
    <glyph glyph-name="notequal" unicode="&#x2260;" horiz-adv-x="1296" 
d="M123 446v314h307l102 178h-409v313h592l172 295h241l-172 -295h218v-313h-400l-102 -178h502v-314h-685l-176 -303h-241l176 303h-125z" />
    <glyph glyph-name="lessequal" unicode="&#x2264;" horiz-adv-x="1366" 
d="M123 313h1120v-313h-1120v313zM123 1235l1120 455v-291l-733 -287l733 -283v-290l-1120 454v242z" />
    <glyph glyph-name="greaterequal" unicode="&#x2265;" horiz-adv-x="1366" 
d="M123 313h1120v-313h-1120v313zM123 829l733 283l-733 287v291l1120 -455v-242l-1120 -454v290z" />
    <glyph glyph-name="f_f" unicode="&#xfb00;" horiz-adv-x="1536" 
d="M952 1051v223q2 236 111 377t301 141q82 0 157 -24t109 -48l33 -22l-127 -256q-49 28 -113 28q-65 0 -87 -46t-21 -160v-213h241v-277h-241v-774h-363v774h-364v-774h-363v774h-151v277h151v223q2 236 111 377t301 141q82 0 157 -24t107 -48l35 -22l-127 -256
q-49 28 -113 28t-86 -46t-22 -160v-213h364z" />
    <glyph glyph-name="fi" unicode="&#xfb01;" horiz-adv-x="1376" 
d="M891 0v774h-344v-774h-363v774h-151v277h151v223q2 238 113 378t319 140q165 0 286 -58t167 -96l21 -16l-127 -256q-131 106 -237 106t-143 -46q-36 -48 -36 -162v-213h706v-1051h-362z" />
    <glyph glyph-name="fl" unicode="&#xfb02;" horiz-adv-x="1376" 
d="M891 0v1761h362v-1761h-362zM184 1051v223q2 236 111 377t301 141q143 0 256 -66l-84 -284q-49 28 -113 28q-65 0 -87 -46t-21 -160v-213h241v-277h-241v-774h-363v774h-151v277h151z" />
    <glyph glyph-name="f_f_i" unicode="&#xfb03;" horiz-adv-x="2144" 
d="M1659 0v774h-344v-774h-363v774h-364v-774h-363v774h-151v277h151v223q2 236 111 377t301 141q82 0 157 -24t107 -48l35 -22l-127 -256q-49 28 -113 28t-86 -46t-22 -160v-213h364v223q2 238 113 378t319 140q165 0 289 -59q123 -59 162 -95l23 -16l-127 -256
q-131 106 -237 106t-143 -46q-36 -48 -36 -162v-213h706v-1051h-362z" />
    <glyph glyph-name="f_f_l" unicode="&#xfb04;" horiz-adv-x="2144" 
d="M1659 0v1761h362v-1761h-362zM225 1051v223q2 236 111 377t301 141q82 0 157 -24t107 -48l35 -22l-127 -256q-49 28 -113 28t-86 -46t-22 -160v-213h364v223q2 236 111 377t301 141q143 0 256 -66l-84 -284q-49 28 -113 28q-65 0 -87 -46t-21 -160v-213h241v-277h-241
v-774h-363v774h-364v-774h-363v774h-151v277h151z" />
    <glyph glyph-name="R.1" horiz-adv-x="1478" 
d="M508 940h45q186 0 252 53q67 53 67 168q0 207 -229 219q-37 2 -90 2h-45v-442zM1317 315q43 0 94 31l111 -278q-10 -10 -30 -26t-94 -45q-74 -28 -144 -28t-138 22t-150 95q-30 27 -44 45l-414 537v-668h-385v1690h604q243 0 397 -130t154 -372q0 -186 -93 -312
t-253 -178q43 -49 145 -171q101 -122 149 -167t91 -45z" />
    <glyph glyph-name="Q.2" horiz-adv-x="1794" 
d="M890 1333q-210 0 -318 -141t-109 -345q0 -204 98 -346q98 -143 328 -143q70 0 121 15q-111 102 -209 229l164 205q115 -127 286 -244q61 117 61 303t-106 327q-106 140 -316 140zM47 843q0 373 246 625t597 252t595 -253t244 -621q0 -262 -125 -473q94 -45 231 -82
l-170 -344q-170 63 -309 162q-203 -139 -467 -140q-371 0 -607 251t-235 623z" />
    <glyph glyph-name="f_f_j" horiz-adv-x="2144" 
d="M2021 1051v-1213q0 -153 -79 -269q-41 -60 -119 -96t-150 -36q-189 0 -259 38q-11 5 -34 15t-26 12l112 293q47 -31 93 -31q100 0 100 144v866h-344v-774h-363v774h-364v-774h-363v774h-151v277h151v223q2 236 111 377t301 141q82 0 157 -24t107 -48l35 -22l-127 -256
q-49 28 -113 28t-86 -46t-22 -160v-213h364v223q2 238 113 378t319 140q165 0 289 -59q123 -59 162 -95l23 -16l-127 -256q-131 106 -237 106t-143 -46q-36 -48 -36 -162v-213h706z" />
    <glyph glyph-name="f_f_t" horiz-adv-x="2283" 
d="M2103 295q46 0 90 33l91 -293q-117 -66 -243 -66q-230 0 -311 132q-71 112 -71 270v403h-344v-774h-363v774h-364v-774h-363v774h-151v277h151v223q2 236 111 377t301 141q82 0 157 -24t107 -48l35 -22l-127 -256q-49 28 -113 28t-86 -46t-22 -160v-213h364v223
q2 236 111 377t301 141q82 0 157 -24t109 -48l33 -22l-127 -256q-49 28 -113 28q-65 0 -87 -46t-21 -160v-213h344v391h362v-391h222v-277h-222v-334q0 -145 82 -145z" />
    <glyph glyph-name="f_j" horiz-adv-x="1376" 
d="M1253 1051v-1213q0 -153 -79 -269q-41 -60 -119 -96t-150 -36q-189 0 -259 38q-11 5 -34 15t-26 12l112 293q47 -31 93 -31q100 0 100 144v866h-344v-774h-363v774h-151v277h151v223q2 238 113 378t319 140q165 0 286 -58t167 -96l21 -16l-127 -256q-131 106 -237 106
t-143 -46q-36 -48 -36 -162v-213h706z" />
    <glyph glyph-name="f_t" horiz-adv-x="1515" 
d="M1335 295q46 0 90 33l91 -293q-117 -66 -243 -66q-230 0 -311 132q-71 112 -71 270v403h-344v-774h-363v774h-151v277h151v223q2 236 111 377t301 141q82 0 157 -24t107 -48l35 -22l-127 -256q-49 28 -113 28q-65 0 -87 -46t-21 -160v-213h344v391h362v-391h222v-277
h-222v-334q0 -145 82 -145z" />
    </font>
</defs>
</svg>
